STARTFONT 2.1
COMMENT
COMMENT Converted from OpenType font "ibmplex.ttf" by "otf2bdf 3.0".
COMMENT
FONT -FreeType-IBM Plex Sans Thin-Medium-R-Normal--33-240-100-100-P-148-ISO10646-1
SIZE 24 100 100
FONTBOUNDINGBOX 44 43 -5 -7
STARTPROPERTIES 19
FOUNDRY "FreeType"
FAMILY_NAME "IBM Plex Sans Thin"
WEIGHT_NAME "Medium"
SLANT "R"
SETWIDTH_NAME "Normal"
ADD_STYLE_NAME ""
PIXEL_SIZE 33
POINT_SIZE 240
RESOLUTION_X 100
RESOLUTION_Y 100
SPACING "P"
AVERAGE_WIDTH 148
CHARSET_REGISTRY "ISO10646"
CHARSET_ENCODING "1"
FONT_ASCENT 33
FONT_DESCENT 9
COPYRIGHT "Copyright 2018 IBM Corp. All rights reserved."
_OTF_FONTFILE "ibmplex.ttf"
_OTF_PSNAME "IBMPlexSans-Thin"
ENDPROPERTIES
CHARS 826
STARTCHAR 0000
ENCODING 0
SWIDTH 0 0
DWIDTH 0 0
BBX 0 0 0 0
BITMAP
ENDCHAR
STARTCHAR 000D
ENCODING 13
SWIDTH 210 0
DWIDTH 7 0
BBX 0 0 0 0
BITMAP
ENDCHAR
STARTCHAR 0020
ENCODING 32
SWIDTH 210 0
DWIDTH 7 0
BBX 0 0 0 0
BITMAP
ENDCHAR
STARTCHAR 0021
ENCODING 33
SWIDTH 240 0
DWIDTH 8 0
BBX 2 23 3 0
BITMAP
40
40
40
40
40
40
40
40
40
40
40
40
40
80
80
80
00
00
00
00
00
C0
C0
ENDCHAR
STARTCHAR 0022
ENCODING 34
SWIDTH 360 0
DWIDTH 12 0
BBX 6 9 3 16
BITMAP
84
84
84
84
84
84
84
84
84
ENDCHAR
STARTCHAR 0023
ENCODING 35
SWIDTH 690 0
DWIDTH 23 0
BBX 19 23 2 0
BITMAP
008100
010200
010200
010200
010200
010200
010200
3FFFE0
020400
020400
020400
020400
020800
040800
040800
FFFFC0
040800
040800
041000
081000
081000
081000
081000
ENDCHAR
STARTCHAR 0024
ENCODING 36
SWIDTH 540 0
DWIDTH 18 0
BBX 14 29 2 -3
BITMAP
0100
0100
0100
1FE0
6118
8104
8100
8100
8100
8100
8100
4100
2100
1D00
03E0
0110
0108
0104
0104
0104
0104
0104
8104
4108
2110
1FE0
0100
0100
0100
ENDCHAR
STARTCHAR 0025
ENCODING 37
SWIDTH 870 0
DWIDTH 29 0
BBX 25 24 2 0
BITMAP
0C000000
33000800
40801000
40802000
80402000
80404000
80408000
80410000
80410000
80420000
40840000
20840000
1B087E00
04108100
00108100
00210080
00410080
00410080
00810080
01010080
02010080
02008100
04008100
08007E00
ENDCHAR
STARTCHAR 0026
ENCODING 38
SWIDTH 660 0
DWIDTH 22 0
BBX 19 24 2 0
BITMAP
018000
063000
180800
100800
100400
200400
200800
100800
101000
082000
04C000
030000
0D01E0
108100
204100
402100
801100
800900
800600
800200
800500
400480
200840
1FF020
ENDCHAR
STARTCHAR 0027
ENCODING 39
SWIDTH 210 0
DWIDTH 7 0
BBX 1 9 3 16
BITMAP
80
80
80
80
80
80
80
80
80
ENDCHAR
STARTCHAR 0028
ENCODING 40
SWIDTH 330 0
DWIDTH 11 0
BBX 7 30 3 -5
BITMAP
02
04
08
10
10
20
20
40
40
40
40
80
80
80
80
80
80
80
80
40
40
40
20
20
10
10
08
08
04
02
ENDCHAR
STARTCHAR 0029
ENCODING 41
SWIDTH 330 0
DWIDTH 11 0
BBX 7 30 1 -5
BITMAP
80
40
20
10
10
08
08
08
04
04
04
04
04
02
02
02
04
04
04
04
04
08
08
08
10
10
20
40
40
80
ENDCHAR
STARTCHAR 002A
ENCODING 42
SWIDTH 360 0
DWIDTH 12 0
BBX 10 9 1 16
BITMAP
0800
0800
0800
C8C0
3F00
0C00
1200
2200
2100
ENDCHAR
STARTCHAR 002B
ENCODING 43
SWIDTH 600 0
DWIDTH 20 0
BBX 16 15 2 2
BITMAP
0100
0100
0100
0100
0100
0100
0100
FFFF
0100
0100
0100
0100
0100
0100
0100
ENDCHAR
STARTCHAR 002C
ENCODING 44
SWIDTH 240 0
DWIDTH 8 0
BBX 3 7 2 -5
BITMAP
60
60
20
20
40
40
80
ENDCHAR
STARTCHAR 002D
ENCODING 45
SWIDTH 390 0
DWIDTH 13 0
BBX 7 1 3 10
BITMAP
FE
ENDCHAR
STARTCHAR 002E
ENCODING 46
SWIDTH 240 0
DWIDTH 8 0
BBX 2 2 3 0
BITMAP
C0
C0
ENDCHAR
STARTCHAR 002F
ENCODING 47
SWIDTH 300 0
DWIDTH 10 0
BBX 9 30 0 -5
BITMAP
0080
0080
0100
0100
0100
0100
0200
0200
0200
0200
0400
0400
0400
0400
0800
0800
0800
1000
1000
1000
1000
2000
2000
2000
2000
4000
4000
4000
4000
8000
ENDCHAR
STARTCHAR 0030
ENCODING 48
SWIDTH 600 0
DWIDTH 20 0
BBX 16 24 2 0
BITMAP
03C0
0C30
1008
2004
4004
4002
4002
8002
8002
8002
8001
8001
8001
8001
8001
8002
8002
4002
4002
4002
2004
2004
1008
0FF0
ENDCHAR
STARTCHAR 0031
ENCODING 49
SWIDTH 600 0
DWIDTH 20 0
BBX 15 23 3 0
BITMAP
0300
0500
0900
3100
4100
8100
0100
0100
0100
0100
0100
0100
0100
0100
0100
0100
0100
0100
0100
0100
0100
0100
FFFE
ENDCHAR
STARTCHAR 0032
ENCODING 50
SWIDTH 600 0
DWIDTH 20 0
BBX 14 24 3 0
BITMAP
0380
1860
6010
4008
8008
8008
0008
0008
0008
0008
0010
0010
0020
0040
0040
0080
0100
0200
0400
0800
1000
2000
4000
FFFC
ENDCHAR
STARTCHAR 0033
ENCODING 51
SWIDTH 600 0
DWIDTH 20 0
BBX 13 24 3 0
BITMAP
0700
38E0
4010
8010
0008
0008
0008
0008
0010
0010
0020
1FC0
0040
0030
0008
0008
0008
0008
0008
0008
0008
8010
4030
3FC0
ENDCHAR
STARTCHAR 0034
ENCODING 52
SWIDTH 600 0
DWIDTH 20 0
BBX 16 23 2 0
BITMAP
0010
0030
0050
0050
0090
0110
0110
0210
0410
0410
0810
1010
2010
2010
4010
8010
8010
FFFF
0010
0010
0010
0010
0010
ENDCHAR
STARTCHAR 0035
ENCODING 53
SWIDTH 600 0
DWIDTH 20 0
BBX 14 23 3 0
BITMAP
7FF8
4000
4000
4000
4000
4000
4000
4000
4000
4780
5860
E010
0008
0008
0004
0004
0004
0004
0004
0008
8008
4010
3FE0
ENDCHAR
STARTCHAR 0036
ENCODING 54
SWIDTH 600 0
DWIDTH 20 0
BBX 14 23 3 0
BITMAP
0080
0100
0600
0800
1000
1000
2000
4000
4000
4F80
9030
E008
C008
8004
8004
8004
8004
8004
8004
8008
4008
2010
1FE0
ENDCHAR
STARTCHAR 0037
ENCODING 55
SWIDTH 600 0
DWIDTH 20 0
BBX 14 23 3 0
BITMAP
FFFC
8004
8008
8008
8010
0010
0020
0020
0040
0040
0040
0080
0080
0100
0100
0200
0200
0400
0400
0400
0800
0800
1000
ENDCHAR
STARTCHAR 0038
ENCODING 56
SWIDTH 600 0
DWIDTH 20 0
BBX 16 24 2 0
BITMAP
0180
0C30
300C
2004
4002
4002
4002
4002
4004
2004
1008
0FF0
0C30
300C
4002
4002
8002
8001
8001
8002
4002
4002
2004
1FF8
ENDCHAR
STARTCHAR 0039
ENCODING 57
SWIDTH 600 0
DWIDTH 20 0
BBX 14 24 3 0
BITMAP
0780
1860
2010
4008
8004
8004
8004
8004
8004
8004
8004
400C
2014
1824
0348
0008
0010
0010
0020
0040
0080
0100
0200
0400
ENDCHAR
STARTCHAR 003A
ENCODING 58
SWIDTH 240 0
DWIDTH 8 0
BBX 2 17 3 0
BITMAP
C0
40
00
00
00
00
00
00
00
00
00
00
00
00
00
40
C0
ENDCHAR
STARTCHAR 003B
ENCODING 59
SWIDTH 240 0
DWIDTH 8 0
BBX 3 22 2 -5
BITMAP
60
20
00
00
00
00
00
00
00
00
00
00
00
00
00
20
60
20
20
40
40
80
ENDCHAR
STARTCHAR 003C
ENCODING 60
SWIDTH 600 0
DWIDTH 20 0
BBX 14 18 3 1
BITMAP
0004
0008
0030
00C0
0100
0600
1800
2000
C000
C000
2000
1800
0600
0100
00C0
0030
0008
0004
ENDCHAR
STARTCHAR 003D
ENCODING 61
SWIDTH 600 0
DWIDTH 20 0
BBX 16 6 2 7
BITMAP
7FFE
0000
0000
0000
0000
FFFF
ENDCHAR
STARTCHAR 003E
ENCODING 62
SWIDTH 600 0
DWIDTH 20 0
BBX 14 18 3 1
BITMAP
8000
4000
3000
0C00
0200
0180
0060
0010
000C
000C
0010
0060
0180
0200
0C00
3000
4000
8000
ENDCHAR
STARTCHAR 003F
ENCODING 63
SWIDTH 450 0
DWIDTH 15 0
BBX 13 24 1 0
BITMAP
0300
18E0
2010
4010
8008
0008
0008
0008
0008
0010
0010
0060
0380
0400
0400
0400
0400
0400
0000
0000
0000
0000
0600
0600
ENDCHAR
STARTCHAR 0040
ENCODING 64
SWIDTH 870 0
DWIDTH 29 0
BBX 25 28 2 -4
BITMAP
001E0000
01E1C000
02003000
0C000800
10000400
20000200
20000100
403E4100
40414100
4080C080
81004080
81004080
81004080
81004080
81004080
81004080
81004080
81004080
81004100
4080C100
40412200
203E1C00
20000000
10000000
08000000
04000000
03000000
00FFF800
ENDCHAR
STARTCHAR 0041
ENCODING 65
SWIDTH 600 0
DWIDTH 20 0
BBX 18 23 1 0
BITMAP
00C000
00C000
012000
012000
012000
021000
021000
041000
040800
040800
080800
080400
080400
100400
100200
1FFE00
200100
200100
400100
400080
400080
800080
800040
ENDCHAR
STARTCHAR 0042
ENCODING 66
SWIDTH 600 0
DWIDTH 20 0
BBX 14 23 4 0
BITMAP
FFE0
8010
8008
8008
8008
8008
8008
8008
8008
8010
FFE0
8030
8008
8004
8004
8004
8004
8004
8004
8004
8008
8018
FFE0
ENDCHAR
STARTCHAR 0043
ENCODING 67
SWIDTH 600 0
DWIDTH 20 0
BBX 16 24 2 0
BITMAP
01E0
0618
1804
2002
2001
4000
4000
4000
8000
8000
8000
8000
8000
8000
8000
8000
8000
4000
4000
4001
2001
1002
0804
07F8
ENDCHAR
STARTCHAR 0044
ENCODING 68
SWIDTH 630 0
DWIDTH 21 0
BBX 16 23 4 0
BITMAP
FFE0
8010
8008
8004
8004
8002
8002
8002
8002
8001
8001
8001
8001
8001
8002
8002
8002
8002
8004
8004
8008
8030
FFC0
ENDCHAR
STARTCHAR 0045
ENCODING 69
SWIDTH 540 0
DWIDTH 18 0
BBX 12 23 4 0
BITMAP
FFF0
8000
8000
8000
8000
8000
8000
8000
8000
8000
8000
FFF0
8000
8000
8000
8000
8000
8000
8000
8000
8000
8000
FFF0
ENDCHAR
STARTCHAR 0046
ENCODING 70
SWIDTH 510 0
DWIDTH 17 0
BBX 12 23 4 0
BITMAP
FFF0
8000
8000
8000
8000
8000
8000
8000
8000
8000
8000
FFF0
8000
8000
8000
8000
8000
8000
8000
8000
8000
8000
8000
ENDCHAR
STARTCHAR 0047
ENCODING 71
SWIDTH 660 0
DWIDTH 22 0
BBX 18 24 2 0
BITMAP
01E000
061C00
180200
200100
200080
400000
400000
400000
800000
800000
800000
800000
800000
801FC0
800040
800040
800040
400040
400040
4000C0
2000C0
100140
080240
07FC40
ENDCHAR
STARTCHAR 0048
ENCODING 72
SWIDTH 690 0
DWIDTH 23 0
BBX 15 23 4 0
BITMAP
8002
8002
8002
8002
8002
8002
8002
8002
8002
8002
8002
FFFE
8002
8002
8002
8002
8002
8002
8002
8002
8002
8002
8002
ENDCHAR
STARTCHAR 0049
ENCODING 73
SWIDTH 360 0
DWIDTH 12 0
BBX 8 23 2 0
BITMAP
7F
08
08
08
08
08
08
08
08
08
08
08
08
08
08
08
08
08
08
08
08
08
FF
ENDCHAR
STARTCHAR 004A
ENCODING 74
SWIDTH 450 0
DWIDTH 15 0
BBX 11 23 1 0
BITMAP
1FE0
0020
0020
0020
0020
0020
0020
0020
0020
0020
0020
0020
0020
0020
0020
0020
0020
0020
0020
8020
8040
4040
3F80
ENDCHAR
STARTCHAR 004B
ENCODING 75
SWIDTH 570 0
DWIDTH 19 0
BBX 14 23 4 0
BITMAP
8004
8008
8010
8020
8040
8080
8100
8200
8400
8800
9400
9200
A200
C100
8080
8080
8040
8020
8020
8010
8008
8008
8004
ENDCHAR
STARTCHAR 004C
ENCODING 76
SWIDTH 450 0
DWIDTH 15 0
BBX 11 23 4 0
BITMAP
8000
8000
8000
8000
8000
8000
8000
8000
8000
8000
8000
8000
8000
8000
8000
8000
8000
8000
8000
8000
8000
8000
FFE0
ENDCHAR
STARTCHAR 004D
ENCODING 77
SWIDTH 780 0
DWIDTH 26 0
BBX 19 23 4 0
BITMAP
800060
C00060
C000A0
A00120
900120
900220
880220
880420
840820
820820
821020
811020
812020
80C020
804020
800020
800020
800020
800020
800020
800020
800020
800020
ENDCHAR
STARTCHAR 004E
ENCODING 78
SWIDTH 690 0
DWIDTH 23 0
BBX 15 23 4 0
BITMAP
8002
C002
C002
A002
9002
9002
8802
8402
8402
8202
8202
8102
8082
8082
8042
8022
8022
8012
8012
800A
8006
8006
8002
ENDCHAR
STARTCHAR 004F
ENCODING 79
SWIDTH 660 0
DWIDTH 22 0
BBX 18 24 2 0
BITMAP
01E000
061C00
180200
200100
200080
400080
400040
400040
800040
800040
800040
800040
800040
800040
800040
800040
800040
400040
400080
400080
200080
100100
080200
07F800
ENDCHAR
STARTCHAR 0050
ENCODING 80
SWIDTH 570 0
DWIDTH 19 0
BBX 14 23 4 0
BITMAP
FFF0
8008
8004
8004
8004
8004
8004
8004
8004
8004
8008
8070
FF80
8000
8000
8000
8000
8000
8000
8000
8000
8000
8000
ENDCHAR
STARTCHAR 0051
ENCODING 81
SWIDTH 660 0
DWIDTH 22 0
BBX 18 29 2 -5
BITMAP
01E000
061C00
180200
200100
200080
400080
400040
400040
800040
800040
800040
800040
800040
800040
800040
800040
800040
400040
400080
400080
200080
100100
080200
061C00
01E000
004000
004000
004000
007800
ENDCHAR
STARTCHAR 0052
ENCODING 82
SWIDTH 630 0
DWIDTH 21 0
BBX 15 23 4 0
BITMAP
FFF0
8008
8004
8004
8004
8004
8004
8004
8004
8004
8008
8070
FF80
8080
8040
8040
8020
8010
8010
8008
8008
8004
8002
ENDCHAR
STARTCHAR 0053
ENCODING 83
SWIDTH 540 0
DWIDTH 18 0
BBX 14 24 2 0
BITMAP
0380
3870
4008
8004
8000
8000
8000
8000
8000
4000
2000
1C00
03C0
0030
0008
0004
0004
0004
0004
0004
0004
8008
4008
3FF0
ENDCHAR
STARTCHAR 0054
ENCODING 84
SWIDTH 540 0
DWIDTH 18 0
BBX 17 23 1 0
BITMAP
FFFF80
008000
008000
008000
008000
008000
008000
008000
008000
008000
008000
008000
008000
008000
008000
008000
008000
008000
008000
008000
008000
008000
008000
ENDCHAR
STARTCHAR 0055
ENCODING 85
SWIDTH 630 0
DWIDTH 21 0
BBX 15 23 3 0
BITMAP
8002
8002
8002
8002
8002
8002
8002
8002
8002
8002
8002
8002
8002
8002
8002
8002
8002
8002
8002
4002
4004
200C
1FF0
ENDCHAR
STARTCHAR 0056
ENCODING 86
SWIDTH 570 0
DWIDTH 19 0
BBX 17 23 1 0
BITMAP
800080
800100
400100
400100
400200
200200
200200
200400
100400
100400
100800
080800
080800
041000
041000
041000
022000
022000
022000
014000
014000
014000
008000
ENDCHAR
STARTCHAR 0057
ENCODING 87
SWIDTH 870 0
DWIDTH 29 0
BBX 27 23 1 0
BITMAP
80040020
800A0020
400A0040
400A0040
40120040
40110040
20110080
20110080
20208080
20208100
10208100
10408100
10404100
10404200
08404200
08804200
08802200
08802400
05002400
05001400
05001400
03001800
02000800
ENDCHAR
STARTCHAR 0058
ENCODING 88
SWIDTH 540 0
DWIDTH 18 0
BBX 16 23 1 0
BITMAP
4001
4002
2002
1004
1008
0808
0410
0420
0220
0140
0180
0080
0140
0240
0220
0410
0810
0808
1004
2004
4002
4001
8001
ENDCHAR
STARTCHAR 0059
ENCODING 89
SWIDTH 540 0
DWIDTH 18 0
BBX 16 23 1 0
BITMAP
8001
4002
4002
2004
2004
1008
0810
0810
0420
0420
0240
0140
0180
0100
0100
0100
0100
0100
0100
0100
0100
0100
0100
ENDCHAR
STARTCHAR 005A
ENCODING 90
SWIDTH 540 0
DWIDTH 18 0
BBX 17 23 1 0
BITMAP
3FFF00
000200
000200
000400
000800
001000
001000
002000
004000
004000
008000
010000
010000
020000
040000
040000
080000
100000
100000
200000
400000
400000
FFFF80
ENDCHAR
STARTCHAR 005B
ENCODING 91
SWIDTH 300 0
DWIDTH 10 0
BBX 4 30 4 -5
BITMAP
E0
80
80
80
80
80
80
80
80
80
80
80
80
80
80
80
80
80
80
80
80
80
80
80
80
80
80
80
80
F0
ENDCHAR
STARTCHAR 005C
ENCODING 92
SWIDTH 300 0
DWIDTH 10 0
BBX 9 30 1 -5
BITMAP
8000
8000
4000
4000
4000
4000
2000
2000
2000
2000
1000
1000
1000
1000
0800
0800
0800
0400
0400
0400
0400
0200
0200
0200
0200
0100
0100
0100
0100
0080
ENDCHAR
STARTCHAR 005D
ENCODING 93
SWIDTH 300 0
DWIDTH 10 0
BBX 4 30 2 -5
BITMAP
70
10
10
10
10
10
10
10
10
10
10
10
10
10
10
10
10
10
10
10
10
10
10
10
10
10
10
10
10
F0
ENDCHAR
STARTCHAR 005E
ENCODING 94
SWIDTH 600 0
DWIDTH 20 0
BBX 15 12 2 11
BITMAP
0180
0280
0240
0420
0420
0810
1010
1008
2004
2004
4002
8002
ENDCHAR
STARTCHAR 005F
ENCODING 95
SWIDTH 540 0
DWIDTH 18 0
BBX 17 1 1 -5
BITMAP
FFFF80
ENDCHAR
STARTCHAR 0060
ENCODING 96
SWIDTH 600 0
DWIDTH 20 0
BBX 4 5 7 20
BITMAP
80
80
40
20
10
ENDCHAR
STARTCHAR 0061
ENCODING 97
SWIDTH 510 0
DWIDTH 17 0
BBX 15 17 2 0
BITMAP
1FC0
2020
4020
0010
0010
0010
0010
0010
1FF0
6010
8010
8010
8010
8010
8030
4050
3F9E
ENDCHAR
STARTCHAR 0062
ENCODING 98
SWIDTH 540 0
DWIDTH 18 0
BBX 14 25 3 0
BITMAP
8000
8000
8000
8000
8000
8000
8000
8000
8FC0
B030
C010
8008
8008
8004
8004
8004
8004
8004
8004
8004
8008
8008
C010
A010
9FE0
ENDCHAR
STARTCHAR 0063
ENCODING 99
SWIDTH 480 0
DWIDTH 16 0
BBX 13 17 2 0
BITMAP
0FC0
3020
4010
4000
8000
8000
8000
8000
8000
8000
8000
8000
8000
4000
4008
2010
1FE0
ENDCHAR
STARTCHAR 0064
ENCODING 100
SWIDTH 540 0
DWIDTH 18 0
BBX 13 24 2 1
BITMAP
0008
0008
0008
0008
0008
0008
0008
0FC8
3038
4018
4008
8008
8008
8008
8008
8008
8008
8008
8008
8008
4008
4018
2018
1FE8
ENDCHAR
STARTCHAR 0065
ENCODING 101
SWIDTH 510 0
DWIDTH 17 0
BBX 14 17 2 0
BITMAP
0FC0
3020
4010
4008
8008
8008
8004
8004
FFF8
8000
8000
8000
8000
4008
4008
2010
1FE0
ENDCHAR
STARTCHAR 0066
ENCODING 102
SWIDTH 270 0
DWIDTH 9 0
BBX 8 25 1 0
BITMAP
1F
10
10
10
10
10
10
10
FF
10
10
10
10
10
10
10
10
10
10
10
10
10
10
10
10
ENDCHAR
STARTCHAR 0067
ENCODING 103
SWIDTH 510 0
DWIDTH 17 0
BBX 15 26 2 -7
BITMAP
001E
0020
0FE0
3020
4010
4010
4010
4008
4010
4010
2010
1020
0FC0
3000
4000
4000
4000
3FF0
600C
8004
8002
8002
8002
8004
4008
3FF0
ENDCHAR
STARTCHAR 0068
ENCODING 104
SWIDTH 540 0
DWIDTH 18 0
BBX 12 25 3 0
BITMAP
8000
8000
8000
8000
8000
8000
8000
8000
9FC0
A020
C010
8010
8010
8010
8010
8010
8010
8010
8010
8010
8010
8010
8010
8010
8010
ENDCHAR
STARTCHAR 0069
ENCODING 105
SWIDTH 210 0
DWIDTH 7 0
BBX 2 24 3 0
BITMAP
C0
00
00
00
00
00
00
80
80
80
80
80
80
80
80
80
80
80
80
80
80
80
80
80
ENDCHAR
STARTCHAR 006A
ENCODING 106
SWIDTH 210 0
DWIDTH 7 0
BBX 4 31 1 -7
BITMAP
30
00
00
00
00
00
00
20
20
20
20
20
20
20
20
20
20
20
20
20
20
20
20
20
20
20
20
20
20
20
E0
ENDCHAR
STARTCHAR 006B
ENCODING 107
SWIDTH 480 0
DWIDTH 16 0
BBX 12 25 3 0
BITMAP
8000
8000
8000
8000
8000
8000
8000
8000
8020
8040
8080
8100
8200
8400
8800
9800
A400
C400
8200
8100
8080
8040
8020
8020
8010
ENDCHAR
STARTCHAR 006C
ENCODING 108
SWIDTH 240 0
DWIDTH 8 0
BBX 4 25 3 0
BITMAP
80
80
80
80
80
80
80
80
80
80
80
80
80
80
80
80
80
80
80
80
80
80
80
80
70
ENDCHAR
STARTCHAR 006D
ENCODING 109
SWIDTH 870 0
DWIDTH 29 0
BBX 23 17 3 0
BITMAP
9FC3F8
A02404
C02804
801002
801002
801002
801002
801002
801002
801002
801002
801002
801002
801002
801002
801002
801002
ENDCHAR
STARTCHAR 006E
ENCODING 110
SWIDTH 540 0
DWIDTH 18 0
BBX 12 17 3 0
BITMAP
9FC0
A020
C010
8010
8010
8010
8010
8010
8010
8010
8010
8010
8010
8010
8010
8010
8010
ENDCHAR
STARTCHAR 006F
ENCODING 111
SWIDTH 540 0
DWIDTH 18 0
BBX 14 17 2 0
BITMAP
0FC0
3030
4008
4008
8008
8004
8004
8004
8004
8004
8004
8004
8004
4008
4008
2010
1FE0
ENDCHAR
STARTCHAR 0070
ENCODING 112
SWIDTH 540 0
DWIDTH 18 0
BBX 14 24 3 -7
BITMAP
8FC0
B030
C010
8008
8008
8004
8004
8004
8004
8004
8004
8004
8008
8008
C010
A010
98E0
8700
8000
8000
8000
8000
8000
8000
ENDCHAR
STARTCHAR 0071
ENCODING 113
SWIDTH 540 0
DWIDTH 18 0
BBX 13 23 2 -7
BITMAP
0FC0
3038
4018
4008
8008
8008
8008
8008
8008
8008
8008
8008
8008
4008
4018
2018
1868
0788
0008
0008
0008
0008
0008
ENDCHAR
STARTCHAR 0072
ENCODING 114
SWIDTH 330 0
DWIDTH 11 0
BBX 8 17 3 0
BITMAP
8F
B0
C0
C0
80
80
80
80
80
80
80
80
80
80
80
80
80
ENDCHAR
STARTCHAR 0073
ENCODING 115
SWIDTH 450 0
DWIDTH 15 0
BBX 11 17 2 0
BITMAP
3F80
4040
8020
8000
8000
8000
4000
2000
1700
00C0
0020
0020
0020
0020
8020
4020
3FC0
ENDCHAR
STARTCHAR 0074
ENCODING 116
SWIDTH 300 0
DWIDTH 10 0
BBX 8 22 1 0
BITMAP
10
10
10
10
10
FF
10
10
10
10
10
10
10
10
10
10
10
10
10
10
10
1F
ENDCHAR
STARTCHAR 0075
ENCODING 117
SWIDTH 540 0
DWIDTH 18 0
BBX 12 17 3 0
BITMAP
8010
8010
8010
8010
8010
8010
8010
8010
8010
8010
8010
8010
8010
8010
4010
4030
3FD0
ENDCHAR
STARTCHAR 0076
ENCODING 118
SWIDTH 450 0
DWIDTH 15 0
BBX 13 17 1 0
BITMAP
8008
8008
8010
4010
4010
2020
2020
2020
1040
1040
1080
0880
0880
0500
0500
0500
0200
ENDCHAR
STARTCHAR 0077
ENCODING 119
SWIDTH 720 0
DWIDTH 24 0
BBX 22 17 1 0
BITMAP
801004
803004
403008
404808
404808
204810
208810
208410
208420
110420
110220
110220
090240
0A0140
0A0140
060180
040080
ENDCHAR
STARTCHAR 0078
ENCODING 120
SWIDTH 450 0
DWIDTH 15 0
BBX 13 17 1 0
BITMAP
0008
4010
2010
1020
1040
0880
0480
0500
0200
0500
0480
0880
1040
1020
2010
4010
8008
ENDCHAR
STARTCHAR 0079
ENCODING 121
SWIDTH 450 0
DWIDTH 15 0
BBX 13 24 1 -7
BITMAP
8008
8008
8010
4010
4010
2020
2020
2020
1040
1040
1080
0880
0880
0500
0500
0500
0200
0200
0400
0400
0400
0800
0800
7000
ENDCHAR
STARTCHAR 007A
ENCODING 122
SWIDTH 390 0
DWIDTH 13 0
BBX 12 17 1 0
BITMAP
FFF0
0020
0020
0040
0080
0080
0100
0200
0400
0400
0800
1000
2000
2000
4000
8000
FFF0
ENDCHAR
STARTCHAR 007B
ENCODING 123
SWIDTH 300 0
DWIDTH 10 0
BBX 7 30 1 -5
BITMAP
1E
10
10
10
10
10
10
10
10
10
10
10
20
20
C0
C0
20
10
10
10
10
10
10
10
10
10
10
10
10
0E
ENDCHAR
STARTCHAR 007C
ENCODING 124
SWIDTH 210 0
DWIDTH 7 0
BBX 1 29 3 -5
BITMAP
80
80
80
80
80
80
80
80
80
80
80
80
80
80
80
80
80
80
80
80
80
80
80
80
80
80
80
80
80
ENDCHAR
STARTCHAR 007D
ENCODING 125
SWIDTH 300 0
DWIDTH 10 0
BBX 8 30 2 -5
BITMAP
70
10
10
10
10
10
10
10
10
10
10
10
08
04
03
06
08
08
10
10
10
10
10
10
10
10
10
10
10
F0
ENDCHAR
STARTCHAR 007E
ENCODING 126
SWIDTH 600 0
DWIDTH 20 0
BBX 14 3 3 9
BITMAP
3000
8E00
01FC
ENDCHAR
STARTCHAR 00A0
ENCODING 160
SWIDTH 210 0
DWIDTH 7 0
BBX 0 0 0 0
BITMAP
ENDCHAR
STARTCHAR 00A1
ENCODING 161
SWIDTH 240 0
DWIDTH 8 0
BBX 2 23 3 -6
BITMAP
C0
C0
00
00
00
00
00
80
80
80
40
40
40
40
40
40
40
40
40
40
40
40
40
ENDCHAR
STARTCHAR 00A2
ENCODING 162
SWIDTH 480 0
DWIDTH 16 0
BBX 13 25 2 -4
BITMAP
0200
0200
0200
0200
0FC0
3220
4210
4200
8200
8200
8200
8200
8200
8200
8200
8200
8200
4200
4208
2210
1A60
0780
0200
0200
0200
ENDCHAR
STARTCHAR 00A3
ENCODING 163
SWIDTH 570 0
DWIDTH 19 0
BBX 15 24 2 0
BITMAP
00C0
0E38
1004
2002
2000
2000
4000
4000
2000
2000
2000
1000
1000
FFE0
1000
0800
0800
0800
0800
1000
1000
2000
4000
7FFE
ENDCHAR
STARTCHAR 00A4
ENCODING 164
SWIDTH 570 0
DWIDTH 19 0
BBX 17 17 1 4
BITMAP
800080
43F100
280A00
100400
100200
200200
200200
200200
200200
200200
200200
200200
100400
180400
241A00
43E100
800080
ENDCHAR
STARTCHAR 00A5
ENCODING 165
SWIDTH 570 0
DWIDTH 19 0
BBX 15 23 2 0
BITMAP
8002
4002
4004
2008
2008
1010
0810
0820
0440
0440
0280
0100
7FFC
0100
0100
0100
0100
7FFC
0100
0100
0100
0100
0100
ENDCHAR
STARTCHAR 00A6
ENCODING 166
SWIDTH 210 0
DWIDTH 7 0
BBX 1 29 3 -5
BITMAP
80
80
80
80
80
80
80
80
80
80
80
00
00
00
00
00
00
00
80
80
80
80
80
80
80
80
80
80
80
ENDCHAR
STARTCHAR 00A7
ENCODING 167
SWIDTH 540 0
DWIDTH 18 0
BBX 13 29 3 -5
BITMAP
0380
1860
2010
4000
4000
4000
4000
2000
1000
1E00
6180
8060
8010
8008
8008
8008
8008
4008
3010
0E20
01C0
0060
0020
0010
0010
0010
0020
4020
3FC0
ENDCHAR
STARTCHAR 00A8
ENCODING 168
SWIDTH 600 0
DWIDTH 20 0
BBX 8 1 6 21
BITMAP
C3
ENDCHAR
STARTCHAR 00A9
ENCODING 169
SWIDTH 690 0
DWIDTH 23 0
BBX 22 24 1 0
BITMAP
007800
038700
0C0080
100040
200020
400010
40F810
410408
820208
820008
820008
840008
840004
840008
820008
820008
820208
410408
40F810
200010
200020
100040
0C0080
03FF00
ENDCHAR
STARTCHAR 00AA
ENCODING 170
SWIDTH 330 0
DWIDTH 11 0
BBX 10 11 1 12
BITMAP
3E00
C100
0100
0100
0100
3F00
C100
8100
8100
8300
7CC0
ENDCHAR
STARTCHAR 00AB
ENCODING 171
SWIDTH 450 0
DWIDTH 15 0
BBX 13 12 1 4
BITMAP
0208
0410
0820
1040
2080
4100
8200
4100
2080
1040
0820
0618
ENDCHAR
STARTCHAR 00AC
ENCODING 172
SWIDTH 600 0
DWIDTH 20 0
BBX 15 7 2 3
BITMAP
FFFE
0002
0002
0002
0002
0002
0002
ENDCHAR
STARTCHAR 00AD
ENCODING 173
SWIDTH 390 0
DWIDTH 13 0
BBX 7 1 3 10
BITMAP
FE
ENDCHAR
STARTCHAR 00AE
ENCODING 174
SWIDTH 450 0
DWIDTH 15 0
BBX 13 14 1 10
BITMAP
0700
18E0
2010
4010
8F88
8888
8888
8788
8908
8888
4008
4010
2020
1FC0
ENDCHAR
STARTCHAR 00AF
ENCODING 175
SWIDTH 600 0
DWIDTH 20 0
BBX 8 1 6 22
BITMAP
FF
ENDCHAR
STARTCHAR 00B0
ENCODING 176
SWIDTH 450 0
DWIDTH 15 0
BBX 11 12 2 12
BITMAP
0E00
3180
4040
4020
8020
8020
8020
8020
4020
4040
3080
0B00
ENDCHAR
STARTCHAR 00B1
ENCODING 177
SWIDTH 600 0
DWIDTH 20 0
BBX 16 20 2 0
BITMAP
0100
0100
0100
0100
0100
0100
0100
0100
7FFE
0100
0100
0100
0100
0100
0100
0100
0000
0000
0000
FFFF
ENDCHAR
STARTCHAR 00B2
ENCODING 178
SWIDTH 330 0
DWIDTH 11 0
BBX 9 12 1 11
BITMAP
3F00
4100
8080
0080
0100
0100
0200
0400
0800
1000
6000
FF80
ENDCHAR
STARTCHAR 00B3
ENCODING 179
SWIDTH 330 0
DWIDTH 11 0
BBX 9 12 1 11
BITMAP
3E00
4100
0100
0100
0100
1E00
0300
0100
0080
0100
8100
7E00
ENDCHAR
STARTCHAR 00B4
ENCODING 180
SWIDTH 600 0
DWIDTH 20 0
BBX 4 5 9 20
BITMAP
10
20
20
40
80
ENDCHAR
STARTCHAR 00B5
ENCODING 181
SWIDTH 540 0
DWIDTH 18 0
BBX 12 24 3 -7
BITMAP
8000
8010
8010
8010
8010
8010
8010
8010
8010
8010
8010
8010
8010
C010
C010
A030
98D0
8700
8000
8000
8000
8000
8000
8000
ENDCHAR
STARTCHAR 00B6
ENCODING 182
SWIDTH 570 0
DWIDTH 19 0
BBX 14 28 2 -5
BITMAP
1FFC
7E10
7E10
FE10
FE10
FE10
FE10
FE10
FE10
7E10
3E10
0E10
0210
0210
0210
0210
0210
0210
0210
0210
0210
0210
0210
0210
0210
0210
0210
0210
ENDCHAR
STARTCHAR 00B7
ENCODING 183
SWIDTH 270 0
DWIDTH 9 0
BBX 2 2 4 9
BITMAP
C0
C0
ENDCHAR
STARTCHAR 00B8
ENCODING 184
SWIDTH 600 0
DWIDTH 20 0
BBX 5 7 8 -7
BITMAP
40
40
70
08
08
08
F0
ENDCHAR
STARTCHAR 00B9
ENCODING 185
SWIDTH 360 0
DWIDTH 12 0
BBX 9 12 2 11
BITMAP
1800
2800
C800
0800
0800
0800
0800
0800
0800
0800
0800
FF80
ENDCHAR
STARTCHAR 00BA
ENCODING 186
SWIDTH 360 0
DWIDTH 12 0
BBX 9 11 2 12
BITMAP
7E00
8100
8100
8100
8080
8080
8080
8100
8100
4200
3C00
ENDCHAR
STARTCHAR 00BB
ENCODING 187
SWIDTH 450 0
DWIDTH 15 0
BBX 13 12 2 4
BITMAP
8200
4100
2080
1040
0820
0410
0618
0C30
1040
2080
4100
8200
ENDCHAR
STARTCHAR 00BC
ENCODING 188
SWIDTH 840 0
DWIDTH 28 0
BBX 25 23 2 0
BITMAP
18000800
28001000
C8002000
08002000
08004000
08004000
08008000
08010000
08010000
08020000
08040000
FF840600
00080600
00100A00
00101200
00202200
00204200
00404200
00808200
0081FF80
01000200
02000200
02000200
ENDCHAR
STARTCHAR 00BD
ENCODING 189
SWIDTH 870 0
DWIDTH 29 0
BBX 26 23 2 0
BITMAP
18000800
28001000
C8002000
08002000
08004000
08004000
08008000
08010000
08010000
08020000
08040000
FF841F80
00082080
00104040
00100040
00200080
00200080
00400100
00800200
00800400
01000800
02003000
02007FC0
ENDCHAR
STARTCHAR 00BE
ENCODING 190
SWIDTH 810 0
DWIDTH 27 0
BBX 25 23 1 0
BITMAP
3E000800
41001000
01002000
01002000
01004000
1E008000
03008000
01010000
00820000
01020000
81040000
72040600
0C080A00
00100A00
00101200
00202200
00404200
00408200
00808200
0101FF80
01000200
02000200
04000200
ENDCHAR
STARTCHAR 00BF
ENCODING 191
SWIDTH 450 0
DWIDTH 15 0
BBX 13 24 1 -7
BITMAP
0300
0300
0000
0000
0000
0000
0100
0100
0100
0100
0100
0700
1800
2000
4000
8000
8000
8000
8000
8008
8010
4010
2060
1F80
ENDCHAR
STARTCHAR 00C0
ENCODING 192
SWIDTH 600 0
DWIDTH 20 0
BBX 18 31 1 0
BITMAP
020000
020000
010000
008000
004000
000000
000000
000000
00C000
00C000
012000
012000
012000
021000
021000
041000
040800
040800
080800
080400
080400
100400
100200
1FFE00
200100
200100
400100
400080
400080
800080
800040
ENDCHAR
STARTCHAR 00C1
ENCODING 193
SWIDTH 600 0
DWIDTH 20 0
BBX 18 31 1 0
BITMAP
001000
002000
002000
004000
008000
000000
000000
000000
00C000
00C000
012000
012000
012000
021000
021000
041000
040800
040800
080800
080400
080400
100400
100200
1FFE00
200100
200100
400100
400080
400080
800080
800040
ENDCHAR
STARTCHAR 00C2
ENCODING 194
SWIDTH 600 0
DWIDTH 20 0
BBX 18 31 1 0
BITMAP
00C000
012000
021000
040800
080800
000000
000000
000000
00C000
00C000
012000
012000
012000
021000
021000
041000
040800
040800
080800
080400
080400
100400
100200
1FFE00
200100
200100
400100
400080
400080
800080
800040
ENDCHAR
STARTCHAR 00C3
ENCODING 195
SWIDTH 600 0
DWIDTH 20 0
BBX 18 29 1 0
BITMAP
0F8400
007800
000000
000000
000000
000000
00C000
00C000
012000
012000
012000
021000
021000
041000
040800
040800
080800
080400
080400
100400
100200
1FFE00
200100
200100
400100
400080
400080
800080
800040
ENDCHAR
STARTCHAR 00C4
ENCODING 196
SWIDTH 600 0
DWIDTH 20 0
BBX 18 29 1 0
BITMAP
061800
061800
000000
000000
000000
000000
00C000
00C000
012000
012000
012000
021000
021000
041000
040800
040800
080800
080400
080400
100400
100200
1FFE00
200100
200100
400100
400080
400080
800080
800040
ENDCHAR
STARTCHAR 00C5
ENCODING 197
SWIDTH 600 0
DWIDTH 20 0
BBX 18 32 1 0
BITMAP
00C000
032000
021000
021000
021000
012000
00C000
000000
000000
00C000
00C000
012000
012000
012000
021000
021000
041000
040800
040800
080800
080400
080400
100400
100200
1FFE00
200100
200100
400100
400080
400080
800080
800040
ENDCHAR
STARTCHAR 00C6
ENCODING 198
SWIDTH 840 0
DWIDTH 28 0
BBX 26 23 0 0
BITMAP
000FFFC0
000C0000
00140000
00140000
00240000
00440000
00440000
00840000
00840000
01040000
01040000
0203FFC0
02040000
04040000
04040000
0BFC0000
10040000
10040000
20040000
20040000
40040000
40040000
8003FFC0
ENDCHAR
STARTCHAR 00C7
ENCODING 199
SWIDTH 600 0
DWIDTH 20 0
BBX 16 31 2 -7
BITMAP
01E0
0618
1804
2002
2001
4000
4000
4000
8000
8000
8000
8000
8000
8000
8000
8000
8000
4000
4000
4001
2001
1002
0804
0618
01E0
0080
00E0
0010
0010
0010
01E0
ENDCHAR
STARTCHAR 00C8
ENCODING 200
SWIDTH 540 0
DWIDTH 18 0
BBX 12 31 4 0
BITMAP
1000
1000
0800
0400
0200
0000
0000
0000
FFF0
8000
8000
8000
8000
8000
8000
8000
8000
8000
8000
FFF0
8000
8000
8000
8000
8000
8000
8000
8000
8000
8000
FFF0
ENDCHAR
STARTCHAR 00C9
ENCODING 201
SWIDTH 540 0
DWIDTH 18 0
BBX 12 31 4 0
BITMAP
0080
0100
0100
0200
0400
0000
0000
0000
FFF0
8000
8000
8000
8000
8000
8000
8000
8000
8000
8000
FFF0
8000
8000
8000
8000
8000
8000
8000
8000
8000
8000
FFF0
ENDCHAR
STARTCHAR 00CA
ENCODING 202
SWIDTH 540 0
DWIDTH 18 0
BBX 12 31 4 0
BITMAP
0600
0900
1080
2040
4040
0000
0000
0000
FFF0
8000
8000
8000
8000
8000
8000
8000
8000
8000
8000
FFF0
8000
8000
8000
8000
8000
8000
8000
8000
8000
8000
FFF0
ENDCHAR
STARTCHAR 00CB
ENCODING 203
SWIDTH 540 0
DWIDTH 18 0
BBX 12 29 4 0
BITMAP
30C0
30C0
0000
0000
0000
0000
FFF0
8000
8000
8000
8000
8000
8000
8000
8000
8000
8000
FFF0
8000
8000
8000
8000
8000
8000
8000
8000
8000
8000
FFF0
ENDCHAR
STARTCHAR 00CC
ENCODING 204
SWIDTH 360 0
DWIDTH 12 0
BBX 8 31 2 0
BITMAP
40
20
20
10
08
00
00
00
7F
08
08
08
08
08
08
08
08
08
08
08
08
08
08
08
08
08
08
08
08
08
FF
ENDCHAR
STARTCHAR 00CD
ENCODING 205
SWIDTH 360 0
DWIDTH 12 0
BBX 8 31 2 0
BITMAP
02
02
04
08
10
00
00
00
7F
08
08
08
08
08
08
08
08
08
08
08
08
08
08
08
08
08
08
08
08
08
FF
ENDCHAR
STARTCHAR 00CE
ENCODING 206
SWIDTH 360 0
DWIDTH 12 0
BBX 9 31 2 0
BITMAP
0800
1400
2200
4100
8080
0000
0000
0000
7F00
0800
0800
0800
0800
0800
0800
0800
0800
0800
0800
0800
0800
0800
0800
0800
0800
0800
0800
0800
0800
0800
FF00
ENDCHAR
STARTCHAR 00CF
ENCODING 207
SWIDTH 360 0
DWIDTH 12 0
BBX 8 29 2 0
BITMAP
C1
41
00
00
00
00
7F
08
08
08
08
08
08
08
08
08
08
08
08
08
08
08
08
08
08
08
08
08
FF
ENDCHAR
STARTCHAR 00D0
ENCODING 208
SWIDTH 660 0
DWIDTH 22 0
BBX 19 23 1 0
BITMAP
3FFC00
200200
200100
200080
200040
200040
200040
200040
200020
200020
FF8020
200020
200020
200020
200040
200040
200040
200040
200080
200080
200100
200200
1FFC00
ENDCHAR
STARTCHAR 00D1
ENCODING 209
SWIDTH 690 0
DWIDTH 23 0
BBX 15 29 4 0
BITMAP
1F00
00F0
0000
0000
0000
0000
8002
C002
C002
A002
9002
9002
8802
8402
8402
8202
8202
8102
8082
8082
8042
8022
8022
8012
8012
800A
8006
8006
8002
ENDCHAR
STARTCHAR 00D2
ENCODING 210
SWIDTH 660 0
DWIDTH 22 0
BBX 18 31 2 0
BITMAP
020000
010000
008000
008000
004000
000000
000000
01E000
061C00
180200
200100
200080
400080
400040
400040
800040
800040
800040
800040
800040
800040
800040
800040
800040
400040
400080
400080
200080
100100
080200
07F800
ENDCHAR
STARTCHAR 00D3
ENCODING 211
SWIDTH 660 0
DWIDTH 22 0
BBX 18 31 2 0
BITMAP
001000
001000
002000
004000
008000
000000
000000
01E000
061C00
180200
200100
200080
400080
400040
400040
800040
800040
800040
800040
800040
800040
800040
800040
800040
400040
400080
400080
200080
100100
080200
07F800
ENDCHAR
STARTCHAR 00D4
ENCODING 212
SWIDTH 660 0
DWIDTH 22 0
BBX 18 31 2 0
BITMAP
004000
00A000
011000
020800
040400
000000
000000
01E000
061C00
180200
200100
200080
400080
400040
400040
800040
800040
800040
800040
800040
800040
800040
800040
800040
400040
400080
400080
200080
100100
080200
07F800
ENDCHAR
STARTCHAR 00D5
ENCODING 213
SWIDTH 660 0
DWIDTH 22 0
BBX 18 29 2 0
BITMAP
078000
007C00
000000
000000
000000
01E000
061C00
180200
200100
200080
400080
400040
400040
800040
800040
800040
800040
800040
800040
800040
800040
800040
400040
400080
400080
200080
100100
080200
07F800
ENDCHAR
STARTCHAR 00D6
ENCODING 214
SWIDTH 660 0
DWIDTH 22 0
BBX 18 29 2 0
BITMAP
020800
020800
000000
000000
000000
01E000
061C00
180200
200100
200080
400080
400040
400040
800040
800040
800040
800040
800040
800040
800040
800040
800040
400040
400080
400080
200080
100100
080200
07F800
ENDCHAR
STARTCHAR 00D7
ENCODING 215
SWIDTH 600 0
DWIDTH 20 0
BBX 12 12 4 5
BITMAP
8010
4020
2040
1080
0900
0600
0600
0900
1080
2040
4020
8010
ENDCHAR
STARTCHAR 00D8
ENCODING 216
SWIDTH 660 0
DWIDTH 22 0
BBX 18 25 2 -1
BITMAP
01E040
061C80
180280
200100
200280
400280
400440
400840
801040
801040
802040
804040
804040
808040
810040
810040
820040
440040
480080
480080
300080
300100
280200
461800
81E000
ENDCHAR
STARTCHAR 00D9
ENCODING 217
SWIDTH 630 0
DWIDTH 21 0
BBX 15 31 3 0
BITMAP
0400
0400
0200
0100
0100
0000
0000
0000
8002
8002
8002
8002
8002
8002
8002
8002
8002
8002
8002
8002
8002
8002
8002
8002
8002
8002
8002
4002
4004
200C
1FF0
ENDCHAR
STARTCHAR 00DA
ENCODING 218
SWIDTH 630 0
DWIDTH 21 0
BBX 15 31 3 0
BITMAP
0020
0040
0080
0080
0100
0000
0000
0000
8002
8002
8002
8002
8002
8002
8002
8002
8002
8002
8002
8002
8002
8002
8002
8002
8002
8002
8002
4002
4004
200C
1FF0
ENDCHAR
STARTCHAR 00DB
ENCODING 219
SWIDTH 630 0
DWIDTH 21 0
BBX 15 31 3 0
BITMAP
0100
0280
0440
0820
1010
0000
0000
0000
8002
8002
8002
8002
8002
8002
8002
8002
8002
8002
8002
8002
8002
8002
8002
8002
8002
8002
8002
4002
4004
200C
1FF0
ENDCHAR
STARTCHAR 00DC
ENCODING 220
SWIDTH 630 0
DWIDTH 21 0
BBX 15 29 3 0
BITMAP
0830
0820
0000
0000
0000
0000
8002
8002
8002
8002
8002
8002
8002
8002
8002
8002
8002
8002
8002
8002
8002
8002
8002
8002
8002
4002
4004
200C
1FF0
ENDCHAR
STARTCHAR 00DD
ENCODING 221
SWIDTH 540 0
DWIDTH 18 0
BBX 16 31 1 0
BITMAP
0020
0040
0040
0080
0100
0000
0000
0000
8001
4002
4002
2004
2004
1008
0810
0810
0420
0420
0240
0140
0180
0100
0100
0100
0100
0100
0100
0100
0100
0100
0100
ENDCHAR
STARTCHAR 00DE
ENCODING 222
SWIDTH 570 0
DWIDTH 19 0
BBX 14 23 4 0
BITMAP
8000
8000
8000
8000
8000
FFE0
8018
8008
8004
8004
8004
8004
8004
8004
8004
8008
8030
FFC0
8000
8000
8000
8000
8000
ENDCHAR
STARTCHAR 00DF
ENCODING 223
SWIDTH 630 0
DWIDTH 21 0
BBX 19 25 1 0
BITMAP
01F800
020400
040200
080100
080100
100100
100100
100100
F00780
103800
104000
104000
104000
104000
104000
103000
100E00
100180
100040
100020
100020
100020
110020
108040
107F80
ENDCHAR
STARTCHAR 00E0
ENCODING 224
SWIDTH 510 0
DWIDTH 17 0
BBX 15 25 2 0
BITMAP
1000
0800
0400
0400
0200
0000
0000
0000
1FC0
2020
4020
0010
0010
0010
0010
0010
1FF0
6010
8010
8010
8010
8010
8030
4050
3F9E
ENDCHAR
STARTCHAR 00E1
ENCODING 225
SWIDTH 510 0
DWIDTH 17 0
BBX 15 25 2 0
BITMAP
0080
0080
0100
0200
0400
0000
0000
0000
1FC0
2020
4020
0010
0010
0010
0010
0010
1FF0
6010
8010
8010
8010
8010
8030
4050
3F9E
ENDCHAR
STARTCHAR 00E2
ENCODING 226
SWIDTH 510 0
DWIDTH 17 0
BBX 15 25 2 0
BITMAP
0200
0500
0880
1040
2020
0000
0000
0000
1FC0
2020
4020
0010
0010
0010
0010
0010
1FF0
6010
8010
8010
8010
8010
8030
4050
3F9E
ENDCHAR
STARTCHAR 00E3
ENCODING 227
SWIDTH 510 0
DWIDTH 17 0
BBX 15 23 2 0
BITMAP
3C00
03E0
0000
0000
0000
0000
1FC0
2020
4020
0010
0010
0010
0010
0010
1FF0
6010
8010
8010
8010
8010
8030
4050
3F9E
ENDCHAR
STARTCHAR 00E4
ENCODING 228
SWIDTH 510 0
DWIDTH 17 0
BBX 15 23 2 0
BITMAP
1040
1040
0000
0000
0000
0000
1FC0
2020
4020
0010
0010
0010
0010
0010
1FF0
6010
8010
8010
8010
8010
8030
4050
3F9E
ENDCHAR
STARTCHAR 00E5
ENCODING 229
SWIDTH 510 0
DWIDTH 17 0
BBX 15 26 2 0
BITMAP
0700
0880
1080
1080
1080
0980
0600
0000
0000
1FC0
2020
4020
0010
0010
0010
0010
0010
1FF0
6010
8010
8010
8010
8010
8030
4050
3F9E
ENDCHAR
STARTCHAR 00E6
ENCODING 230
SWIDTH 840 0
DWIDTH 28 0
BBX 25 17 2 0
BITMAP
1F81F800
60460400
40280200
00280100
00100100
00100100
00100080
00100080
3FFFFF00
40100000
80100000
80100000
80100000
80280100
80280100
40440200
3F83FC00
ENDCHAR
STARTCHAR 00E7
ENCODING 231
SWIDTH 480 0
DWIDTH 16 0
BBX 13 24 2 -7
BITMAP
0FC0
3020
4010
4000
8000
8000
8000
8000
8000
8000
8000
8000
8000
4000
4008
2010
1860
0780
0200
0380
0040
0040
0040
0780
ENDCHAR
STARTCHAR 00E8
ENCODING 232
SWIDTH 510 0
DWIDTH 17 0
BBX 14 25 2 0
BITMAP
0800
0800
0400
0200
0100
0000
0000
0000
0FC0
3020
4010
4008
8008
8008
8004
8004
FFF8
8000
8000
8000
8000
4008
4008
2010
1FE0
ENDCHAR
STARTCHAR 00E9
ENCODING 233
SWIDTH 510 0
DWIDTH 17 0
BBX 14 25 2 0
BITMAP
0040
0080
0080
0100
0200
0000
0000
0000
0FC0
3020
4010
4008
8008
8008
8004
8004
FFF8
8000
8000
8000
8000
4008
4008
2010
1FE0
ENDCHAR
STARTCHAR 00EA
ENCODING 234
SWIDTH 510 0
DWIDTH 17 0
BBX 14 25 2 0
BITMAP
0300
0480
0840
1020
2020
0000
0000
0000
0FC0
3020
4010
4008
8008
8008
8004
8004
FFF8
8000
8000
8000
8000
4008
4008
2010
1FE0
ENDCHAR
STARTCHAR 00EB
ENCODING 235
SWIDTH 510 0
DWIDTH 17 0
BBX 14 23 2 0
BITMAP
1860
0000
0000
0000
0000
0000
0FC0
3020
4010
4008
8008
8008
8004
8004
FFF8
8000
8000
8000
8000
4008
4008
2010
1FE0
ENDCHAR
STARTCHAR 00EC
ENCODING 236
SWIDTH 210 0
DWIDTH 7 0
BBX 4 25 1 0
BITMAP
80
80
40
20
30
00
00
00
20
20
20
20
20
20
20
20
20
20
20
20
20
20
20
20
20
ENDCHAR
STARTCHAR 00ED
ENCODING 237
SWIDTH 210 0
DWIDTH 7 0
BBX 4 25 3 0
BITMAP
10
20
20
40
80
00
00
00
80
80
80
80
80
80
80
80
80
80
80
80
80
80
80
80
80
ENDCHAR
STARTCHAR 00EE
ENCODING 238
SWIDTH 210 0
DWIDTH 7 0
BBX 9 25 -1 0
BITMAP
0C00
1400
2200
4100
8080
0000
0000
0000
0800
0800
0800
0800
0800
0800
0800
0800
0800
0800
0800
0800
0800
0800
0800
0800
0800
ENDCHAR
STARTCHAR 00EF
ENCODING 239
SWIDTH 210 0
DWIDTH 7 0
BBX 8 23 0 0
BITMAP
C3
00
00
00
00
00
10
10
10
10
10
10
10
10
10
10
10
10
10
10
10
10
10
ENDCHAR
STARTCHAR 00F0
ENCODING 240
SWIDTH 540 0
DWIDTH 18 0
BBX 14 25 2 0
BITMAP
1820
0440
0280
0300
0480
1840
0020
0020
0790
1870
2018
4008
8008
8004
8004
8004
8004
8004
8004
8004
8008
4008
4008
2010
1FE0
ENDCHAR
STARTCHAR 00F1
ENCODING 241
SWIDTH 540 0
DWIDTH 18 0
BBX 12 23 3 0
BITMAP
3E00
01E0
0000
0000
0000
0000
9FC0
A020
C010
8010
8010
8010
8010
8010
8010
8010
8010
8010
8010
8010
8010
8010
8010
ENDCHAR
STARTCHAR 00F2
ENCODING 242
SWIDTH 540 0
DWIDTH 18 0
BBX 14 25 2 0
BITMAP
0800
0C00
0400
0200
0100
0000
0000
0000
0FC0
3030
4008
4008
8008
8004
8004
8004
8004
8004
8004
8004
8004
4008
4008
2010
1FE0
ENDCHAR
STARTCHAR 00F3
ENCODING 243
SWIDTH 540 0
DWIDTH 18 0
BBX 14 25 2 0
BITMAP
0040
0080
0080
0100
0200
0000
0000
0000
0FC0
3030
4008
4008
8008
8004
8004
8004
8004
8004
8004
8004
8004
4008
4008
2010
1FE0
ENDCHAR
STARTCHAR 00F4
ENCODING 244
SWIDTH 540 0
DWIDTH 18 0
BBX 14 25 2 0
BITMAP
0300
0480
0840
1020
2010
0000
0000
0000
0FC0
3030
4008
4008
8008
8004
8004
8004
8004
8004
8004
8004
8004
4008
4008
2010
1FE0
ENDCHAR
STARTCHAR 00F5
ENCODING 245
SWIDTH 540 0
DWIDTH 18 0
BBX 14 23 2 0
BITMAP
3E10
01E0
0000
0000
0000
0000
0FC0
3030
4008
4008
8008
8004
8004
8004
8004
8004
8004
8004
8004
4008
4008
2010
1FE0
ENDCHAR
STARTCHAR 00F6
ENCODING 246
SWIDTH 540 0
DWIDTH 18 0
BBX 14 23 2 0
BITMAP
1860
0020
0000
0000
0000
0000
0FC0
3030
4008
4008
8008
8004
8004
8004
8004
8004
8004
8004
8004
4008
4008
2010
1FE0
ENDCHAR
STARTCHAR 00F7
ENCODING 247
SWIDTH 600 0
DWIDTH 20 0
BBX 16 15 2 3
BITMAP
0180
0180
0000
0000
0000
0000
0000
FFFF
0000
0000
0000
0000
0000
0180
0180
ENDCHAR
STARTCHAR 00F8
ENCODING 248
SWIDTH 540 0
DWIDTH 18 0
BBX 16 19 1 -1
BITMAP
0001
07E2
181C
200C
2014
4012
4022
4042
4082
4102
4102
4202
4402
4802
3004
3004
3008
4C30
83C0
ENDCHAR
STARTCHAR 00F9
ENCODING 249
SWIDTH 540 0
DWIDTH 18 0
BBX 12 25 3 0
BITMAP
1000
0800
0800
0400
0200
0000
0000
0000
8010
8010
8010
8010
8010
8010
8010
8010
8010
8010
8010
8010
8010
8010
4010
4030
3FD0
ENDCHAR
STARTCHAR 00FA
ENCODING 250
SWIDTH 540 0
DWIDTH 18 0
BBX 12 25 3 0
BITMAP
0080
0080
0100
0200
0400
0000
0000
0000
8010
8010
8010
8010
8010
8010
8010
8010
8010
8010
8010
8010
8010
8010
4010
4030
3FD0
ENDCHAR
STARTCHAR 00FB
ENCODING 251
SWIDTH 540 0
DWIDTH 18 0
BBX 12 25 3 0
BITMAP
0600
0900
1080
2040
4020
0000
0000
0000
8010
8010
8010
8010
8010
8010
8010
8010
8010
8010
8010
8010
8010
8010
4010
4030
3FD0
ENDCHAR
STARTCHAR 00FC
ENCODING 252
SWIDTH 540 0
DWIDTH 18 0
BBX 12 23 3 0
BITMAP
30C0
0000
0000
0000
0000
0000
8010
8010
8010
8010
8010
8010
8010
8010
8010
8010
8010
8010
8010
8010
4010
4030
3FD0
ENDCHAR
STARTCHAR 00FD
ENCODING 253
SWIDTH 450 0
DWIDTH 15 0
BBX 13 32 1 -7
BITMAP
0040
0080
0100
0100
0200
0000
0000
0000
8008
8008
8010
4010
4010
2020
2020
2020
1040
1040
1080
0880
0880
0500
0500
0500
0200
0200
0400
0400
0400
0800
0800
7000
ENDCHAR
STARTCHAR 00FE
ENCODING 254
SWIDTH 540 0
DWIDTH 18 0
BBX 14 32 3 -7
BITMAP
8000
8000
8000
8000
8000
8000
8000
8000
8FC0
B030
C010
8008
8008
8004
8004
8004
8004
8004
8004
8004
8008
8008
C010
A010
98E0
8700
8000
8000
8000
8000
8000
8000
ENDCHAR
STARTCHAR 00FF
ENCODING 255
SWIDTH 450 0
DWIDTH 15 0
BBX 13 30 1 -7
BITMAP
1040
1040
0000
0000
0000
0000
8008
8008
8010
4010
4010
2020
2020
2020
1040
1040
1080
0880
0880
0500
0500
0500
0200
0200
0400
0400
0400
0800
0800
7000
ENDCHAR
STARTCHAR 0100
ENCODING 256
SWIDTH 600 0
DWIDTH 20 0
BBX 18 29 1 0
BITMAP
07F800
000000
000000
000000
000000
000000
00C000
00C000
012000
012000
012000
021000
021000
041000
040800
040800
080800
080400
080400
100400
100200
1FFE00
200100
200100
400100
400080
400080
800080
800040
ENDCHAR
STARTCHAR 0101
ENCODING 257
SWIDTH 510 0
DWIDTH 17 0
BBX 15 23 2 0
BITMAP
3FE0
0000
0000
0000
0000
0000
1FC0
2020
4020
0010
0010
0010
0010
0010
1FF0
6010
8010
8010
8010
8010
8030
4050
3F9E
ENDCHAR
STARTCHAR 0102
ENCODING 258
SWIDTH 600 0
DWIDTH 20 0
BBX 18 30 1 0
BITMAP
040800
040800
021000
01E000
000000
000000
000000
00C000
00C000
012000
012000
012000
021000
021000
041000
040800
040800
080800
080400
080400
100400
100200
1FFE00
200100
200100
400100
400080
400080
800080
800040
ENDCHAR
STARTCHAR 0103
ENCODING 259
SWIDTH 510 0
DWIDTH 17 0
BBX 15 24 2 0
BITMAP
2040
1040
1080
0F00
0000
0000
0000
1FC0
2020
4020
0010
0010
0010
0010
0010
1FF0
6010
8010
8010
8010
8010
8030
4050
3F9E
ENDCHAR
STARTCHAR 0104
ENCODING 260
SWIDTH 600 0
DWIDTH 20 0
BBX 19 30 1 -7
BITMAP
00C000
00C000
012000
012000
012000
021000
021000
041000
040800
040800
080800
080400
080400
100400
100200
1FFE00
200100
200100
400100
400080
400080
800080
800040
000080
000100
000200
000400
000400
000220
000180
ENDCHAR
STARTCHAR 0105
ENCODING 261
SWIDTH 510 0
DWIDTH 17 0
BBX 15 24 2 -7
BITMAP
1FC0
2020
4020
0010
0010
0010
0010
0010
1FF0
6010
8010
8010
8010
8010
8030
4050
319E
0E04
0008
0030
0020
0020
0022
001C
ENDCHAR
STARTCHAR 0106
ENCODING 262
SWIDTH 600 0
DWIDTH 20 0
BBX 16 31 2 0
BITMAP
0010
0020
0020
0040
0080
0000
0000
01E0
0618
1804
2002
2001
4000
4000
4000
8000
8000
8000
8000
8000
8000
8000
8000
8000
4000
4000
4001
2001
1002
0804
07F8
ENDCHAR
STARTCHAR 0107
ENCODING 263
SWIDTH 480 0
DWIDTH 16 0
BBX 13 25 2 0
BITMAP
0040
0080
0080
0100
0200
0000
0000
0000
0FC0
3020
4010
4000
8000
8000
8000
8000
8000
8000
8000
8000
8000
4000
4008
2010
1FE0
ENDCHAR
STARTCHAR 0108
ENCODING 264
SWIDTH 600 0
DWIDTH 20 0
BBX 16 31 2 0
BITMAP
00C0
0120
0210
0408
0808
0000
0000
01E0
0618
1804
2002
2001
4000
4000
4000
8000
8000
8000
8000
8000
8000
8000
8000
8000
4000
4000
4001
2001
1002
0804
07F8
ENDCHAR
STARTCHAR 0109
ENCODING 265
SWIDTH 480 0
DWIDTH 16 0
BBX 13 25 2 0
BITMAP
0300
0480
0840
1020
2010
0000
0000
0000
0FC0
3020
4010
4000
8000
8000
8000
8000
8000
8000
8000
8000
8000
4000
4008
2010
1FE0
ENDCHAR
STARTCHAR 010A
ENCODING 266
SWIDTH 600 0
DWIDTH 20 0
BBX 16 29 2 0
BITMAP
00C0
0080
0000
0000
0000
01E0
0618
1804
2002
2001
4000
4000
4000
8000
8000
8000
8000
8000
8000
8000
8000
8000
4000
4000
4001
2001
1002
0804
07F8
ENDCHAR
STARTCHAR 010B
ENCODING 267
SWIDTH 480 0
DWIDTH 16 0
BBX 13 23 2 0
BITMAP
0300
0000
0000
0000
0000
0000
0FC0
3020
4010
4000
8000
8000
8000
8000
8000
8000
8000
8000
8000
4000
4008
2010
1FE0
ENDCHAR
STARTCHAR 010C
ENCODING 268
SWIDTH 600 0
DWIDTH 20 0
BBX 16 31 2 0
BITMAP
0804
0408
0210
0120
00C0
0000
0000
01E0
0618
1804
2002
2001
4000
4000
4000
8000
8000
8000
8000
8000
8000
8000
8000
8000
4000
4000
4001
2001
1002
0804
07F8
ENDCHAR
STARTCHAR 010D
ENCODING 269
SWIDTH 480 0
DWIDTH 16 0
BBX 13 25 2 0
BITMAP
2010
1020
0840
0480
0300
0000
0000
0000
0FC0
3020
4010
4000
8000
8000
8000
8000
8000
8000
8000
8000
8000
4000
4008
2010
1FE0
ENDCHAR
STARTCHAR 010E
ENCODING 270
SWIDTH 630 0
DWIDTH 21 0
BBX 16 31 4 0
BITMAP
4020
2040
1080
0900
0600
0000
0000
0000
FFE0
8010
8008
8004
8004
8002
8002
8002
8002
8001
8001
8001
8001
8001
8002
8002
8002
8002
8004
8004
8008
8030
FFC0
ENDCHAR
STARTCHAR 010F
ENCODING 271
SWIDTH 540 0
DWIDTH 18 0
BBX 18 25 2 0
BITMAP
000040
000880
000880
000880
000880
000880
000800
000800
0FC800
303800
401800
400800
800800
800800
800800
800800
800800
800800
800800
800800
800800
400800
401800
201800
1FE800
ENDCHAR
STARTCHAR 0110
ENCODING 272
SWIDTH 660 0
DWIDTH 22 0
BBX 19 23 1 0
BITMAP
3FFC00
200200
200100
200080
200040
200040
200040
200040
200020
200020
FF8020
200020
200020
200020
200040
200040
200040
200040
200080
200080
200100
200200
1FFC00
ENDCHAR
STARTCHAR 0111
ENCODING 273
SWIDTH 540 0
DWIDTH 18 0
BBX 16 24 2 1
BITMAP
0008
0008
01FF
0008
0008
0008
0008
0FC8
3038
4018
4008
8008
8008
8008
8008
8008
8008
8008
8008
8008
4008
4018
2018
1FE8
ENDCHAR
STARTCHAR 0112
ENCODING 274
SWIDTH 540 0
DWIDTH 18 0
BBX 12 29 4 0
BITMAP
3FC0
0000
0000
0000
0000
0000
FFF0
8000
8000
8000
8000
8000
8000
8000
8000
8000
8000
FFF0
8000
8000
8000
8000
8000
8000
8000
8000
8000
8000
FFF0
ENDCHAR
STARTCHAR 0113
ENCODING 275
SWIDTH 510 0
DWIDTH 17 0
BBX 14 23 2 0
BITMAP
1FE0
0000
0000
0000
0000
0000
0FC0
3020
4010
4008
8008
8008
8004
8004
FFF8
8000
8000
8000
8000
4008
4008
2010
1FE0
ENDCHAR
STARTCHAR 0114
ENCODING 276
SWIDTH 540 0
DWIDTH 18 0
BBX 12 30 4 0
BITMAP
2040
2040
1080
0F00
0000
0000
0000
FFF0
8000
8000
8000
8000
8000
8000
8000
8000
8000
8000
FFF0
8000
8000
8000
8000
8000
8000
8000
8000
8000
8000
FFF0
ENDCHAR
STARTCHAR 0115
ENCODING 277
SWIDTH 510 0
DWIDTH 17 0
BBX 14 24 2 0
BITMAP
1020
1020
0840
0780
0000
0000
0000
0FC0
3020
4010
4008
8008
8008
8004
8004
FFF8
8000
8000
8000
8000
4008
4008
2010
1FE0
ENDCHAR
STARTCHAR 0116
ENCODING 278
SWIDTH 540 0
DWIDTH 18 0
BBX 12 29 4 0
BITMAP
0600
0000
0000
0000
0000
0000
FFF0
8000
8000
8000
8000
8000
8000
8000
8000
8000
8000
FFF0
8000
8000
8000
8000
8000
8000
8000
8000
8000
8000
FFF0
ENDCHAR
STARTCHAR 0117
ENCODING 279
SWIDTH 510 0
DWIDTH 17 0
BBX 14 23 2 0
BITMAP
0300
0200
0000
0000
0000
0000
0FC0
3020
4010
4008
8008
8008
8004
8004
FFF8
8000
8000
8000
8000
4008
4008
2010
1FE0
ENDCHAR
STARTCHAR 0118
ENCODING 280
SWIDTH 540 0
DWIDTH 18 0
BBX 13 30 4 -7
BITMAP
FFF0
8000
8000
8000
8000
8000
8000
8000
8000
8000
8000
FFF0
8000
8000
8000
8000
8000
8000
8000
8000
8000
8000
FFF0
0010
0060
0080
0100
0100
0088
0060
ENDCHAR
STARTCHAR 0119
ENCODING 281
SWIDTH 510 0
DWIDTH 17 0
BBX 14 24 2 -7
BITMAP
0FC0
3020
4010
4008
8008
8008
8004
8004
FFF8
8000
8000
8000
8000
4008
4008
2010
1860
0780
0100
0200
0200
0200
0220
01C0
ENDCHAR
STARTCHAR 011A
ENCODING 282
SWIDTH 540 0
DWIDTH 18 0
BBX 12 31 4 0
BITMAP
4020
2040
1080
0900
0600
0000
0000
0000
FFF0
8000
8000
8000
8000
8000
8000
8000
8000
8000
8000
FFF0
8000
8000
8000
8000
8000
8000
8000
8000
8000
8000
FFF0
ENDCHAR
STARTCHAR 011B
ENCODING 283
SWIDTH 510 0
DWIDTH 17 0
BBX 14 25 2 0
BITMAP
2010
1020
0840
0480
0300
0000
0000
0000
0FC0
3020
4010
4008
8008
8008
8004
8004
FFF8
8000
8000
8000
8000
4008
4008
2010
1FE0
ENDCHAR
STARTCHAR 011C
ENCODING 284
SWIDTH 660 0
DWIDTH 22 0
BBX 18 31 2 0
BITMAP
004000
00A000
011000
020800
040400
000000
000000
01E000
061C00
180200
200100
200080
400000
400000
400000
800000
800000
800000
800000
800000
801FC0
800040
800040
800040
400040
400040
4000C0
2000C0
100140
080240
07FC40
ENDCHAR
STARTCHAR 011D
ENCODING 285
SWIDTH 510 0
DWIDTH 17 0
BBX 15 32 2 -7
BITMAP
0200
0500
0880
1040
2020
0000
0000
0000
0FFE
3020
4010
4010
4010
4008
4010
4010
2010
1020
0FC0
3000
4000
4000
4000
3FF0
600C
8004
8002
8002
8002
8004
4008
3FF0
ENDCHAR
STARTCHAR 011E
ENCODING 286
SWIDTH 660 0
DWIDTH 22 0
BBX 18 30 2 0
BITMAP
040800
020800
021000
01E000
000000
000000
01E000
061C00
180200
200100
200080
400000
400000
400000
800000
800000
800000
800000
800000
801FC0
800040
800040
800040
400040
400040
4000C0
2000C0
100140
080240
07FC40
ENDCHAR
STARTCHAR 011F
ENCODING 287
SWIDTH 510 0
DWIDTH 17 0
BBX 15 31 2 -7
BITMAP
2020
1040
0840
0780
0000
0000
0000
0FFE
3020
4010
4010
4010
4008
4010
4010
2010
1020
0FC0
3000
4000
4000
4000
3FF0
600C
8004
8002
8002
8002
8004
4008
3FF0
ENDCHAR
STARTCHAR 0120
ENCODING 288
SWIDTH 660 0
DWIDTH 22 0
BBX 18 29 2 0
BITMAP
004000
004000
000000
000000
000000
01E000
061C00
180200
200100
200080
400000
400000
400000
800000
800000
800000
800000
800000
801FC0
800040
800040
800040
400040
400040
4000C0
2000C0
100140
080240
07FC40
ENDCHAR
STARTCHAR 0121
ENCODING 289
SWIDTH 510 0
DWIDTH 17 0
BBX 15 30 2 -7
BITMAP
0300
0000
0000
0000
0000
0000
0FFE
3020
4010
4010
4010
4008
4010
4010
2010
1020
0FC0
3000
4000
4000
4000
3FF0
600C
8004
8002
8002
8002
8004
4008
3FF0
ENDCHAR
STARTCHAR 0122
ENCODING 290
SWIDTH 660 0
DWIDTH 22 0
BBX 18 31 2 -7
BITMAP
01E000
061C00
180200
200100
200080
400000
400000
400000
800000
800000
800000
800000
800000
801FC0
800040
800040
800040
400040
400040
4000C0
2000C0
100140
080240
061C40
01E000
000000
004000
004000
004000
004000
008000
ENDCHAR
STARTCHAR 0123
ENCODING 291
SWIDTH 510 0
DWIDTH 17 0
BBX 15 32 2 -7
BITMAP
0100
0200
0200
0200
0300
0000
0000
0000
0FFE
3020
4010
4010
4010
4008
4010
4010
2010
1020
0FC0
3000
4000
4000
4000
3FF0
600C
8004
8002
8002
8002
8004
4008
3FF0
ENDCHAR
STARTCHAR 0124
ENCODING 292
SWIDTH 690 0
DWIDTH 23 0
BBX 15 31 4 0
BITMAP
0100
0280
0440
0820
1010
0000
0000
0000
8002
8002
8002
8002
8002
8002
8002
8002
8002
8002
8002
FFFE
8002
8002
8002
8002
8002
8002
8002
8002
8002
8002
8002
ENDCHAR
STARTCHAR 0125
ENCODING 293
SWIDTH 540 0
DWIDTH 18 0
BBX 16 30 -1 0
BITMAP
0C00
1200
2100
4080
8000
0800
0800
0800
0800
0800
0800
0800
0800
09FC
0A02
0C01
0801
0801
0801
0801
0801
0801
0801
0801
0801
0801
0801
0801
0801
0801
ENDCHAR
STARTCHAR 0126
ENCODING 294
SWIDTH 690 0
DWIDTH 23 0
BBX 21 23 1 0
BITMAP
200020
200020
200020
200020
FFFFF8
200020
200020
200020
200020
200020
200020
1FFFE0
200020
200020
200020
200020
200020
200020
200020
200020
200020
200020
200020
ENDCHAR
STARTCHAR 0127
ENCODING 295
SWIDTH 540 0
DWIDTH 18 0
BBX 14 24 1 1
BITMAP
2000
2000
FF80
2000
2000
2000
2000
27F0
2808
1004
1004
2004
2004
2004
2004
2004
2004
2004
2004
2004
2004
2004
2004
2004
ENDCHAR
STARTCHAR 0128
ENCODING 296
SWIDTH 360 0
DWIDTH 12 0
BBX 9 29 2 0
BITMAP
F000
0F80
0000
0000
0000
0000
7F00
0800
0800
0800
0800
0800
0800
0800
0800
0800
0800
0800
0800
0800
0800
0800
0800
0800
0800
0800
0800
0800
FF00
ENDCHAR
STARTCHAR 0129
ENCODING 297
SWIDTH 210 0
DWIDTH 7 0
BBX 10 23 -1 0
BITMAP
F840
0780
0000
0000
0000
0000
0800
0800
0800
0800
0800
0800
0800
0800
0800
0800
0800
0800
0800
0800
0800
0800
0800
ENDCHAR
STARTCHAR 012A
ENCODING 298
SWIDTH 360 0
DWIDTH 12 0
BBX 9 29 2 0
BITMAP
FF80
0000
0000
0000
0000
0000
7F00
0800
0800
0800
0800
0800
0800
0800
0800
0800
0800
0800
0800
0800
0800
0800
0800
0800
0800
0800
0800
0800
FF00
ENDCHAR
STARTCHAR 012B
ENCODING 299
SWIDTH 210 0
DWIDTH 7 0
BBX 8 23 0 0
BITMAP
FF
00
00
00
00
00
10
10
10
10
10
10
10
10
10
10
10
10
10
10
10
10
10
ENDCHAR
STARTCHAR 012C
ENCODING 300
SWIDTH 360 0
DWIDTH 12 0
BBX 8 30 2 0
BITMAP
81
81
42
3C
00
00
00
7F
08
08
08
08
08
08
08
08
08
08
08
08
08
08
08
08
08
08
08
08
08
FF
ENDCHAR
STARTCHAR 012D
ENCODING 301
SWIDTH 210 0
DWIDTH 7 0
BBX 9 24 -1 0
BITMAP
8080
4100
2100
1E00
0000
0000
0000
0800
0800
0800
0800
0800
0800
0800
0800
0800
0800
0800
0800
0800
0800
0800
0800
0800
ENDCHAR
STARTCHAR 012E
ENCODING 302
SWIDTH 360 0
DWIDTH 12 0
BBX 8 30 2 -7
BITMAP
7F
08
08
08
08
08
08
08
08
08
08
08
08
08
08
08
08
08
08
08
08
08
FF
02
04
08
10
10
10
07
ENDCHAR
STARTCHAR 012F
ENCODING 303
SWIDTH 210 0
DWIDTH 7 0
BBX 4 31 1 -7
BITMAP
30
00
00
00
00
00
00
20
20
20
20
20
20
20
20
20
20
20
20
20
20
20
20
20
20
40
80
80
80
80
60
ENDCHAR
STARTCHAR 0130
ENCODING 304
SWIDTH 360 0
DWIDTH 12 0
BBX 8 29 2 0
BITMAP
18
08
00
00
00
00
7F
08
08
08
08
08
08
08
08
08
08
08
08
08
08
08
08
08
08
08
08
08
FF
ENDCHAR
STARTCHAR 0131
ENCODING 305
SWIDTH 210 0
DWIDTH 7 0
BBX 1 17 3 0
BITMAP
80
80
80
80
80
80
80
80
80
80
80
80
80
80
80
80
80
ENDCHAR
STARTCHAR 0132
ENCODING 306
SWIDTH 630 0
DWIDTH 21 0
BBX 15 23 3 0
BITMAP
80FE
8002
8002
8002
8002
8002
8002
8002
8002
8002
8002
8002
8002
0002
0002
0002
0002
0002
0004
8004
4004
2008
1FF0
ENDCHAR
STARTCHAR 0133
ENCODING 307
SWIDTH 450 0
DWIDTH 15 0
BBX 9 31 3 -7
BITMAP
C080
0080
0000
0000
0000
0000
0000
8080
8080
8080
8080
8080
8080
8080
8080
8080
8080
8080
8080
8080
8080
8080
8080
8080
0080
0080
0080
0080
0080
0080
0700
ENDCHAR
STARTCHAR 0134
ENCODING 308
SWIDTH 450 0
DWIDTH 15 0
BBX 11 31 1 0
BITMAP
0200
0500
0880
1040
2020
0000
0000
0000
1FE0
0020
0020
0020
0020
0020
0020
0020
0020
0020
0020
0020
0020
0020
0020
0020
0020
0020
0020
8020
8040
4040
3F80
ENDCHAR
STARTCHAR 0135
ENCODING 309
SWIDTH 210 0
DWIDTH 7 0
BBX 9 32 -1 -7
BITMAP
0C00
1400
2200
4100
8080
0000
0000
0000
0800
0800
0800
0800
0800
0800
0800
0800
0800
0800
0800
0800
0800
0800
0800
0800
0800
0800
0800
0800
0800
0800
0800
3800
ENDCHAR
STARTCHAR 0136
ENCODING 310
SWIDTH 570 0
DWIDTH 19 0
BBX 14 30 4 -7
BITMAP
8004
8008
8010
8020
8040
8080
8100
8200
8400
8800
9400
9200
A200
C100
8080
8080
8040
8020
8020
8010
8008
8008
8004
0000
0000
0200
0200
0200
0200
0400
ENDCHAR
STARTCHAR 0137
ENCODING 311
SWIDTH 480 0
DWIDTH 16 0
BBX 12 32 3 -7
BITMAP
8000
8000
8000
8000
8000
8000
8000
8000
8020
8040
8080
8100
8200
8400
8800
9800
A400
C400
8200
8100
8080
8040
8020
8020
8010
0000
0000
0600
0600
0200
0400
0400
ENDCHAR
STARTCHAR 0138
ENCODING 312
SWIDTH 480 0
DWIDTH 16 0
BBX 12 17 3 0
BITMAP
8010
8020
8040
8080
8100
8200
8400
8800
9800
A400
C200
8100
8080
8040
8020
8020
8010
ENDCHAR
STARTCHAR 0139
ENCODING 313
SWIDTH 450 0
DWIDTH 15 0
BBX 12 31 3 0
BITMAP
1000
2000
2000
4000
8000
0000
0000
0000
8000
8000
8000
8000
8000
8000
8000
8000
8000
8000
8000
8000
8000
8000
8000
8000
8000
8000
8000
8000
8000
8000
7FF0
ENDCHAR
STARTCHAR 013A
ENCODING 314
SWIDTH 240 0
DWIDTH 8 0
BBX 4 32 3 0
BITMAP
10
10
20
40
80
00
00
80
80
80
80
80
80
80
80
80
80
80
80
80
80
80
80
80
80
80
80
80
80
80
80
70
ENDCHAR
STARTCHAR 013B
ENCODING 315
SWIDTH 450 0
DWIDTH 15 0
BBX 11 30 4 -7
BITMAP
8000
8000
8000
8000
8000
8000
8000
8000
8000
8000
8000
8000
8000
8000
8000
8000
8000
8000
8000
8000
8000
8000
FFE0
0000
0000
0400
0600
0400
0400
0800
ENDCHAR
STARTCHAR 013C
ENCODING 316
SWIDTH 240 0
DWIDTH 8 0
BBX 4 32 3 -7
BITMAP
80
80
80
80
80
80
80
80
80
80
80
80
80
80
80
80
80
80
80
80
80
80
80
80
70
00
00
20
20
20
20
40
ENDCHAR
STARTCHAR 013D
ENCODING 317
SWIDTH 450 0
DWIDTH 15 0
BBX 11 25 4 0
BITMAP
0800
0800
8800
8800
8800
9000
8000
8000
8000
8000
8000
8000
8000
8000
8000
8000
8000
8000
8000
8000
8000
8000
8000
8000
FFE0
ENDCHAR
STARTCHAR 013E
ENCODING 318
SWIDTH 240 0
DWIDTH 8 0
BBX 6 25 3 0
BITMAP
84
84
88
88
88
88
80
80
80
80
80
80
80
80
80
80
80
80
80
80
80
80
80
80
70
ENDCHAR
STARTCHAR 013F
ENCODING 319
SWIDTH 450 0
DWIDTH 15 0
BBX 11 23 4 0
BITMAP
8000
8000
8000
8000
8000
8000
8000
8000
8000
8000
8000
8000
8180
8180
8000
8000
8000
8000
8000
8000
8000
8000
FFE0
ENDCHAR
STARTCHAR 0140
ENCODING 320
SWIDTH 270 0
DWIDTH 9 0
BBX 6 25 3 0
BITMAP
80
80
80
80
80
80
80
80
80
80
80
80
80
80
80
84
84
80
80
80
80
80
80
80
70
ENDCHAR
STARTCHAR 0141
ENCODING 321
SWIDTH 450 0
DWIDTH 15 0
BBX 15 23 0 0
BITMAP
1000
1000
1000
1000
1000
1000
1000
1000
1000
1000
1060
1380
1C00
F000
1000
1000
1000
1000
1000
1000
1000
1000
0FFE
ENDCHAR
STARTCHAR 0142
ENCODING 322
SWIDTH 240 0
DWIDTH 8 0
BBX 6 24 1 1
BITMAP
20
20
20
20
20
20
20
20
20
20
20
1C
E0
20
20
20
20
20
20
20
20
20
20
1C
ENDCHAR
STARTCHAR 0143
ENCODING 323
SWIDTH 690 0
DWIDTH 23 0
BBX 15 31 4 0
BITMAP
0020
0040
0080
0100
0100
0000
0000
0000
8002
C002
C002
A002
9002
9002
8802
8402
8402
8202
8202
8102
8082
8082
8042
8022
8022
8012
8012
800A
8006
8006
8002
ENDCHAR
STARTCHAR 0144
ENCODING 324
SWIDTH 540 0
DWIDTH 18 0
BBX 12 25 3 0
BITMAP
0040
0080
0100
0200
0200
0000
0000
0000
9FC0
A020
C010
8010
8010
8010
8010
8010
8010
8010
8010
8010
8010
8010
8010
8010
8010
ENDCHAR
STARTCHAR 0145
ENCODING 325
SWIDTH 690 0
DWIDTH 23 0
BBX 15 30 4 -7
BITMAP
8002
C002
C002
A002
9002
9002
8802
8402
8402
8202
8202
8102
8082
8082
8042
8022
8022
8012
8012
800A
8006
8006
8002
0000
0000
0100
0100
0100
0100
0200
ENDCHAR
STARTCHAR 0146
ENCODING 326
SWIDTH 540 0
DWIDTH 18 0
BBX 12 24 3 -7
BITMAP
9FC0
A020
C010
8010
8010
8010
8010
8010
8010
8010
8010
8010
8010
8010
8010
8010
8010
0000
0000
0200
0200
0200
0200
0400
ENDCHAR
STARTCHAR 0147
ENCODING 327
SWIDTH 690 0
DWIDTH 23 0
BBX 15 31 4 0
BITMAP
1010
0820
0440
0280
0100
0000
0000
0000
8002
C002
C002
A002
9002
9002
8802
8402
8402
8202
8202
8102
8082
8082
8042
8022
8022
8012
8012
800A
8006
8006
8002
ENDCHAR
STARTCHAR 0148
ENCODING 328
SWIDTH 540 0
DWIDTH 18 0
BBX 12 25 3 0
BITMAP
2020
1040
0880
0500
0200
0000
0000
0000
9FC0
A020
C010
8010
8010
8010
8010
8010
8010
8010
8010
8010
8010
8010
8010
8010
8010
ENDCHAR
STARTCHAR 0149
ENCODING 329
SWIDTH 750 0
DWIDTH 25 0
BBX 20 25 2 0
BITMAP
600000
600000
200000
200000
400000
400000
800000
000000
009FC0
00A020
00C020
008010
008010
008010
008010
008010
008010
008010
008010
008010
008010
008010
008010
008010
008010
ENDCHAR
STARTCHAR 014A
ENCODING 330
SWIDTH 690 0
DWIDTH 23 0
BBX 15 30 4 -7
BITMAP
8002
C002
C002
A002
9002
9002
8802
8402
8402
8202
8202
8102
8082
8082
8042
8022
8022
8012
8012
800A
8006
8006
8002
0002
0002
0002
0002
0002
0002
000E
ENDCHAR
STARTCHAR 014B
ENCODING 331
SWIDTH 540 0
DWIDTH 18 0
BBX 12 24 3 -7
BITMAP
9FC0
A020
C010
8010
8010
8010
8010
8010
8010
8010
8010
8010
8010
8010
8010
8010
8010
0010
0010
0010
0010
0010
0010
0070
ENDCHAR
STARTCHAR 014C
ENCODING 332
SWIDTH 660 0
DWIDTH 22 0
BBX 18 29 2 0
BITMAP
07FC00
000000
000000
000000
000000
01E000
061C00
180200
200100
200080
400080
400040
400040
800040
800040
800040
800040
800040
800040
800040
800040
800040
400040
400080
400080
200080
100100
080200
07F800
ENDCHAR
STARTCHAR 014D
ENCODING 333
SWIDTH 540 0
DWIDTH 18 0
BBX 14 23 2 0
BITMAP
1FE0
0000
0000
0000
0000
0000
0FC0
3030
4008
4008
8008
8004
8004
8004
8004
8004
8004
8004
8004
4008
4008
2010
1FE0
ENDCHAR
STARTCHAR 014E
ENCODING 334
SWIDTH 660 0
DWIDTH 22 0
BBX 18 30 2 0
BITMAP
040800
020800
021000
01E000
000000
000000
01E000
061C00
180200
200100
200080
400080
400040
400040
800040
800040
800040
800040
800040
800040
800040
800040
800040
400040
400080
400080
200080
100100
080200
07F800
ENDCHAR
STARTCHAR 014F
ENCODING 335
SWIDTH 540 0
DWIDTH 18 0
BBX 14 24 2 0
BITMAP
1020
1020
0840
0780
0000
0000
0000
0FC0
3030
4008
4008
8008
8004
8004
8004
8004
8004
8004
8004
8004
4008
4008
2010
1FE0
ENDCHAR
STARTCHAR 0150
ENCODING 336
SWIDTH 660 0
DWIDTH 22 0
BBX 18 31 2 0
BITMAP
004100
004200
008400
010800
020800
000000
000000
01E000
061C00
180200
200100
200080
400080
400040
400040
800040
800040
800040
800040
800040
800040
800040
800040
800040
400040
400080
400080
200080
100100
080200
07F800
ENDCHAR
STARTCHAR 0151
ENCODING 337
SWIDTH 540 0
DWIDTH 18 0
BBX 14 25 2 0
BITMAP
0108
0208
0210
0420
0840
0000
0000
0000
0FC0
3030
4008
4008
8008
8004
8004
8004
8004
8004
8004
8004
8004
4008
4008
2010
1FE0
ENDCHAR
STARTCHAR 0152
ENCODING 338
SWIDTH 960 0
DWIDTH 32 0
BBX 28 24 2 0
BITMAP
00F80000
0707FFE0
08010000
10010000
20010000
40010000
40010000
40010000
80010000
80010000
80010000
80010000
8001FFE0
80010000
80010000
80010000
80010000
40010000
40010000
40010000
20010000
10010000
08010000
07FFFFF0
ENDCHAR
STARTCHAR 0153
ENCODING 339
SWIDTH 900 0
DWIDTH 30 0
BBX 27 17 2 0
BITMAP
0FC07E00
30318180
400A0080
400A0040
800C0040
80040020
80040020
80040020
8007FFC0
80040000
80040000
80040000
800C0000
400A0040
400A0040
20110080
1FE0FF00
ENDCHAR
STARTCHAR 0154
ENCODING 340
SWIDTH 630 0
DWIDTH 21 0
BBX 15 31 4 0
BITMAP
0080
0080
0100
0200
0400
0000
0000
0000
FFF0
8008
8004
8004
8004
8004
8004
8004
8004
8004
8008
8070
FF80
8080
8040
8040
8020
8010
8010
8008
8008
8004
8002
ENDCHAR
STARTCHAR 0155
ENCODING 341
SWIDTH 330 0
DWIDTH 11 0
BBX 8 25 3 0
BITMAP
01
02
04
08
08
00
00
00
8F
B0
C0
C0
80
80
80
80
80
80
80
80
80
80
80
80
80
ENDCHAR
STARTCHAR 0156
ENCODING 342
SWIDTH 630 0
DWIDTH 21 0
BBX 15 30 4 -7
BITMAP
FFF0
8008
8004
8004
8004
8004
8004
8004
8004
8004
8008
8070
FF80
8080
8040
8040
8020
8010
8010
8008
8008
8004
8002
0000
0000
0600
0200
0200
0400
0400
ENDCHAR
STARTCHAR 0157
ENCODING 343
SWIDTH 330 0
DWIDTH 11 0
BBX 8 24 3 -7
BITMAP
8F
B0
C0
C0
80
80
80
80
80
80
80
80
80
80
80
80
80
00
00
C0
C0
80
80
80
ENDCHAR
STARTCHAR 0158
ENCODING 344
SWIDTH 630 0
DWIDTH 21 0
BBX 15 31 4 0
BITMAP
4020
2040
1080
0900
0600
0000
0000
0000
FFF0
8008
8004
8004
8004
8004
8004
8004
8004
8004
8008
8070
FF80
8080
8040
8040
8020
8010
8010
8008
8008
8004
8002
ENDCHAR
STARTCHAR 0159
ENCODING 345
SWIDTH 330 0
DWIDTH 11 0
BBX 9 25 3 0
BITMAP
8080
4100
2200
1400
0800
0000
0000
0000
8F00
B000
C000
C000
8000
8000
8000
8000
8000
8000
8000
8000
8000
8000
8000
8000
8000
ENDCHAR
STARTCHAR 015A
ENCODING 346
SWIDTH 540 0
DWIDTH 18 0
BBX 14 31 2 0
BITMAP
0040
0080
0080
0100
0200
0000
0000
0380
3870
4008
8004
8000
8000
8000
8000
8000
4000
2000
1C00
03C0
0030
0008
0004
0004
0004
0004
0004
0004
8008
4008
3FF0
ENDCHAR
STARTCHAR 015B
ENCODING 347
SWIDTH 450 0
DWIDTH 15 0
BBX 11 25 2 0
BITMAP
0080
0100
0200
0400
0400
0000
0000
0000
3F80
4040
8020
8000
8000
8000
4000
2000
1700
00C0
0020
0020
0020
0020
8020
4020
3FC0
ENDCHAR
STARTCHAR 015C
ENCODING 348
SWIDTH 540 0
DWIDTH 18 0
BBX 14 31 2 0
BITMAP
0300
0480
0840
1020
2020
0000
0000
0380
3870
4008
8004
8000
8000
8000
8000
8000
4000
2000
1C00
03C0
0030
0008
0004
0004
0004
0004
0004
0004
8008
4008
3FF0
ENDCHAR
STARTCHAR 015D
ENCODING 349
SWIDTH 450 0
DWIDTH 15 0
BBX 11 25 2 0
BITMAP
0400
0A00
1100
2080
4040
0000
0000
0000
3F80
4040
8020
8000
8000
8000
4000
2000
1700
00C0
0020
0020
0020
0020
8020
4020
3FC0
ENDCHAR
STARTCHAR 015E
ENCODING 350
SWIDTH 540 0
DWIDTH 18 0
BBX 14 31 2 -7
BITMAP
0380
3870
4008
8004
8000
8000
8000
8000
8000
4000
2000
1C00
03C0
0030
0008
0004
0004
0004
0004
0004
0004
8008
4008
3870
0780
0200
0380
0040
0040
0040
0780
ENDCHAR
STARTCHAR 015F
ENCODING 351
SWIDTH 450 0
DWIDTH 15 0
BBX 11 24 2 -7
BITMAP
3F80
4040
8020
8000
8000
8000
4000
2000
1700
00C0
0020
0020
0020
0020
8020
4020
30C0
0F00
0400
0600
0180
0080
0080
0F00
ENDCHAR
STARTCHAR 0160
ENCODING 352
SWIDTH 540 0
DWIDTH 18 0
BBX 14 31 2 0
BITMAP
2010
1020
0840
0480
0300
0000
0000
0380
3870
4008
8004
8000
8000
8000
8000
8000
4000
2000
1C00
03C0
0030
0008
0004
0004
0004
0004
0004
0004
8008
4008
3FF0
ENDCHAR
STARTCHAR 0161
ENCODING 353
SWIDTH 450 0
DWIDTH 15 0
BBX 11 25 2 0
BITMAP
4040
2080
1100
0A00
0400
0000
0000
0000
3F80
4040
8020
8000
8000
8000
4000
2000
1700
00C0
0020
0020
0020
0020
8020
4020
3FC0
ENDCHAR
STARTCHAR 0162
ENCODING 354
SWIDTH 540 0
DWIDTH 18 0
BBX 17 30 1 -7
BITMAP
FFFF80
008000
008000
008000
008000
008000
008000
008000
008000
008000
008000
008000
008000
008000
008000
008000
008000
008000
008000
008000
008000
008000
008000
000000
000000
008000
008000
008000
008000
010000
ENDCHAR
STARTCHAR 0163
ENCODING 355
SWIDTH 300 0
DWIDTH 10 0
BBX 8 29 1 -7
BITMAP
10
10
10
10
10
FF
10
10
10
10
10
10
10
10
10
10
10
10
10
10
10
1F
00
00
04
04
04
04
08
ENDCHAR
STARTCHAR 0164
ENCODING 356
SWIDTH 540 0
DWIDTH 18 0
BBX 17 31 1 0
BITMAP
080800
041000
022000
014000
008000
000000
000000
000000
FFFF80
008000
008000
008000
008000
008000
008000
008000
008000
008000
008000
008000
008000
008000
008000
008000
008000
008000
008000
008000
008000
008000
008000
ENDCHAR
STARTCHAR 0165
ENCODING 357
SWIDTH 300 0
DWIDTH 10 0
BBX 9 25 1 0
BITMAP
0080
0100
0100
1100
1100
1100
1000
1000
FF00
1000
1000
1000
1000
1000
1000
1000
1000
1000
1000
1000
1000
1000
1000
1000
1F00
ENDCHAR
STARTCHAR 0166
ENCODING 358
SWIDTH 540 0
DWIDTH 18 0
BBX 17 23 1 0
BITMAP
FFFF80
008000
008000
008000
008000
008000
008000
008000
008000
008000
3FFE00
008000
008000
008000
008000
008000
008000
008000
008000
008000
008000
008000
008000
ENDCHAR
STARTCHAR 0167
ENCODING 359
SWIDTH 300 0
DWIDTH 10 0
BBX 8 22 1 0
BITMAP
10
10
10
10
10
FF
10
10
10
10
10
10
7E
10
10
10
10
10
10
10
10
1F
ENDCHAR
STARTCHAR 0168
ENCODING 360
SWIDTH 630 0
DWIDTH 21 0
BBX 15 29 3 0
BITMAP
1F08
00F0
0000
0000
0000
0000
8002
8002
8002
8002
8002
8002
8002
8002
8002
8002
8002
8002
8002
8002
8002
8002
8002
8002
8002
4002
4004
200C
1FF0
ENDCHAR
STARTCHAR 0169
ENCODING 361
SWIDTH 540 0
DWIDTH 18 0
BBX 12 23 3 0
BITMAP
3C00
03E0
0000
0000
0000
0000
8010
8010
8010
8010
8010
8010
8010
8010
8010
8010
8010
8010
8010
8010
4010
4030
3FD0
ENDCHAR
STARTCHAR 016A
ENCODING 362
SWIDTH 630 0
DWIDTH 21 0
BBX 15 29 3 0
BITMAP
0FF0
0000
0000
0000
0000
0000
8002
8002
8002
8002
8002
8002
8002
8002
8002
8002
8002
8002
8002
8002
8002
8002
8002
8002
8002
4002
4004
200C
1FF0
ENDCHAR
STARTCHAR 016B
ENCODING 363
SWIDTH 540 0
DWIDTH 18 0
BBX 12 23 3 0
BITMAP
3FC0
0000
0000
0000
0000
0000
8010
8010
8010
8010
8010
8010
8010
8010
8010
8010
8010
8010
8010
8010
4010
4030
3FD0
ENDCHAR
STARTCHAR 016C
ENCODING 364
SWIDTH 630 0
DWIDTH 21 0
BBX 15 30 3 0
BITMAP
1010
0820
0420
03C0
0000
0000
0000
8002
8002
8002
8002
8002
8002
8002
8002
8002
8002
8002
8002
8002
8002
8002
8002
8002
8002
8002
4002
4004
200C
1FF0
ENDCHAR
STARTCHAR 016D
ENCODING 365
SWIDTH 540 0
DWIDTH 18 0
BBX 12 24 3 0
BITMAP
2040
2040
1080
0F00
0000
0000
0000
8010
8010
8010
8010
8010
8010
8010
8010
8010
8010
8010
8010
8010
8010
4010
4030
3FD0
ENDCHAR
STARTCHAR 016E
ENCODING 366
SWIDTH 630 0
DWIDTH 21 0
BBX 15 32 3 0
BITMAP
0180
0640
0420
0420
0420
0240
0180
0000
0000
8002
8002
8002
8002
8002
8002
8002
8002
8002
8002
8002
8002
8002
8002
8002
8002
8002
8002
8002
4002
4004
200C
1FF0
ENDCHAR
STARTCHAR 016F
ENCODING 367
SWIDTH 540 0
DWIDTH 18 0
BBX 12 26 3 0
BITMAP
0600
0980
1080
1080
1080
0900
0600
0000
0000
8010
8010
8010
8010
8010
8010
8010
8010
8010
8010
8010
8010
8010
8010
4010
4030
3FD0
ENDCHAR
STARTCHAR 0170
ENCODING 368
SWIDTH 630 0
DWIDTH 21 0
BBX 15 31 3 0
BITMAP
0084
0108
0208
0210
0420
0000
0000
0000
8002
8002
8002
8002
8002
8002
8002
8002
8002
8002
8002
8002
8002
8002
8002
8002
8002
8002
8002
4002
4004
200C
1FF0
ENDCHAR
STARTCHAR 0171
ENCODING 369
SWIDTH 540 0
DWIDTH 18 0
BBX 13 25 3 0
BITMAP
0208
0410
0420
0840
1040
0000
0000
0000
8010
8010
8010
8010
8010
8010
8010
8010
8010
8010
8010
8010
8010
8010
4010
4030
3FD0
ENDCHAR
STARTCHAR 0172
ENCODING 370
SWIDTH 630 0
DWIDTH 21 0
BBX 15 30 3 -7
BITMAP
8002
8002
8002
8002
8002
8002
8002
8002
8002
8002
8002
8002
8002
8002
8002
8002
8002
8002
8002
4002
4004
200C
1C70
03A0
00C0
0100
0100
0100
0110
00E0
ENDCHAR
STARTCHAR 0173
ENCODING 371
SWIDTH 540 0
DWIDTH 18 0
BBX 13 24 3 -7
BITMAP
8010
8010
8010
8010
8010
8010
8010
8010
8010
8010
8010
8010
8010
8010
4010
4030
30D0
0F20
0040
0080
0080
0080
0088
0070
ENDCHAR
STARTCHAR 0174
ENCODING 372
SWIDTH 870 0
DWIDTH 29 0
BBX 27 31 1 0
BITMAP
00040000
000A0000
00110000
00208000
00404000
00000000
00000000
00000000
80040020
800A0020
400A0040
400A0040
40120040
40110040
20110080
20110080
20208080
20208100
10208100
10408100
10404100
10404200
08404200
08804200
08802200
08802400
05002400
05001400
05001400
03001800
02000800
ENDCHAR
STARTCHAR 0175
ENCODING 373
SWIDTH 720 0
DWIDTH 24 0
BBX 22 25 1 0
BITMAP
003000
004800
008400
010200
020100
000000
000000
000000
801004
803004
403008
404808
404808
204810
208810
208410
208420
110420
110220
110220
090240
0A0140
0A0140
060180
040080
ENDCHAR
STARTCHAR 0176
ENCODING 374
SWIDTH 540 0
DWIDTH 18 0
BBX 16 31 1 0
BITMAP
0180
0240
0420
0810
1008
0000
0000
0000
8001
4002
4002
2004
2004
1008
0810
0810
0420
0420
0240
0140
0180
0100
0100
0100
0100
0100
0100
0100
0100
0100
0100
ENDCHAR
STARTCHAR 0177
ENCODING 375
SWIDTH 450 0
DWIDTH 15 0
BBX 13 32 1 -7
BITMAP
0200
0500
0880
1040
2020
0000
0000
0000
8008
8008
8010
4010
4010
2020
2020
2020
1040
1040
1080
0880
0880
0500
0500
0500
0200
0200
0400
0400
0400
0800
0800
7000
ENDCHAR
STARTCHAR 0178
ENCODING 376
SWIDTH 540 0
DWIDTH 18 0
BBX 16 29 1 0
BITMAP
0C30
0C10
0000
0000
0000
0000
8001
4002
4002
2004
2004
1008
0810
0810
0420
0420
0240
0140
0180
0100
0100
0100
0100
0100
0100
0100
0100
0100
0100
ENDCHAR
STARTCHAR 0179
ENCODING 377
SWIDTH 540 0
DWIDTH 18 0
BBX 17 31 1 0
BITMAP
001000
002000
004000
008000
008000
000000
000000
000000
3FFF00
000200
000200
000400
000800
001000
001000
002000
004000
004000
008000
010000
010000
020000
040000
040000
080000
100000
100000
200000
400000
400000
FFFF80
ENDCHAR
STARTCHAR 017A
ENCODING 378
SWIDTH 390 0
DWIDTH 13 0
BBX 12 25 1 0
BITMAP
0080
0100
0100
0200
0400
0000
0000
0000
FFF0
0020
0020
0040
0080
0080
0100
0200
0400
0400
0800
1000
2000
2000
4000
8000
FFF0
ENDCHAR
STARTCHAR 017B
ENCODING 379
SWIDTH 540 0
DWIDTH 18 0
BBX 17 29 1 0
BITMAP
008000
008000
000000
000000
000000
000000
3FFF00
000200
000200
000400
000800
001000
001000
002000
004000
004000
008000
010000
010000
020000
040000
040000
080000
100000
100000
200000
400000
400000
FFFF80
ENDCHAR
STARTCHAR 017C
ENCODING 380
SWIDTH 390 0
DWIDTH 13 0
BBX 12 23 1 0
BITMAP
0600
0000
0000
0000
0000
0000
FFF0
0020
0020
0040
0080
0080
0100
0200
0400
0400
0800
1000
2000
2000
4000
8000
FFF0
ENDCHAR
STARTCHAR 017D
ENCODING 381
SWIDTH 540 0
DWIDTH 18 0
BBX 17 31 1 0
BITMAP
080800
041000
022000
014000
008000
000000
000000
000000
3FFF00
000200
000200
000400
000800
001000
001000
002000
004000
004000
008000
010000
010000
020000
040000
040000
080000
100000
100000
200000
400000
400000
FFFF80
ENDCHAR
STARTCHAR 017E
ENCODING 382
SWIDTH 390 0
DWIDTH 13 0
BBX 12 25 1 0
BITMAP
4020
2040
1080
0900
0600
0000
0000
0000
FFF0
0020
0020
0040
0080
0080
0100
0200
0400
0400
0800
1000
2000
2000
4000
8000
FFF0
ENDCHAR
STARTCHAR 018F
ENCODING 399
SWIDTH 660 0
DWIDTH 22 0
BBX 18 24 2 0
BITMAP
00E000
071C00
180200
200100
200080
400080
400040
000040
000040
000040
000040
000040
FFFFC0
800040
800040
800040
800040
400040
400080
400080
200080
100100
080200
07F800
ENDCHAR
STARTCHAR 0192
ENCODING 402
SWIDTH 480 0
DWIDTH 16 0
BBX 15 27 0 -4
BITMAP
00FE
0080
0080
0080
0080
0080
0080
0080
0100
0100
0100
0100
3FFE
0100
0100
0100
0100
0100
0200
0200
0200
0200
0200
0200
0200
0200
FE00
ENDCHAR
STARTCHAR 01A0
ENCODING 416
SWIDTH 660 0
DWIDTH 22 0
BBX 18 27 2 0
BITMAP
000040
000040
000040
01E040
061F80
180200
200100
200080
400080
400040
400040
800040
800040
800040
800040
800040
800040
800040
800040
800040
400040
400080
400080
200080
100100
080200
07F800
ENDCHAR
STARTCHAR 01A1
ENCODING 417
SWIDTH 540 0
DWIDTH 18 0
BBX 14 20 2 0
BITMAP
0004
0004
0004
0FF8
3010
4008
4008
8008
8004
8004
8004
8004
8004
8004
8004
8004
4008
4008
2010
1FE0
ENDCHAR
STARTCHAR 01AF
ENCODING 431
SWIDTH 630 0
DWIDTH 21 0
BBX 18 27 3 0
BITMAP
000040
000040
000040
000040
800380
800200
800200
800200
800200
800200
800200
800200
800200
800200
800200
800200
800200
800200
800200
800200
800200
800200
800200
400200
400400
200C00
1FF000
ENDCHAR
STARTCHAR 01B0
ENCODING 432
SWIDTH 540 0
DWIDTH 18 0
BBX 15 21 3 0
BITMAP
0002
0002
0002
0002
801C
8010
8010
8010
8010
8010
8010
8010
8010
8010
8010
8010
8010
8010
4010
4030
3FD0
ENDCHAR
STARTCHAR 01FA
ENCODING 506
SWIDTH 600 0
DWIDTH 20 0
BBX 18 36 1 0
BITMAP
002000
002000
004000
000000
00C000
032000
021000
021000
021000
012000
00C000
000000
000000
00C000
00C000
012000
012000
012000
021000
021000
041000
040800
040800
080800
080400
080400
100400
100200
1FFE00
200100
200100
400100
400080
400080
800080
800040
ENDCHAR
STARTCHAR 01FB
ENCODING 507
SWIDTH 510 0
DWIDTH 17 0
BBX 15 30 2 0
BITMAP
0080
0100
0200
0000
0700
0880
1080
1080
1080
0980
0600
0000
0000
1FC0
2020
4020
0010
0010
0010
0010
0010
1FF0
6010
8010
8010
8010
8010
8030
4050
3F9E
ENDCHAR
STARTCHAR 01FC
ENCODING 508
SWIDTH 840 0
DWIDTH 28 0
BBX 26 31 0 0
BITMAP
00000200
00000400
00000400
00000800
00001000
00000000
00000000
00000000
000FFFC0
000C0000
00140000
00140000
00240000
00440000
00440000
00840000
00840000
01040000
01040000
0203FFC0
02040000
04040000
04040000
0BFC0000
10040000
10040000
20040000
20040000
40040000
40040000
8003FFC0
ENDCHAR
STARTCHAR 01FD
ENCODING 509
SWIDTH 840 0
DWIDTH 28 0
BBX 25 25 2 0
BITMAP
00020000
00020000
00040000
00080000
00100000
00000000
00000000
00000000
1F81F800
60460400
40280200
00280100
00100100
00100100
00100080
00100080
3FFFFF00
40100000
80100000
80100000
80100000
80280100
80280100
40440200
3F83FC00
ENDCHAR
STARTCHAR 01FE
ENCODING 510
SWIDTH 660 0
DWIDTH 22 0
BBX 18 32 2 -1
BITMAP
001000
001000
002000
004000
008000
000000
000000
01E040
061C80
180280
200100
200280
400280
400440
400840
801040
801040
802040
804040
804040
808040
810040
810040
820040
440040
480080
480080
300080
300100
280200
461800
81E000
ENDCHAR
STARTCHAR 01FF
ENCODING 511
SWIDTH 540 0
DWIDTH 18 0
BBX 16 26 1 -1
BITMAP
0020
0020
0040
0080
0100
0000
0000
0001
07E2
181C
200C
2014
4012
4022
4042
4082
4102
4102
4202
4402
4802
3004
3004
3008
4C30
83C0
ENDCHAR
STARTCHAR 0218
ENCODING 536
SWIDTH 540 0
DWIDTH 18 0
BBX 14 31 2 -7
BITMAP
0380
3870
4008
8004
8000
8000
8000
8000
8000
4000
2000
1C00
03C0
0030
0008
0004
0004
0004
0004
0004
0004
8008
4008
3870
0780
0000
0300
0300
0100
0200
0200
ENDCHAR
STARTCHAR 0219
ENCODING 537
SWIDTH 450 0
DWIDTH 15 0
BBX 11 24 2 -7
BITMAP
3F80
4040
8020
8000
8000
8000
4000
2000
1700
00C0
0020
0020
0020
0020
8020
4020
30C0
0F00
0000
0600
0600
0400
0400
0400
ENDCHAR
STARTCHAR 021A
ENCODING 538
SWIDTH 540 0
DWIDTH 18 0
BBX 17 30 1 -7
BITMAP
FFFF80
008000
008000
008000
008000
008000
008000
008000
008000
008000
008000
008000
008000
008000
008000
008000
008000
008000
008000
008000
008000
008000
008000
000000
000000
008000
008000
008000
008000
010000
ENDCHAR
STARTCHAR 021B
ENCODING 539
SWIDTH 300 0
DWIDTH 10 0
BBX 8 29 1 -7
BITMAP
10
10
10
10
10
FF
10
10
10
10
10
10
10
10
10
10
10
10
10
10
10
1F
00
00
04
04
04
04
08
ENDCHAR
STARTCHAR 0237
ENCODING 567
SWIDTH 210 0
DWIDTH 7 0
BBX 3 24 1 -7
BITMAP
20
20
20
20
20
20
20
20
20
20
20
20
20
20
20
20
20
20
20
20
20
20
20
E0
ENDCHAR
STARTCHAR 0259
ENCODING 601
SWIDTH 510 0
DWIDTH 17 0
BBX 14 17 2 0
BITMAP
1FC0
2020
4010
8008
0008
0008
0004
0004
0004
FFFC
8004
8004
8008
4008
4010
2010
1FE0
ENDCHAR
STARTCHAR 02BB
ENCODING 699
SWIDTH 600 0
DWIDTH 20 0
BBX 2 5 9 20
BITMAP
40
80
80
80
C0
ENDCHAR
STARTCHAR 02BC
ENCODING 700
SWIDTH 600 0
DWIDTH 20 0
BBX 1 6 8 19
BITMAP
80
80
80
80
80
80
ENDCHAR
STARTCHAR 02C6
ENCODING 710
SWIDTH 600 0
DWIDTH 20 0
BBX 9 5 5 20
BITMAP
0C00
1200
2100
4080
8080
ENDCHAR
STARTCHAR 02C7
ENCODING 711
SWIDTH 600 0
DWIDTH 20 0
BBX 10 5 5 20
BITMAP
8040
4080
2100
1200
0C00
ENDCHAR
STARTCHAR 02D8
ENCODING 728
SWIDTH 600 0
DWIDTH 20 0
BBX 8 4 6 20
BITMAP
81
81
42
3C
ENDCHAR
STARTCHAR 02D9
ENCODING 729
SWIDTH 600 0
DWIDTH 20 0
BBX 2 1 9 21
BITMAP
C0
ENDCHAR
STARTCHAR 02DA
ENCODING 730
SWIDTH 600 0
DWIDTH 20 0
BBX 6 6 7 20
BITMAP
30
C8
84
84
84
78
ENDCHAR
STARTCHAR 02DB
ENCODING 731
SWIDTH 600 0
DWIDTH 20 0
BBX 5 7 5 -6
BITMAP
18
20
40
80
80
80
78
ENDCHAR
STARTCHAR 02DC
ENCODING 732
SWIDTH 600 0
DWIDTH 20 0
BBX 10 2 5 21
BITMAP
F840
0780
ENDCHAR
STARTCHAR 02DD
ENCODING 733
SWIDTH 600 0
DWIDTH 20 0
BBX 9 5 7 20
BITMAP
1080
2080
2100
4200
8400
ENDCHAR
STARTCHAR 0300
ENCODING 768
SWIDTH 0 0
DWIDTH 0 0
BBX 4 5 -3 20
BITMAP
80
C0
40
20
10
ENDCHAR
STARTCHAR 0301
ENCODING 769
SWIDTH 0 0
DWIDTH 0 0
BBX 4 5 -1 20
BITMAP
10
20
20
40
80
ENDCHAR
STARTCHAR 0302
ENCODING 770
SWIDTH 0 0
DWIDTH 0 0
BBX 10 5 -5 20
BITMAP
0C00
1200
2100
4080
8040
ENDCHAR
STARTCHAR 0303
ENCODING 771
SWIDTH 0 0
DWIDTH 0 0
BBX 10 2 -5 21
BITMAP
F840
0780
ENDCHAR
STARTCHAR 0304
ENCODING 772
SWIDTH 0 0
DWIDTH 0 0
BBX 8 1 -4 22
BITMAP
FF
ENDCHAR
STARTCHAR 0306
ENCODING 774
SWIDTH 0 0
DWIDTH 0 0
BBX 8 4 -4 20
BITMAP
81
81
42
3C
ENDCHAR
STARTCHAR 0307
ENCODING 775
SWIDTH 0 0
DWIDTH 0 0
BBX 2 1 -1 21
BITMAP
C0
ENDCHAR
STARTCHAR 0308
ENCODING 776
SWIDTH 0 0
DWIDTH 0 0
BBX 8 2 -4 21
BITMAP
C3
01
ENDCHAR
STARTCHAR 0309
ENCODING 777
SWIDTH 0 0
DWIDTH 0 0
BBX 5 5 -2 19
BITMAP
F0
08
10
20
20
ENDCHAR
STARTCHAR 030A
ENCODING 778
SWIDTH 0 0
DWIDTH 0 0
BBX 6 6 -3 20
BITMAP
30
C8
84
84
84
78
ENDCHAR
STARTCHAR 030B
ENCODING 779
SWIDTH 0 0
DWIDTH 0 0
BBX 9 5 -3 20
BITMAP
1080
2080
2100
4200
8400
ENDCHAR
STARTCHAR 030C
ENCODING 780
SWIDTH 0 0
DWIDTH 0 0
BBX 10 5 -5 20
BITMAP
8040
4080
2100
1200
0C00
ENDCHAR
STARTCHAR 0312
ENCODING 786
SWIDTH 0 0
DWIDTH 0 0
BBX 2 5 -1 20
BITMAP
40
80
80
80
C0
ENDCHAR
STARTCHAR 0315
ENCODING 789
SWIDTH 0 0
DWIDTH 0 0
BBX 1 5 0 20
BITMAP
80
80
80
80
80
ENDCHAR
STARTCHAR 031B
ENCODING 795
SWIDTH 0 0
DWIDTH 0 0
BBX 3 5 -2 16
BITMAP
20
20
20
20
E0
ENDCHAR
STARTCHAR 0323
ENCODING 803
SWIDTH 0 0
DWIDTH 0 0
BBX 2 1 -1 -4
BITMAP
C0
ENDCHAR
STARTCHAR 0326
ENCODING 806
SWIDTH 0 0
DWIDTH 0 0
BBX 2 5 -1 -7
BITMAP
C0
C0
40
80
80
ENDCHAR
STARTCHAR 0327
ENCODING 807
SWIDTH 0 0
DWIDTH 0 0
BBX 5 7 -2 -7
BITMAP
40
40
70
08
08
08
F0
ENDCHAR
STARTCHAR 0328
ENCODING 808
SWIDTH 0 0
DWIDTH 0 0
BBX 5 7 -5 -6
BITMAP
18
20
40
80
80
80
78
ENDCHAR
STARTCHAR 037E
ENCODING 894
SWIDTH 240 0
DWIDTH 8 0
BBX 3 21 2 -5
BITMAP
60
00
00
00
00
00
00
00
00
00
00
00
00
00
20
60
20
20
40
40
80
ENDCHAR
STARTCHAR 0384
ENCODING 900
SWIDTH 600 0
DWIDTH 20 0
BBX 2 5 10 20
BITMAP
40
40
40
80
80
ENDCHAR
STARTCHAR 0385
ENCODING 901
SWIDTH 600 0
DWIDTH 20 0
BBX 8 5 6 20
BITMAP
08
08
D3
10
10
ENDCHAR
STARTCHAR 0386
ENCODING 902
SWIDTH 600 0
DWIDTH 20 0
BBX 18 25 1 0
BITMAP
080000
100000
10C000
20C000
212000
012000
012000
021000
021000
041000
040800
040800
080800
080400
080400
100400
100200
1FFE00
200100
200100
400100
400080
400080
800080
800040
ENDCHAR
STARTCHAR 0387
ENCODING 903
SWIDTH 240 0
DWIDTH 8 0
BBX 2 1 3 15
BITMAP
C0
ENDCHAR
STARTCHAR 0388
ENCODING 904
SWIDTH 570 0
DWIDTH 19 0
BBX 18 25 -1 0
BITMAP
200000
200000
47FFC0
440000
840000
040000
040000
040000
040000
040000
040000
040000
040000
07FFC0
040000
040000
040000
040000
040000
040000
040000
040000
040000
040000
07FFC0
ENDCHAR
STARTCHAR 0389
ENCODING 905
SWIDTH 690 0
DWIDTH 23 0
BBX 21 25 -1 0
BITMAP
200000
200000
440008
440008
840008
040008
040008
040008
040008
040008
040008
040008
040008
07FFF8
040008
040008
040008
040008
040008
040008
040008
040008
040008
040008
040008
ENDCHAR
STARTCHAR 038A
ENCODING 906
SWIDTH 420 0
DWIDTH 14 0
BBX 13 25 -1 0
BITMAP
2000
2000
47F0
4080
8080
0080
0080
0080
0080
0080
0080
0080
0080
0080
0080
0080
0080
0080
0080
0080
0080
0080
0080
0080
07F8
ENDCHAR
STARTCHAR 038C
ENCODING 908
SWIDTH 660 0
DWIDTH 22 0
BBX 21 25 -1 0
BITMAP
200000
203C00
40C380
430040
840020
040010
080010
080008
080008
100008
100008
100008
100008
100008
100008
100008
100008
100008
080008
080010
080010
040010
020020
010040
00FF00
ENDCHAR
STARTCHAR 038E
ENCODING 910
SWIDTH 600 0
DWIDTH 20 0
BBX 21 25 -1 0
BITMAP
200000
200000
440008
440010
820010
020020
010040
008040
008080
004080
004100
002200
001200
001400
000C00
000800
000800
000800
000800
000800
000800
000800
000800
000800
000800
ENDCHAR
STARTCHAR 038F
ENCODING 911
SWIDTH 690 0
DWIDTH 23 0
BBX 22 25 -1 0
BITMAP
200000
201E00
40E180
430060
820010
040010
080008
080008
080008
100004
100004
100004
100004
100004
100004
100004
080008
080008
080008
040010
020010
010020
0080C0
004100
0FC1FC
ENDCHAR
STARTCHAR 0390
ENCODING 912
SWIDTH 240 0
DWIDTH 8 0
BBX 7 25 1 0
BITMAP
08
10
92
A2
20
00
00
00
20
20
20
20
20
20
20
20
20
20
20
20
20
20
20
20
1E
ENDCHAR
STARTCHAR 0391
ENCODING 913
SWIDTH 600 0
DWIDTH 20 0
BBX 18 23 1 0
BITMAP
00C000
00C000
012000
012000
012000
021000
021000
041000
040800
040800
080800
080400
080400
100400
100200
1FFE00
200100
200100
400100
400080
400080
800080
800040
ENDCHAR
STARTCHAR 0392
ENCODING 914
SWIDTH 600 0
DWIDTH 20 0
BBX 14 23 4 0
BITMAP
FFE0
8010
8008
8008
8008
8008
8008
8008
8008
8010
FFE0
8030
8008
8004
8004
8004
8004
8004
8004
8004
8008
8018
FFE0
ENDCHAR
STARTCHAR 0393
ENCODING 915
SWIDTH 480 0
DWIDTH 16 0
BBX 11 23 4 0
BITMAP
FFE0
8000
8000
8000
8000
8000
8000
8000
8000
8000
8000
8000
8000
8000
8000
8000
8000
8000
8000
8000
8000
8000
8000
ENDCHAR
STARTCHAR 0394
ENCODING 916
SWIDTH 600 0
DWIDTH 20 0
BBX 18 23 1 0
BITMAP
00C000
00C000
012000
012000
012000
021000
021000
041000
040800
040800
080800
080400
080400
100400
100200
100200
200100
200100
400100
400080
400080
800080
FFFFC0
ENDCHAR
STARTCHAR 0395
ENCODING 917
SWIDTH 540 0
DWIDTH 18 0
BBX 12 23 4 0
BITMAP
FFF0
8000
8000
8000
8000
8000
8000
8000
8000
8000
8000
FFF0
8000
8000
8000
8000
8000
8000
8000
8000
8000
8000
FFF0
ENDCHAR
STARTCHAR 0396
ENCODING 918
SWIDTH 540 0
DWIDTH 18 0
BBX 17 23 1 0
BITMAP
3FFF00
000200
000200
000400
000800
001000
001000
002000
004000
004000
008000
010000
010000
020000
040000
040000
080000
100000
100000
200000
400000
400000
FFFF80
ENDCHAR
STARTCHAR 0397
ENCODING 919
SWIDTH 690 0
DWIDTH 23 0
BBX 15 23 4 0
BITMAP
8002
8002
8002
8002
8002
8002
8002
8002
8002
8002
8002
FFFE
8002
8002
8002
8002
8002
8002
8002
8002
8002
8002
8002
ENDCHAR
STARTCHAR 0398
ENCODING 920
SWIDTH 660 0
DWIDTH 22 0
BBX 18 24 2 0
BITMAP
01E000
061C00
180200
200100
200080
400080
400040
400040
800040
800040
800040
800040
8FFE40
800040
800040
800040
800040
400040
400080
400080
200080
100100
080200
07F800
ENDCHAR
STARTCHAR 0399
ENCODING 921
SWIDTH 360 0
DWIDTH 12 0
BBX 8 23 2 0
BITMAP
7F
08
08
08
08
08
08
08
08
08
08
08
08
08
08
08
08
08
08
08
08
08
FF
ENDCHAR
STARTCHAR 039A
ENCODING 922
SWIDTH 570 0
DWIDTH 19 0
BBX 14 23 4 0
BITMAP
8004
8008
8010
8020
8040
8080
8100
8200
8400
8800
9400
9200
A200
C100
8080
8080
8040
8020
8020
8010
8008
8008
8004
ENDCHAR
STARTCHAR 039B
ENCODING 923
SWIDTH 570 0
DWIDTH 19 0
BBX 17 23 1 0
BITMAP
00C000
014000
014000
012000
022000
022000
021000
041000
041000
040800
080800
080400
080400
100400
100200
200200
200200
200100
400100
400100
400080
800080
800080
ENDCHAR
STARTCHAR 039C
ENCODING 924
SWIDTH 780 0
DWIDTH 26 0
BBX 19 23 4 0
BITMAP
800060
C00060
C000A0
A00120
900120
900220
880220
880420
840820
820820
821020
811020
812020
80C020
804020
800020
800020
800020
800020
800020
800020
800020
800020
ENDCHAR
STARTCHAR 039D
ENCODING 925
SWIDTH 690 0
DWIDTH 23 0
BBX 15 23 4 0
BITMAP
8002
C002
C002
A002
9002
9002
8802
8402
8402
8202
8202
8102
8082
8082
8042
8022
8022
8012
8012
800A
8006
8006
8002
ENDCHAR
STARTCHAR 039E
ENCODING 926
SWIDTH 540 0
DWIDTH 18 0
BBX 14 23 2 0
BITMAP
7FFC
0000
0000
0000
0000
0000
0000
0000
0000
0000
0000
7FF8
0000
0000
0000
0000
0000
0000
0000
0000
0000
0000
FFFC
ENDCHAR
STARTCHAR 039F
ENCODING 927
SWIDTH 660 0
DWIDTH 22 0
BBX 18 24 2 0
BITMAP
01E000
061C00
180200
200100
200080
400080
400040
400040
800040
800040
800040
800040
800040
800040
800040
800040
800040
400040
400080
400080
200080
100100
080200
07F800
ENDCHAR
STARTCHAR 03A0
ENCODING 928
SWIDTH 660 0
DWIDTH 22 0
BBX 15 23 4 0
BITMAP
FFFE
8002
8002
8002
8002
8002
8002
8002
8002
8002
8002
8002
8002
8002
8002
8002
8002
8002
8002
8002
8002
8002
8002
ENDCHAR
STARTCHAR 03A1
ENCODING 929
SWIDTH 570 0
DWIDTH 19 0
BBX 14 23 4 0
BITMAP
FFF0
8008
8004
8004
8004
8004
8004
8004
8004
8004
8008
8070
FF80
8000
8000
8000
8000
8000
8000
8000
8000
8000
8000
ENDCHAR
STARTCHAR 03A3
ENCODING 931
SWIDTH 570 0
DWIDTH 19 0
BBX 15 23 2 0
BITMAP
FFFC
4000
4000
2000
1000
0800
0400
0200
0200
0100
0080
0080
0080
0100
0200
0400
0800
0800
1000
2000
4000
8000
FFFE
ENDCHAR
STARTCHAR 03A4
ENCODING 932
SWIDTH 540 0
DWIDTH 18 0
BBX 17 23 1 0
BITMAP
FFFF80
008000
008000
008000
008000
008000
008000
008000
008000
008000
008000
008000
008000
008000
008000
008000
008000
008000
008000
008000
008000
008000
008000
ENDCHAR
STARTCHAR 03A5
ENCODING 933
SWIDTH 540 0
DWIDTH 18 0
BBX 16 23 1 0
BITMAP
8001
4002
4002
2004
2004
1008
0810
0810
0420
0420
0240
0140
0180
0100
0100
0100
0100
0100
0100
0100
0100
0100
0100
ENDCHAR
STARTCHAR 03A6
ENCODING 934
SWIDTH 810 0
DWIDTH 27 0
BBX 23 25 2 -1
BITMAP
001000
001000
03FFC0
0C1030
101008
201004
401004
401002
801002
801002
801002
801002
801002
801002
801002
801002
401002
401004
201004
201008
181010
061060
01FF80
001000
001000
ENDCHAR
STARTCHAR 03A7
ENCODING 935
SWIDTH 540 0
DWIDTH 18 0
BBX 16 23 1 0
BITMAP
4001
4002
2002
1004
1008
0808
0410
0420
0220
0140
0180
0080
0140
0240
0220
0410
0810
0808
1004
2004
4002
4001
8001
ENDCHAR
STARTCHAR 03A8
ENCODING 936
SWIDTH 750 0
DWIDTH 25 0
BBX 19 23 3 0
BITMAP
804020
804020
804020
804020
804020
804020
804020
804020
804020
804020
804020
804020
404040
204080
104100
0FFE00
004000
004000
004000
004000
004000
004000
004000
ENDCHAR
STARTCHAR 03A9
ENCODING 937
SWIDTH 690 0
DWIDTH 23 0
BBX 19 24 2 0
BITMAP
00F000
070C00
180300
100080
200080
400040
400040
400040
800020
800020
800020
800020
800020
800020
800020
400040
400040
400040
200080
100080
080100
040600
020800
7E0FE0
ENDCHAR
STARTCHAR 03AA
ENCODING 938
SWIDTH 360 0
DWIDTH 12 0
BBX 8 29 2 0
BITMAP
C1
41
00
00
00
00
7F
08
08
08
08
08
08
08
08
08
08
08
08
08
08
08
08
08
08
08
08
08
FF
ENDCHAR
STARTCHAR 03AB
ENCODING 939
SWIDTH 540 0
DWIDTH 18 0
BBX 16 29 1 0
BITMAP
0C30
0C10
0000
0000
0000
0000
8001
4002
4002
2004
2004
1008
0810
0810
0420
0420
0240
0140
0180
0100
0100
0100
0100
0100
0100
0100
0100
0100
0100
ENDCHAR
STARTCHAR 03AC
ENCODING 940
SWIDTH 630 0
DWIDTH 21 0
BBX 18 25 2 0
BITMAP
008000
008000
010000
010000
020000
000000
000000
000000
1F8000
202100
402100
401200
801200
800A00
800C00
800400
800400
800400
800C00
800C00
801200
401200
402200
202200
1FC1C0
ENDCHAR
STARTCHAR 03AD
ENCODING 941
SWIDTH 510 0
DWIDTH 17 0
BBX 13 25 3 0
BITMAP
0100
0100
0100
0200
0200
0000
0000
0000
1FC0
6030
8000
8000
8000
8000
4000
2000
1FC0
6000
8000
8000
8000
8000
8008
4010
3FE0
ENDCHAR
STARTCHAR 03AE
ENCODING 942
SWIDTH 540 0
DWIDTH 18 0
BBX 15 32 1 -7
BITMAP
0020
0020
0040
0040
0080
0000
0000
0000
E3F0
1C08
1004
1004
1002
1002
1002
1002
1002
1002
1002
1002
1002
1002
1002
1002
1002
0002
0002
0002
0002
0002
0002
0002
ENDCHAR
STARTCHAR 03AF
ENCODING 943
SWIDTH 240 0
DWIDTH 8 0
BBX 5 25 3 0
BITMAP
20
20
20
40
40
00
00
00
80
80
80
80
80
80
80
80
80
80
80
80
80
80
80
80
78
ENDCHAR
STARTCHAR 03B0
ENCODING 944
SWIDTH 540 0
DWIDTH 18 0
BBX 12 25 3 0
BITMAP
0100
0200
1240
1440
0400
0000
0000
0000
8010
8010
8010
8010
8010
8010
8010
8010
8010
8010
8010
8010
8010
8010
4020
4020
3FC0
ENDCHAR
STARTCHAR 03B1
ENCODING 945
SWIDTH 630 0
DWIDTH 21 0
BBX 18 17 2 0
BITMAP
1F8000
202100
402100
401200
801200
800A00
800C00
800400
800400
800400
800C00
800C00
801200
401200
402200
202200
1FC1C0
ENDCHAR
STARTCHAR 03B2
ENCODING 946
SWIDTH 540 0
DWIDTH 18 0
BBX 14 32 3 -7
BITMAP
0F80
3060
4010
4010
4010
8008
8008
8010
8010
8020
8040
8F80
8060
8010
8008
8008
8004
8004
8004
8004
8004
8008
C008
A010
9860
8780
8000
8000
8000
8000
8000
8000
ENDCHAR
STARTCHAR 03B3
ENCODING 947
SWIDTH 450 0
DWIDTH 15 0
BBX 15 23 0 -7
BITMAP
E002
2004
2004
1004
1008
1008
0810
0810
0810
0420
0420
0420
0240
0240
0280
0180
0080
0100
0100
0100
0100
0100
0100
ENDCHAR
STARTCHAR 03B4
ENCODING 948
SWIDTH 540 0
DWIDTH 18 0
BBX 14 25 2 0
BITMAP
3FF8
2000
1000
0800
0400
0200
0100
0080
03C0
0C20
3010
4010
4008
8008
8004
8004
8004
8004
8004
8004
8004
4008
4008
2010
1FE0
ENDCHAR
STARTCHAR 03B5
ENCODING 949
SWIDTH 510 0
DWIDTH 17 0
BBX 13 17 3 0
BITMAP
1FC0
6030
8000
8000
8000
8000
4000
2000
1FC0
6000
8000
8000
8000
8000
8008
4010
3FE0
ENDCHAR
STARTCHAR 03B6
ENCODING 950
SWIDTH 420 0
DWIDTH 14 0
BBX 11 30 2 -5
BITMAP
FFE0
0020
0040
0080
0080
0100
0200
0400
0800
0800
1000
2000
4000
4000
8000
8000
8000
8000
8000
8000
8000
4000
2000
1800
0780
0060
0040
0040
0040
0040
ENDCHAR
STARTCHAR 03B7
ENCODING 951
SWIDTH 540 0
DWIDTH 18 0
BBX 15 24 1 -7
BITMAP
E3F0
1C08
1004
1004
1002
1002
1002
1002
1002
1002
1002
1002
1002
1002
1002
1002
1002
0002
0002
0002
0002
0002
0002
0002
ENDCHAR
STARTCHAR 03B8
ENCODING 952
SWIDTH 540 0
DWIDTH 18 0
BBX 14 25 2 0
BITMAP
0FC0
1020
2010
4008
4008
4008
4008
8004
8004
8004
8004
8004
FFFC
8004
8004
8004
8004
8004
8004
4008
4008
4008
2010
1010
0FE0
ENDCHAR
STARTCHAR 03B9
ENCODING 953
SWIDTH 240 0
DWIDTH 8 0
BBX 5 17 3 0
BITMAP
80
80
80
80
80
80
80
80
80
80
80
80
80
80
80
80
78
ENDCHAR
STARTCHAR 03BA
ENCODING 954
SWIDTH 480 0
DWIDTH 16 0
BBX 13 17 3 0
BITMAP
8038
8040
8080
8100
8100
8200
8400
8800
9800
A400
C200
8100
8080
8040
8020
8010
8010
ENDCHAR
STARTCHAR 03BB
ENCODING 955
SWIDTH 450 0
DWIDTH 15 0
BBX 14 25 1 0
BITMAP
7000
1000
0800
0800
0800
0400
0400
0400
0200
0600
0600
0900
0900
0880
1080
1080
2040
2040
2040
4020
4020
4020
8010
8010
800C
ENDCHAR
STARTCHAR 03BC
ENCODING 956
SWIDTH 570 0
DWIDTH 19 0
BBX 15 24 3 -7
BITMAP
8000
8010
8010
8010
8010
8010
8010
8010
8010
8010
8010
8010
8010
C010
C010
A030
98CE
8700
8000
8000
8000
8000
8000
8000
ENDCHAR
STARTCHAR 03BD
ENCODING 957
SWIDTH 450 0
DWIDTH 15 0
BBX 15 17 0 0
BITMAP
E002
2004
2004
1004
1008
1008
0810
0810
0810
0420
0420
0420
0240
0240
0280
0180
0180
ENDCHAR
STARTCHAR 03BE
ENCODING 958
SWIDTH 450 0
DWIDTH 15 0
BBX 12 30 2 -5
BITMAP
7FF0
0800
1000
2000
4000
4000
4000
4000
2000
2000
1000
0FC0
1800
6000
4000
8000
8000
8000
8000
8000
4000
4000
3000
0C00
03C0
0020
0020
0020
0040
0040
ENDCHAR
STARTCHAR 03BF
ENCODING 959
SWIDTH 540 0
DWIDTH 18 0
BBX 14 17 2 0
BITMAP
0FC0
3030
4008
4008
8008
8004
8004
8004
8004
8004
8004
8004
8004
4008
4008
2010
1FE0
ENDCHAR
STARTCHAR 03C0
ENCODING 960
SWIDTH 570 0
DWIDTH 19 0
BBX 17 17 1 0
BITMAP
FFFF80
100400
100400
100400
100400
100400
100400
100400
100400
100400
100400
100400
100400
100400
100400
100400
100700
ENDCHAR
STARTCHAR 03C1
ENCODING 961
SWIDTH 510 0
DWIDTH 17 0
BBX 14 24 2 -7
BITMAP
0FC0
1030
2010
4008
4008
8004
8004
8004
8004
8004
8004
8004
8008
8008
C010
A010
98E0
8700
8000
8000
8000
8000
8000
8000
ENDCHAR
STARTCHAR 03C2
ENCODING 962
SWIDTH 480 0
DWIDTH 16 0
BBX 12 22 2 -5
BITMAP
0FC0
3020
4010
4000
8000
8000
8000
8000
8000
8000
8000
8000
4000
2000
1000
0C00
03C0
0030
0020
0020
0020
0040
ENDCHAR
STARTCHAR 03C3
ENCODING 963
SWIDTH 540 0
DWIDTH 18 0
BBX 15 17 2 0
BITMAP
07FE
1820
2010
4008
8008
8004
8004
8004
8004
8004
8004
8004
8004
4008
4008
2010
1FE0
ENDCHAR
STARTCHAR 03C4
ENCODING 964
SWIDTH 480 0
DWIDTH 16 0
BBX 14 17 1 0
BITMAP
FFFC
0200
0200
0200
0200
0200
0200
0200
0200
0200
0200
0200
0200
0200
0200
0200
03E0
ENDCHAR
STARTCHAR 03C5
ENCODING 965
SWIDTH 540 0
DWIDTH 18 0
BBX 12 17 3 0
BITMAP
8010
8010
8010
8010
8010
8010
8010
8010
8010
8010
8010
8010
8010
8010
4020
4020
3FC0
ENDCHAR
STARTCHAR 03C6
ENCODING 966
SWIDTH 660 0
DWIDTH 22 0
BBX 18 24 2 -7
BITMAP
101F00
202080
404040
404040
808040
808040
808040
808040
808040
808040
808040
808040
808040
408080
408080
308100
0C9E00
03E000
008000
008000
008000
008000
008000
008000
ENDCHAR
STARTCHAR 03C7
ENCODING 967
SWIDTH 450 0
DWIDTH 15 0
BBX 15 24 0 -7
BITMAP
E004
2008
1008
1010
0810
0820
0420
0440
0440
0280
0280
0100
0300
0280
0480
0440
0840
0820
1020
1020
2010
2010
4008
4006
ENDCHAR
STARTCHAR 03C8
ENCODING 968
SWIDTH 690 0
DWIDTH 23 0
BBX 17 31 3 -7
BITMAP
008000
008000
008000
008000
008000
008000
008000
808080
808080
808080
808080
808080
808080
808080
808080
808080
808080
808080
808080
808080
808100
408100
208200
1C9C00
03E000
008000
008000
008000
008000
008000
008000
ENDCHAR
STARTCHAR 03C9
ENCODING 969
SWIDTH 690 0
DWIDTH 23 0
BBX 19 17 2 0
BITMAP
100100
200080
400040
400040
800020
804020
804020
804020
804020
804020
804020
804020
804020
80C020
40A040
40A040
3F1F80
ENDCHAR
STARTCHAR 03CA
ENCODING 970
SWIDTH 240 0
DWIDTH 8 0
BBX 8 23 0 0
BITMAP
C3
01
00
00
00
00
10
10
10
10
10
10
10
10
10
10
10
10
10
10
10
10
0F
ENDCHAR
STARTCHAR 03CB
ENCODING 971
SWIDTH 540 0
DWIDTH 18 0
BBX 12 23 3 0
BITMAP
30C0
0000
0000
0000
0000
0000
8010
8010
8010
8010
8010
8010
8010
8010
8010
8010
8010
8010
8010
8010
4020
4020
3FC0
ENDCHAR
STARTCHAR 03CC
ENCODING 972
SWIDTH 540 0
DWIDTH 18 0
BBX 14 25 2 0
BITMAP
0080
0080
0100
0100
0200
0000
0000
0000
0FC0
3030
4008
4008
8008
8004
8004
8004
8004
8004
8004
8004
8004
4008
4008
2010
1FE0
ENDCHAR
STARTCHAR 03CD
ENCODING 973
SWIDTH 540 0
DWIDTH 18 0
BBX 12 25 3 0
BITMAP
0100
0100
0100
0200
0200
0000
0000
0000
8010
8010
8010
8010
8010
8010
8010
8010
8010
8010
8010
8010
8010
8010
4020
4020
3FC0
ENDCHAR
STARTCHAR 03CE
ENCODING 974
SWIDTH 690 0
DWIDTH 23 0
BBX 19 25 2 0
BITMAP
001000
002000
002000
002000
004000
000000
000000
000000
100100
200080
400040
400040
800020
804020
804020
804020
804020
804020
804020
804020
804020
80C020
40A040
40A040
3F1F80
ENDCHAR
STARTCHAR 0400
ENCODING 1024
SWIDTH 540 0
DWIDTH 18 0
BBX 12 31 4 0
BITMAP
1000
1000
0800
0400
0200
0000
0000
0000
FFF0
8000
8000
8000
8000
8000
8000
8000
8000
8000
8000
FFF0
8000
8000
8000
8000
8000
8000
8000
8000
8000
8000
FFF0
ENDCHAR
STARTCHAR 0401
ENCODING 1025
SWIDTH 540 0
DWIDTH 18 0
BBX 12 29 4 0
BITMAP
30C0
30C0
0000
0000
0000
0000
FFF0
8000
8000
8000
8000
8000
8000
8000
8000
8000
8000
FFF0
8000
8000
8000
8000
8000
8000
8000
8000
8000
8000
FFF0
ENDCHAR
STARTCHAR 0402
ENCODING 1026
SWIDTH 750 0
DWIDTH 25 0
BBX 22 28 1 -5
BITMAP
FFFF80
008000
008000
008000
008000
008000
008000
008000
008000
00BFC0
00C030
008008
008004
008004
008004
008004
008004
008004
008004
008004
008004
008004
008004
000004
000004
000004
000004
000078
ENDCHAR
STARTCHAR 0403
ENCODING 1027
SWIDTH 480 0
DWIDTH 16 0
BBX 11 31 4 0
BITMAP
0080
0100
0200
0400
0400
0000
0000
0000
FFE0
8000
8000
8000
8000
8000
8000
8000
8000
8000
8000
8000
8000
8000
8000
8000
8000
8000
8000
8000
8000
8000
8000
ENDCHAR
STARTCHAR 0404
ENCODING 1028
SWIDTH 600 0
DWIDTH 20 0
BBX 16 24 2 0
BITMAP
01E0
0618
1804
2002
2001
4000
4000
4000
8000
8000
8000
8000
FFF8
8000
8000
8000
8000
4000
4000
4001
2001
1002
0804
07F8
ENDCHAR
STARTCHAR 0405
ENCODING 1029
SWIDTH 540 0
DWIDTH 18 0
BBX 14 24 2 0
BITMAP
0380
3870
4008
8004
8000
8000
8000
8000
8000
4000
2000
1C00
03C0
0030
0008
0004
0004
0004
0004
0004
0004
8008
4008
3FF0
ENDCHAR
STARTCHAR 0406
ENCODING 1030
SWIDTH 360 0
DWIDTH 12 0
BBX 8 23 2 0
BITMAP
7F
08
08
08
08
08
08
08
08
08
08
08
08
08
08
08
08
08
08
08
08
08
FF
ENDCHAR
STARTCHAR 0407
ENCODING 1031
SWIDTH 360 0
DWIDTH 12 0
BBX 8 29 2 0
BITMAP
C1
41
00
00
00
00
7F
08
08
08
08
08
08
08
08
08
08
08
08
08
08
08
08
08
08
08
08
08
FF
ENDCHAR
STARTCHAR 0408
ENCODING 1032
SWIDTH 450 0
DWIDTH 15 0
BBX 11 23 1 0
BITMAP
1FE0
0020
0020
0020
0020
0020
0020
0020
0020
0020
0020
0020
0020
0020
0020
0020
0020
0020
0020
8020
8040
4040
3F80
ENDCHAR
STARTCHAR 0409
ENCODING 1033
SWIDTH 960 0
DWIDTH 32 0
BBX 31 23 0 0
BITMAP
03FF8000
02008000
02008000
02008000
02008000
02008000
02008000
02008000
02008000
02008000
0200FFF0
02008008
04008004
04008004
04008004
04008002
04008002
04008002
08008004
08008004
10008004
10008008
E000FFF0
ENDCHAR
STARTCHAR 040A
ENCODING 1034
SWIDTH 1020 0
DWIDTH 34 0
BBX 28 23 4 0
BITMAP
80020000
80020000
80020000
80020000
80020000
80020000
80020000
80020000
80020000
80020000
FFFFFE00
800200C0
80020020
80020010
80020010
80020010
80020010
80020010
80020010
80020010
80020010
80020020
8003FFC0
ENDCHAR
STARTCHAR 040B
ENCODING 1035
SWIDTH 780 0
DWIDTH 26 0
BBX 23 23 1 0
BITMAP
FFFF80
008000
008000
008000
008000
008000
008000
008000
008000
00BFE0
00C010
008008
008004
008004
008002
008002
008002
008002
008002
008002
008002
008002
008002
ENDCHAR
STARTCHAR 040C
ENCODING 1036
SWIDTH 600 0
DWIDTH 20 0
BBX 15 31 4 0
BITMAP
0080
0080
0100
0200
0400
0000
0000
0000
800C
8010
8020
8020
8040
8040
8080
8080
8100
8200
8200
FC00
8200
8100
8100
8080
8040
8040
8020
8020
8010
8008
800E
ENDCHAR
STARTCHAR 040D
ENCODING 1037
SWIDTH 690 0
DWIDTH 23 0
BBX 15 31 4 0
BITMAP
0800
0400
0200
0200
0100
0000
0000
0000
8002
8006
8006
800A
8012
8012
8022
8022
8042
8082
8082
8102
8202
8202
8402
8802
8802
9002
A002
A002
C002
8002
8002
ENDCHAR
STARTCHAR 040E
ENCODING 1038
SWIDTH 570 0
DWIDTH 19 0
BBX 17 30 1 0
BITMAP
040800
040800
021000
01E000
000000
000000
000000
800080
400100
400100
200100
200200
100200
100400
080400
080400
040800
040800
021000
021000
011000
012000
00A000
00C000
004000
004000
008000
008000
010000
0F0000
ENDCHAR
STARTCHAR 040F
ENCODING 1039
SWIDTH 660 0
DWIDTH 22 0
BBX 15 28 4 -5
BITMAP
8002
8002
8002
8002
8002
8002
8002
8002
8002
8002
8002
8002
8002
8002
8002
8002
8002
8002
8002
8002
8002
8002
FFFE
0100
0100
0100
0100
0100
ENDCHAR
STARTCHAR 0410
ENCODING 1040
SWIDTH 600 0
DWIDTH 20 0
BBX 18 23 1 0
BITMAP
00C000
00C000
012000
012000
012000
021000
021000
041000
040800
040800
080800
080400
080400
100400
100200
1FFE00
200100
200100
400100
400080
400080
800080
800040
ENDCHAR
STARTCHAR 0411
ENCODING 1041
SWIDTH 600 0
DWIDTH 20 0
BBX 14 23 4 0
BITMAP
FFF0
8000
8000
8000
8000
8000
8000
8000
8000
8000
FFE0
8018
8008
8004
8004
8004
8004
8004
8004
8008
8008
8010
FFE0
ENDCHAR
STARTCHAR 0412
ENCODING 1042
SWIDTH 600 0
DWIDTH 20 0
BBX 14 23 4 0
BITMAP
FFE0
8010
8008
8008
8008
8008
8008
8008
8008
8010
FFE0
8030
8008
8004
8004
8004
8004
8004
8004
8004
8008
8018
FFE0
ENDCHAR
STARTCHAR 0413
ENCODING 1043
SWIDTH 480 0
DWIDTH 16 0
BBX 11 23 4 0
BITMAP
FFE0
8000
8000
8000
8000
8000
8000
8000
8000
8000
8000
8000
8000
8000
8000
8000
8000
8000
8000
8000
8000
8000
8000
ENDCHAR
STARTCHAR 0414
ENCODING 1044
SWIDTH 660 0
DWIDTH 22 0
BBX 21 28 0 -5
BITMAP
03FFC0
020040
020040
020040
020040
020040
020040
020040
020040
020040
020040
040040
040040
040040
040040
040040
040040
080040
080040
080040
100040
100040
FFFFF8
800008
800008
800008
800008
800008
ENDCHAR
STARTCHAR 0415
ENCODING 1045
SWIDTH 540 0
DWIDTH 18 0
BBX 12 23 4 0
BITMAP
FFF0
8000
8000
8000
8000
8000
8000
8000
8000
8000
8000
FFF0
8000
8000
8000
8000
8000
8000
8000
8000
8000
8000
FFF0
ENDCHAR
STARTCHAR 0416
ENCODING 1046
SWIDTH 900 0
DWIDTH 30 0
BBX 28 23 1 0
BITMAP
700400E0
10040080
08040100
08040100
04040200
04040200
02040400
02040400
01040800
01040800
00841000
00FFF000
00841000
01040800
01040800
02040400
04040200
04040200
08040100
08040100
10040080
10040080
E0040070
ENDCHAR
STARTCHAR 0417
ENCODING 1047
SWIDTH 570 0
DWIDTH 19 0
BBX 15 24 2 0
BITMAP
0380
1C70
2008
4004
0004
0004
0004
0004
0004
0004
0008
0030
0FE0
0018
0004
0002
0002
0002
0002
0002
0002
8004
6008
1FF0
ENDCHAR
STARTCHAR 0418
ENCODING 1048
SWIDTH 690 0
DWIDTH 23 0
BBX 15 23 4 0
BITMAP
8002
8006
8006
800A
8012
8012
8022
8022
8042
8082
8082
8102
8202
8202
8402
8802
8802
9002
A002
A002
C002
8002
8002
ENDCHAR
STARTCHAR 0419
ENCODING 1049
SWIDTH 690 0
DWIDTH 23 0
BBX 15 30 4 0
BITMAP
1010
0820
0840
0780
0000
0000
0000
8002
8006
8006
800A
8012
8012
8022
8022
8042
8082
8082
8102
8202
8202
8402
8802
8802
9002
A002
A002
C002
8002
8002
ENDCHAR
STARTCHAR 041A
ENCODING 1050
SWIDTH 600 0
DWIDTH 20 0
BBX 15 23 4 0
BITMAP
800C
8010
8020
8020
8040
8040
8080
8080
8100
8200
8200
FC00
8200
8100
8100
8080
8040
8040
8020
8020
8010
8008
800E
ENDCHAR
STARTCHAR 041B
ENCODING 1051
SWIDTH 630 0
DWIDTH 21 0
BBX 18 23 0 0
BITMAP
03FFC0
020040
020040
020040
020040
020040
020040
020040
020040
020040
020040
020040
040040
040040
040040
040040
040040
040040
080040
080040
100040
100040
E00040
ENDCHAR
STARTCHAR 041C
ENCODING 1052
SWIDTH 780 0
DWIDTH 26 0
BBX 19 23 4 0
BITMAP
800060
C00060
C000A0
A00120
900120
900220
880220
880420
840820
820820
821020
811020
812020
80C020
804020
800020
800020
800020
800020
800020
800020
800020
800020
ENDCHAR
STARTCHAR 041D
ENCODING 1053
SWIDTH 690 0
DWIDTH 23 0
BBX 15 23 4 0
BITMAP
8002
8002
8002
8002
8002
8002
8002
8002
8002
8002
8002
FFFE
8002
8002
8002
8002
8002
8002
8002
8002
8002
8002
8002
ENDCHAR
STARTCHAR 041E
ENCODING 1054
SWIDTH 660 0
DWIDTH 22 0
BBX 18 24 2 0
BITMAP
01E000
061C00
180200
200100
200080
400080
400040
400040
800040
800040
800040
800040
800040
800040
800040
800040
800040
400040
400080
400080
200080
100100
080200
07F800
ENDCHAR
STARTCHAR 041F
ENCODING 1055
SWIDTH 660 0
DWIDTH 22 0
BBX 15 23 4 0
BITMAP
FFFE
8002
8002
8002
8002
8002
8002
8002
8002
8002
8002
8002
8002
8002
8002
8002
8002
8002
8002
8002
8002
8002
8002
ENDCHAR
STARTCHAR 0420
ENCODING 1056
SWIDTH 570 0
DWIDTH 19 0
BBX 14 23 4 0
BITMAP
FFF0
8008
8004
8004
8004
8004
8004
8004
8004
8004
8008
8070
FF80
8000
8000
8000
8000
8000
8000
8000
8000
8000
8000
ENDCHAR
STARTCHAR 0421
ENCODING 1057
SWIDTH 600 0
DWIDTH 20 0
BBX 16 24 2 0
BITMAP
01E0
0618
1804
2002
2001
4000
4000
4000
8000
8000
8000
8000
8000
8000
8000
8000
8000
4000
4000
4001
2001
1002
0804
07F8
ENDCHAR
STARTCHAR 0422
ENCODING 1058
SWIDTH 540 0
DWIDTH 18 0
BBX 17 23 1 0
BITMAP
FFFF80
008000
008000
008000
008000
008000
008000
008000
008000
008000
008000
008000
008000
008000
008000
008000
008000
008000
008000
008000
008000
008000
008000
ENDCHAR
STARTCHAR 0423
ENCODING 1059
SWIDTH 570 0
DWIDTH 19 0
BBX 17 23 1 0
BITMAP
800080
400100
400100
200100
200200
100200
100400
080400
080400
040800
040800
021000
021000
011000
012000
00A000
00C000
004000
004000
008000
008000
010000
0F0000
ENDCHAR
STARTCHAR 0424
ENCODING 1060
SWIDTH 810 0
DWIDTH 27 0
BBX 23 25 2 -1
BITMAP
001000
001000
001000
03FFC0
0C1020
101018
201008
401004
801004
801002
801002
801002
801002
801002
801002
801002
801004
401004
201008
101010
081020
07FFC0
001000
001000
001000
ENDCHAR
STARTCHAR 0425
ENCODING 1061
SWIDTH 540 0
DWIDTH 18 0
BBX 16 23 1 0
BITMAP
4001
4002
2002
1004
1008
0808
0410
0420
0220
0140
0180
0080
0140
0240
0220
0410
0810
0808
1004
2004
4002
4001
8001
ENDCHAR
STARTCHAR 0426
ENCODING 1062
SWIDTH 690 0
DWIDTH 23 0
BBX 18 28 4 -5
BITMAP
800200
800200
800200
800200
800200
800200
800200
800200
800200
800200
800200
800200
800200
800200
800200
800200
800200
800200
800200
800200
800200
800200
FFFFC0
000040
000040
000040
000040
000040
ENDCHAR
STARTCHAR 0427
ENCODING 1063
SWIDTH 600 0
DWIDTH 20 0
BBX 15 23 2 0
BITMAP
8002
8002
8002
8002
8002
8002
8002
8002
8002
4002
4002
2002
1806
03FA
0002
0002
0002
0002
0002
0002
0002
0002
0002
ENDCHAR
STARTCHAR 0428
ENCODING 1064
SWIDTH 900 0
DWIDTH 30 0
BBX 23 23 4 0
BITMAP
802002
802002
802002
802002
802002
802002
802002
802002
802002
802002
802002
802002
802002
802002
802002
802002
802002
802002
802002
802002
802002
802002
FFFFFE
ENDCHAR
STARTCHAR 0429
ENCODING 1065
SWIDTH 930 0
DWIDTH 31 0
BBX 25 28 4 -5
BITMAP
80200200
80200200
80200200
80200200
80200200
80200200
80200200
80200200
80200200
80200200
80200200
80200200
80200200
80200200
80200200
80200200
80200200
80200200
80200200
80200200
80200200
80200200
FFFFFF80
00000080
00000080
00000080
00000080
00000080
ENDCHAR
STARTCHAR 042A
ENCODING 1066
SWIDTH 720 0
DWIDTH 24 0
BBX 21 23 1 0
BITMAP
FE0000
020000
020000
020000
020000
020000
020000
020000
020000
020000
03FFE0
020010
020010
020008
020008
020008
020008
020008
020008
020008
020010
020020
03FFC0
ENDCHAR
STARTCHAR 042B
ENCODING 1067
SWIDTH 810 0
DWIDTH 27 0
BBX 20 23 4 0
BITMAP
800010
800010
800010
800010
800010
800010
800010
800010
800010
800010
FFE010
801810
800810
800410
800410
800410
800410
800410
800410
800810
800810
801010
FFE010
ENDCHAR
STARTCHAR 042C
ENCODING 1068
SWIDTH 600 0
DWIDTH 20 0
BBX 14 23 4 0
BITMAP
8000
8000
8000
8000
8000
8000
8000
8000
8000
8000
FFF0
8008
8004
8004
8004
8004
8004
8004
8004
8004
8008
8018
FFE0
ENDCHAR
STARTCHAR 042D
ENCODING 1069
SWIDTH 600 0
DWIDTH 20 0
BBX 16 24 2 0
BITMAP
0380
1C70
2008
4004
8004
0002
0002
0001
0001
0001
0001
0001
0FFF
0001
0001
0001
0001
0002
0002
8002
8004
4004
2008
1FF0
ENDCHAR
STARTCHAR 042E
ENCODING 1070
SWIDTH 900 0
DWIDTH 30 0
BBX 24 24 4 0
BITMAP
000780
803870
804008
808004
810004
810002
810002
820002
820001
820001
820001
820001
FE0001
820001
820001
820001
820002
820002
810002
810002
808004
808008
806018
801FE0
ENDCHAR
STARTCHAR 042F
ENCODING 1071
SWIDTH 630 0
DWIDTH 21 0
BBX 16 23 1 0
BITMAP
0FFF
1001
2001
2001
2001
4001
4001
2001
2001
2001
1001
0E01
01FF
0101
0201
0201
0401
0401
0801
1001
1001
2001
E001
ENDCHAR
STARTCHAR 0430
ENCODING 1072
SWIDTH 510 0
DWIDTH 17 0
BBX 15 17 2 0
BITMAP
1FC0
2020
4020
0010
0010
0010
0010
0010
1FF0
6010
8010
8010
8010
8010
8030
4050
3F9E
ENDCHAR
STARTCHAR 0431
ENCODING 1073
SWIDTH 540 0
DWIDTH 18 0
BBX 14 25 2 0
BITMAP
0078
0F80
1000
2000
4000
4000
4000
8000
8780
9820
A010
C008
8008
8004
8004
8004
8004
8004
8004
8004
8004
4008
4008
2010
1FE0
ENDCHAR
STARTCHAR 0432
ENCODING 1074
SWIDTH 540 0
DWIDTH 18 0
BBX 13 17 3 0
BITMAP
FFC0
8020
8010
8010
8010
8010
8020
8020
FFC0
8030
8010
8008
8008
8008
8010
8010
FFE0
ENDCHAR
STARTCHAR 0433
ENCODING 1075
SWIDTH 420 0
DWIDTH 14 0
BBX 10 17 3 0
BITMAP
FFC0
8000
8000
8000
8000
8000
8000
8000
8000
8000
8000
8000
8000
8000
8000
8000
8000
ENDCHAR
STARTCHAR 0434
ENCODING 1076
SWIDTH 540 0
DWIDTH 18 0
BBX 17 22 0 -5
BITMAP
07FC00
080400
080400
080400
080400
080400
080400
080400
080400
080400
080400
080400
100400
100400
100400
200400
FFFF80
800080
800080
800080
800080
800080
ENDCHAR
STARTCHAR 0435
ENCODING 1077
SWIDTH 510 0
DWIDTH 17 0
BBX 14 17 2 0
BITMAP
0FC0
3020
4010
4008
8008
8008
8004
8004
FFF8
8000
8000
8000
8000
4008
4008
2010
1FE0
ENDCHAR
STARTCHAR 0436
ENCODING 1078
SWIDTH 720 0
DWIDTH 24 0
BBX 22 17 1 0
BITMAP
60101C
101010
101020
081020
081040
041080
041080
021100
03FF00
021080
041080
041040
081040
081020
101020
101010
E0100C
ENDCHAR
STARTCHAR 0437
ENCODING 1079
SWIDTH 480 0
DWIDTH 16 0
BBX 12 17 2 0
BITMAP
1F80
6060
8020
0020
0020
0020
0020
0040
1F80
0060
0020
0010
0010
0010
8020
4020
3FC0
ENDCHAR
STARTCHAR 0438
ENCODING 1080
SWIDTH 570 0
DWIDTH 19 0
BBX 13 17 3 0
BITMAP
8008
8018
8028
8028
8048
8088
8108
8108
8208
8408
8408
8808
9008
9008
A008
C008
8008
ENDCHAR
STARTCHAR 0439
ENCODING 1081
SWIDTH 570 0
DWIDTH 19 0
BBX 13 24 3 0
BITMAP
2020
1040
0880
0700
0000
0000
0000
8008
8018
8028
8028
8048
8088
8108
8108
8208
8408
8408
8808
9008
9008
A008
C008
8008
ENDCHAR
STARTCHAR 043A
ENCODING 1082
SWIDTH 510 0
DWIDTH 17 0
BBX 13 17 3 0
BITMAP
8038
8040
8040
8080
8100
8100
8200
8400
FC00
8200
8200
8100
8080
8080
8040
8060
8038
ENDCHAR
STARTCHAR 043B
ENCODING 1083
SWIDTH 510 0
DWIDTH 17 0
BBX 14 17 0 0
BITMAP
07FC
0404
0404
0404
0404
0404
0404
0404
0804
0804
0804
0804
0804
1004
1004
1004
E004
ENDCHAR
STARTCHAR 043C
ENCODING 1084
SWIDTH 660 0
DWIDTH 22 0
BBX 16 17 3 0
BITMAP
C001
C003
A005
9005
9009
8809
8411
8421
8221
8241
8141
8081
8001
8001
8001
8001
8001
ENDCHAR
STARTCHAR 043D
ENCODING 1085
SWIDTH 570 0
DWIDTH 19 0
BBX 13 17 3 0
BITMAP
8008
8008
8008
8008
8008
8008
8008
8008
FFF8
8008
8008
8008
8008
8008
8008
8008
8008
ENDCHAR
STARTCHAR 043E
ENCODING 1086
SWIDTH 540 0
DWIDTH 18 0
BBX 14 17 2 0
BITMAP
0FC0
3030
4008
4008
8008
8004
8004
8004
8004
8004
8004
8004
8004
4008
4008
2010
1FE0
ENDCHAR
STARTCHAR 043F
ENCODING 1087
SWIDTH 540 0
DWIDTH 18 0
BBX 12 17 3 0
BITMAP
FFF0
8010
8010
8010
8010
8010
8010
8010
8010
8010
8010
8010
8010
8010
8010
8010
8010
ENDCHAR
STARTCHAR 0440
ENCODING 1088
SWIDTH 540 0
DWIDTH 18 0
BBX 14 24 3 -7
BITMAP
8FC0
B030
C010
8008
8008
8004
8004
8004
8004
8004
8004
8004
8008
8008
C010
A010
98E0
8700
8000
8000
8000
8000
8000
8000
ENDCHAR
STARTCHAR 0441
ENCODING 1089
SWIDTH 480 0
DWIDTH 16 0
BBX 13 17 2 0
BITMAP
0FC0
3020
4010
4000
8000
8000
8000
8000
8000
8000
8000
8000
8000
4000
4008
2010
1FE0
ENDCHAR
STARTCHAR 0442
ENCODING 1090
SWIDTH 450 0
DWIDTH 15 0
BBX 14 17 1 0
BITMAP
FFFC
0200
0200
0200
0200
0200
0200
0200
0200
0200
0200
0200
0200
0200
0200
0200
0200
ENDCHAR
STARTCHAR 0443
ENCODING 1091
SWIDTH 450 0
DWIDTH 15 0
BBX 13 24 1 -7
BITMAP
8008
8008
8010
4010
4010
2020
2020
2020
1040
1040
1080
0880
0880
0500
0500
0500
0200
0200
0400
0400
0400
0800
0800
7000
ENDCHAR
STARTCHAR 0444
ENCODING 1092
SWIDTH 720 0
DWIDTH 24 0
BBX 20 29 2 -6
BITMAP
004000
004000
004000
004000
004000
004000
1F4F80
20D060
406020
802020
804010
804010
804010
804010
804010
804010
804010
804010
804010
802010
406020
40D020
3148C0
0E4700
004000
004000
004000
004000
004000
ENDCHAR
STARTCHAR 0445
ENCODING 1093
SWIDTH 450 0
DWIDTH 15 0
BBX 13 17 1 0
BITMAP
0008
4010
2010
1020
1040
0880
0480
0500
0200
0500
0480
0880
1040
1020
2010
4010
8008
ENDCHAR
STARTCHAR 0446
ENCODING 1094
SWIDTH 570 0
DWIDTH 19 0
BBX 15 22 3 -5
BITMAP
8000
8010
8010
8010
8010
8010
8010
8010
8010
8010
8010
8010
8010
8010
8010
8010
FFFE
0002
0002
0002
0002
0002
ENDCHAR
STARTCHAR 0447
ENCODING 1095
SWIDTH 510 0
DWIDTH 17 0
BBX 12 17 2 0
BITMAP
8010
8010
8010
8010
8010
8010
8010
8010
4030
20D0
1F10
0010
0010
0010
0010
0010
0010
ENDCHAR
STARTCHAR 0448
ENCODING 1096
SWIDTH 750 0
DWIDTH 25 0
BBX 19 17 3 0
BITMAP
800000
804020
804020
804020
804020
804020
804020
804020
804020
804020
804020
804020
804020
804020
804020
804020
FFFFE0
ENDCHAR
STARTCHAR 0449
ENCODING 1097
SWIDTH 780 0
DWIDTH 26 0
BBX 22 22 3 -5
BITMAP
800000
804020
804020
804020
804020
804020
804020
804020
804020
804020
804020
804020
804020
804020
804020
804020
FFFFFC
000004
000004
000004
000004
000004
ENDCHAR
STARTCHAR 044A
ENCODING 1098
SWIDTH 570 0
DWIDTH 19 0
BBX 17 17 1 0
BITMAP
FC0000
040000
040000
040000
040000
040000
040000
07F800
040600
040100
040100
040080
040080
040100
040100
040300
07FC00
ENDCHAR
STARTCHAR 044B
ENCODING 1099
SWIDTH 660 0
DWIDTH 22 0
BBX 16 17 3 0
BITMAP
8001
8001
8001
8001
8001
8001
8001
FF01
80C1
8021
8021
8021
8021
8021
8021
8041
FF81
ENDCHAR
STARTCHAR 044C
ENCODING 1100
SWIDTH 480 0
DWIDTH 16 0
BBX 12 17 3 0
BITMAP
8000
8000
8000
8000
8000
8000
8000
FF80
8060
8020
8010
8010
8010
8010
8010
8020
FF80
ENDCHAR
STARTCHAR 044D
ENCODING 1101
SWIDTH 480 0
DWIDTH 16 0
BBX 13 17 2 0
BITMAP
3F80
4040
8020
0010
0010
0010
0010
0008
1FF8
0008
0010
0010
0010
0010
8020
4040
3F80
ENDCHAR
STARTCHAR 044E
ENCODING 1102
SWIDTH 720 0
DWIDTH 24 0
BBX 19 17 3 0
BITMAP
807F00
808080
810040
810020
820020
820020
820020
820020
FE0020
820020
820020
820020
820020
820020
810040
808080
807F00
ENDCHAR
STARTCHAR 044F
ENCODING 1103
SWIDTH 510 0
DWIDTH 17 0
BBX 13 17 1 0
BITMAP
0FF8
1008
2008
4008
4008
4008
4008
2008
3008
0FF8
0408
0408
0808
0808
1008
2008
E008
ENDCHAR
STARTCHAR 0450
ENCODING 1104
SWIDTH 510 0
DWIDTH 17 0
BBX 14 25 2 0
BITMAP
0800
0800
0400
0200
0100
0000
0000
0000
0FC0
3020
4010
4008
8008
8008
8004
8004
FFF8
8000
8000
8000
8000
4008
4008
2010
1FE0
ENDCHAR
STARTCHAR 0451
ENCODING 1105
SWIDTH 510 0
DWIDTH 17 0
BBX 14 23 2 0
BITMAP
1860
0000
0000
0000
0000
0000
0FC0
3020
4010
4008
8008
8008
8004
8004
FFF8
8000
8000
8000
8000
4008
4008
2010
1FE0
ENDCHAR
STARTCHAR 0452
ENCODING 1106
SWIDTH 540 0
DWIDTH 18 0
BBX 14 31 1 -6
BITMAP
2000
2000
FF80
2000
2000
2000
2000
27F0
2808
1004
1004
2004
2004
2004
2004
2004
2004
2004
2004
2004
2004
2004
2004
2004
0004
0004
0004
0004
0004
0004
001C
ENDCHAR
STARTCHAR 0453
ENCODING 1107
SWIDTH 420 0
DWIDTH 14 0
BBX 10 25 3 0
BITMAP
0080
0100
0200
0400
0400
0000
0000
0000
FFC0
8000
8000
8000
8000
8000
8000
8000
8000
8000
8000
8000
8000
8000
8000
8000
8000
ENDCHAR
STARTCHAR 0454
ENCODING 1108
SWIDTH 480 0
DWIDTH 16 0
BBX 13 17 2 0
BITMAP
0FC0
3020
4010
4000
8000
8000
8000
8000
FFC0
8000
8000
8000
8000
4000
4008
2010
1FE0
ENDCHAR
STARTCHAR 0455
ENCODING 1109
SWIDTH 450 0
DWIDTH 15 0
BBX 11 17 2 0
BITMAP
3F80
4040
8020
8000
8000
8000
4000
2000
1700
00C0
0020
0020
0020
0020
8020
4020
3FC0
ENDCHAR
STARTCHAR 0456
ENCODING 1110
SWIDTH 210 0
DWIDTH 7 0
BBX 2 24 3 0
BITMAP
C0
00
00
00
00
00
00
80
80
80
80
80
80
80
80
80
80
80
80
80
80
80
80
80
ENDCHAR
STARTCHAR 0457
ENCODING 1111
SWIDTH 210 0
DWIDTH 7 0
BBX 8 23 0 0
BITMAP
C3
00
00
00
00
00
10
10
10
10
10
10
10
10
10
10
10
10
10
10
10
10
10
ENDCHAR
STARTCHAR 0458
ENCODING 1112
SWIDTH 210 0
DWIDTH 7 0
BBX 4 31 1 -7
BITMAP
30
00
00
00
00
00
00
20
20
20
20
20
20
20
20
20
20
20
20
20
20
20
20
20
20
20
20
20
20
20
E0
ENDCHAR
STARTCHAR 0459
ENCODING 1113
SWIDTH 750 0
DWIDTH 25 0
BBX 24 17 0 0
BITMAP
07F800
040800
040800
040800
040800
040800
040800
0407F0
08080C
080802
080802
080801
080801
100802
100802
100804
E007F8
ENDCHAR
STARTCHAR 045A
ENCODING 1114
SWIDTH 780 0
DWIDTH 26 0
BBX 22 17 3 0
BITMAP
801000
801000
801000
801000
801000
801000
801000
801000
FFFFF0
801008
801004
801004
801004
801004
801008
801008
801FF0
ENDCHAR
STARTCHAR 045B
ENCODING 1115
SWIDTH 540 0
DWIDTH 18 0
BBX 14 24 1 1
BITMAP
2000
2000
FF80
2000
2000
2000
2000
27F0
2808
1004
1004
2004
2004
2004
2004
2004
2004
2004
2004
2004
2004
2004
2004
2004
ENDCHAR
STARTCHAR 045C
ENCODING 1116
SWIDTH 510 0
DWIDTH 17 0
BBX 13 25 3 0
BITMAP
0080
0100
0100
0200
0400
0000
0000
0000
8038
8040
8040
8080
8100
8100
8200
8400
FC00
8200
8200
8100
8080
8080
8040
8060
8038
ENDCHAR
STARTCHAR 045D
ENCODING 1117
SWIDTH 570 0
DWIDTH 19 0
BBX 13 25 3 0
BITMAP
1000
0800
0400
0400
0200
0000
0000
0000
8008
8018
8028
8028
8048
8088
8108
8108
8208
8408
8408
8808
9008
9008
A008
C008
8008
ENDCHAR
STARTCHAR 045E
ENCODING 1118
SWIDTH 450 0
DWIDTH 15 0
BBX 13 31 1 -7
BITMAP
2020
1040
0840
0780
0000
0000
0000
8008
8008
8010
4010
4010
2020
2020
2020
1040
1040
1080
0880
0880
0500
0500
0500
0200
0200
0400
0400
0400
0800
0800
7000
ENDCHAR
STARTCHAR 045F
ENCODING 1119
SWIDTH 540 0
DWIDTH 18 0
BBX 12 22 3 -5
BITMAP
8000
8010
8010
8010
8010
8010
8010
8010
8010
8010
8010
8010
8010
8010
8010
8010
FFF0
0200
0200
0200
0200
0200
ENDCHAR
STARTCHAR 0472
ENCODING 1138
SWIDTH 660 0
DWIDTH 22 0
BBX 18 24 2 0
BITMAP
01E000
061C00
180200
200100
200080
400080
400040
400040
800040
800040
800040
800040
FFFFC0
800040
800040
800040
800040
400040
400080
400080
200080
100100
080200
07F800
ENDCHAR
STARTCHAR 0473
ENCODING 1139
SWIDTH 540 0
DWIDTH 18 0
BBX 14 17 2 0
BITMAP
0FC0
3030
4008
4008
8008
8004
8004
8004
FFFC
8004
8004
8004
8004
4008
4008
2010
1FE0
ENDCHAR
STARTCHAR 0490
ENCODING 1168
SWIDTH 480 0
DWIDTH 16 0
BBX 11 28 4 0
BITMAP
0020
0020
0020
0020
0020
FFC0
8000
8000
8000
8000
8000
8000
8000
8000
8000
8000
8000
8000
8000
8000
8000
8000
8000
8000
8000
8000
8000
8000
ENDCHAR
STARTCHAR 0491
ENCODING 1169
SWIDTH 420 0
DWIDTH 14 0
BBX 10 21 3 1
BITMAP
0040
0040
0040
0040
FFC0
8000
8000
8000
8000
8000
8000
8000
8000
8000
8000
8000
8000
8000
8000
8000
8000
ENDCHAR
STARTCHAR 0492
ENCODING 1170
SWIDTH 510 0
DWIDTH 17 0
BBX 15 23 1 0
BITMAP
1FFE
1000
1000
1000
1000
1000
1000
1000
1000
1000
FFE0
1000
1000
1000
1000
1000
1000
1000
1000
1000
1000
1000
1000
ENDCHAR
STARTCHAR 0493
ENCODING 1171
SWIDTH 450 0
DWIDTH 15 0
BBX 13 17 1 0
BITMAP
1FF8
1000
1000
1000
1000
1000
1000
1000
FF80
1000
1000
1000
1000
1000
1000
1000
1000
ENDCHAR
STARTCHAR 0494
ENCODING 1172
SWIDTH 600 0
DWIDTH 20 0
BBX 14 28 4 -5
BITMAP
FFC0
8000
8000
8000
8000
8000
8000
8000
8000
8000
BF00
C060
8018
8008
8004
8004
8004
8004
8004
8004
8004
8004
8004
0004
0004
0004
0008
00F8
ENDCHAR
STARTCHAR 0495
ENCODING 1173
SWIDTH 510 0
DWIDTH 17 0
BBX 12 24 3 -7
BITMAP
FFC0
8000
8000
8000
8000
8000
8000
8000
9FC0
A020
C010
8010
8010
8010
8010
8010
8010
0010
0010
0010
0010
0010
0010
01E0
ENDCHAR
STARTCHAR 0496
ENCODING 1174
SWIDTH 900 0
DWIDTH 30 0
BBX 28 28 1 -5
BITMAP
700400E0
10040080
08040100
08040100
04040200
04040200
02040400
02040400
01040800
01040800
00841000
00FFF000
00841000
01040800
01040800
02040400
04040200
04040200
08040100
08040100
10040080
10040080
E0040070
00000010
00000010
00000010
00000010
00000010
ENDCHAR
STARTCHAR 0497
ENCODING 1175
SWIDTH 720 0
DWIDTH 24 0
BBX 23 22 1 -5
BITMAP
60101C
101010
101020
081020
081040
041080
041080
021100
03FF00
021080
041080
041040
081040
081020
101020
101010
E0100E
000002
000002
000002
000002
000002
ENDCHAR
STARTCHAR 0498
ENCODING 1176
SWIDTH 570 0
DWIDTH 19 0
BBX 15 29 2 -5
BITMAP
0380
1C70
2008
4004
0004
0004
0004
0004
0004
0004
0008
0030
0FE0
0018
0004
0002
0002
0002
0002
0002
0002
8004
6008
1870
0780
0100
0100
0100
0100
ENDCHAR
STARTCHAR 0499
ENCODING 1177
SWIDTH 480 0
DWIDTH 16 0
BBX 12 22 2 -5
BITMAP
1F80
6060
8020
0020
0020
0020
0020
0040
1F80
0060
0020
0010
0010
0010
8020
4020
30C0
0F00
0400
0400
0400
0400
ENDCHAR
STARTCHAR 049A
ENCODING 1178
SWIDTH 600 0
DWIDTH 20 0
BBX 15 28 4 -5
BITMAP
800C
8010
8020
8020
8040
8040
8080
8080
8100
8200
8200
FC00
8200
8100
8100
8080
8040
8040
8020
8020
8010
8008
800E
0002
0002
0002
0002
0002
ENDCHAR
STARTCHAR 049B
ENCODING 1179
SWIDTH 510 0
DWIDTH 17 0
BBX 13 21 3 -5
BITMAP
8038
8040
8040
8080
8100
8100
8200
8400
FC00
8200
8200
8100
8080
8080
8040
8060
8038
0008
0008
0008
0008
ENDCHAR
STARTCHAR 049C
ENCODING 1180
SWIDTH 600 0
DWIDTH 20 0
BBX 15 23 4 0
BITMAP
800E
8010
8010
8020
8020
9040
9080
9080
9100
9100
9200
FE00
9200
9100
9080
9080
9040
8020
8020
8010
8010
8008
8006
ENDCHAR
STARTCHAR 049D
ENCODING 1181
SWIDTH 540 0
DWIDTH 18 0
BBX 14 17 3 0
BITMAP
8018
8020
8040
9040
9080
9100
9100
9200
FE00
9200
9100
9080
9080
8040
8020
8020
801C
ENDCHAR
STARTCHAR 04A0
ENCODING 1184
SWIDTH 720 0
DWIDTH 24 0
BBX 22 23 1 0
BITMAP
FE0018
020020
020040
020040
020080
020080
020100
020200
020200
020400
020400
03F800
020400
020200
020200
020100
020100
020080
020040
020040
020020
020020
02001C
ENDCHAR
STARTCHAR 04A1
ENCODING 1185
SWIDTH 570 0
DWIDTH 19 0
BBX 18 17 1 0
BITMAP
FC0180
040200
040400
040400
040800
041000
041000
042000
07E000
042000
041000
040800
040800
040400
040400
040200
0401C0
ENDCHAR
STARTCHAR 04A2
ENCODING 1186
SWIDTH 720 0
DWIDTH 24 0
BBX 18 28 4 -5
BITMAP
800200
800200
800200
800200
800200
800200
800200
800200
800200
800200
800200
FFFE00
800200
800200
800200
800200
800200
800200
800200
800200
800200
800200
8001C0
000040
000040
000040
000040
000040
ENDCHAR
STARTCHAR 04A3
ENCODING 1187
SWIDTH 570 0
DWIDTH 19 0
BBX 15 22 3 -5
BITMAP
8008
8008
8008
8008
8008
8008
8008
8008
FFF8
8008
8008
8008
8008
8008
8008
8008
800E
0002
0002
0002
0002
0002
ENDCHAR
STARTCHAR 04A4
ENCODING 1188
SWIDTH 930 0
DWIDTH 31 0
BBX 25 23 4 0
BITMAP
8003FF80
80020000
80020000
80020000
80020000
80020000
80020000
80020000
80020000
80020000
80020000
FFFE0000
80020000
80020000
80020000
80020000
80020000
80020000
80020000
80020000
80020000
80020000
80020000
ENDCHAR
STARTCHAR 04A5
ENCODING 1189
SWIDTH 750 0
DWIDTH 25 0
BBX 21 17 3 0
BITMAP
801FF8
801000
801000
801000
801000
801000
801000
801000
FFF000
801000
801000
801000
801000
801000
801000
801000
801000
ENDCHAR
STARTCHAR 04AA
ENCODING 1194
SWIDTH 600 0
DWIDTH 20 0
BBX 16 29 2 -5
BITMAP
01E0
0618
1804
2002
2001
4000
4000
4000
8000
8000
8000
8000
8000
8000
8000
8000
8000
4000
4000
4001
2001
1002
0804
0618
01E0
0080
0080
0080
0080
ENDCHAR
STARTCHAR 04AB
ENCODING 1195
SWIDTH 480 0
DWIDTH 16 0
BBX 13 21 2 -5
BITMAP
0FC0
3020
4010
4000
8000
8000
8000
8000
8000
8000
8000
8000
8000
4000
4008
2010
1860
0780
0200
0200
0200
ENDCHAR
STARTCHAR 04AE
ENCODING 1198
SWIDTH 540 0
DWIDTH 18 0
BBX 16 23 1 0
BITMAP
8001
4002
4002
2004
2004
1008
0810
0810
0420
0420
0240
0140
0180
0100
0100
0100
0100
0100
0100
0100
0100
0100
0100
ENDCHAR
STARTCHAR 04AF
ENCODING 1199
SWIDTH 450 0
DWIDTH 15 0
BBX 13 24 1 -7
BITMAP
8008
8008
8010
4010
4010
2020
2020
2040
1040
1040
1080
0880
0880
0500
0500
0600
0200
0200
0200
0200
0200
0200
0200
0200
ENDCHAR
STARTCHAR 04B0
ENCODING 1200
SWIDTH 540 0
DWIDTH 18 0
BBX 16 23 1 0
BITMAP
8001
4002
4002
2004
2004
1008
0810
0810
0420
0420
0240
0140
0180
3FFE
0100
0100
0100
0100
0100
0100
0100
0100
0100
ENDCHAR
STARTCHAR 04B1
ENCODING 1201
SWIDTH 450 0
DWIDTH 15 0
BBX 13 24 1 -7
BITMAP
8008
8008
8010
4010
4010
2020
2020
2040
1040
1040
1080
0880
0880
0500
0500
0600
0200
3FE0
0200
0200
0200
0200
0200
0200
ENDCHAR
STARTCHAR 04B2
ENCODING 1202
SWIDTH 570 0
DWIDTH 19 0
BBX 19 28 1 -5
BITMAP
400100
400200
200200
100400
100800
080800
041000
042000
022000
014000
018000
008000
014000
024000
022000
041000
081000
080800
100400
200400
400200
400100
8001E0
000020
000020
000020
000020
000020
ENDCHAR
STARTCHAR 04B3
ENCODING 1203
SWIDTH 480 0
DWIDTH 16 0
BBX 15 21 1 -5
BITMAP
0008
4010
2010
1020
1040
0880
0480
0500
0200
0500
0480
0880
1040
1020
2010
4010
800E
0002
0002
0002
0002
ENDCHAR
STARTCHAR 04B6
ENCODING 1206
SWIDTH 630 0
DWIDTH 21 0
BBX 18 28 2 -5
BITMAP
800200
800200
800200
800200
800200
800200
800200
800200
800200
400200
400200
200200
180600
03FA00
000200
000200
000200
000200
000200
000200
000200
000200
0003C0
000040
000040
000040
000040
000040
ENDCHAR
STARTCHAR 04B7
ENCODING 1207
SWIDTH 510 0
DWIDTH 17 0
BBX 14 21 2 -5
BITMAP
8010
8010
8010
8010
8010
8010
8010
8010
4030
20D0
1F10
0010
0010
0010
0010
0010
001C
0004
0004
0004
0004
ENDCHAR
STARTCHAR 04B8
ENCODING 1208
SWIDTH 600 0
DWIDTH 20 0
BBX 15 23 2 0
BITMAP
8002
8002
8002
8002
8002
8002
8002
8102
8102
4102
4102
2102
1906
07FA
0102
0102
0102
0102
0102
0002
0002
0002
0002
ENDCHAR
STARTCHAR 04B9
ENCODING 1209
SWIDTH 510 0
DWIDTH 17 0
BBX 12 17 2 0
BITMAP
8010
8010
8010
8010
8010
8410
8410
8410
4430
24D0
1F10
0410
0410
0010
0010
0010
0010
ENDCHAR
STARTCHAR 04BA
ENCODING 1210
SWIDTH 600 0
DWIDTH 20 0
BBX 14 23 4 0
BITMAP
8000
8000
8000
8000
8000
8000
8000
8000
8000
BFC0
C030
8008
8004
8004
8004
8004
8004
8004
8004
8004
8004
8004
8004
ENDCHAR
STARTCHAR 04BB
ENCODING 1211
SWIDTH 540 0
DWIDTH 18 0
BBX 12 25 3 0
BITMAP
8000
8000
8000
8000
8000
8000
8000
8000
9FC0
A020
C010
8010
8010
8010
8010
8010
8010
8010
8010
8010
8010
8010
8010
8010
8010
ENDCHAR
STARTCHAR 04C0
ENCODING 1216
SWIDTH 360 0
DWIDTH 12 0
BBX 8 23 2 0
BITMAP
7F
08
08
08
08
08
08
08
08
08
08
08
08
08
08
08
08
08
08
08
08
08
FF
ENDCHAR
STARTCHAR 04C1
ENCODING 1217
SWIDTH 900 0
DWIDTH 30 0
BBX 28 30 1 0
BITMAP
00204000
00204000
00108000
000F0000
00000000
00000000
00000000
700400E0
10040080
08040100
08040100
04040200
04040200
02040400
02040400
01040800
01040800
00841000
00FFF000
00841000
01040800
01040800
02040400
04040200
04040200
08040100
08040100
10040080
10040080
E0040070
ENDCHAR
STARTCHAR 04C2
ENCODING 1218
SWIDTH 720 0
DWIDTH 24 0
BBX 22 24 1 0
BITMAP
010200
010200
008400
007800
000000
000000
000000
60101C
101010
101020
081020
081040
041080
041080
021100
03FF00
021080
041080
041040
081040
081020
101020
101010
E0100C
ENDCHAR
STARTCHAR 04CF
ENCODING 1231
SWIDTH 210 0
DWIDTH 7 0
BBX 1 25 3 0
BITMAP
80
80
80
80
80
80
80
80
80
80
80
80
80
80
80
80
80
80
80
80
80
80
80
80
80
ENDCHAR
STARTCHAR 04D0
ENCODING 1232
SWIDTH 600 0
DWIDTH 20 0
BBX 18 30 1 0
BITMAP
040800
040800
021000
01E000
000000
000000
000000
00C000
00C000
012000
012000
012000
021000
021000
041000
040800
040800
080800
080400
080400
100400
100200
1FFE00
200100
200100
400100
400080
400080
800080
800040
ENDCHAR
STARTCHAR 04D1
ENCODING 1233
SWIDTH 510 0
DWIDTH 17 0
BBX 15 24 2 0
BITMAP
2040
1040
1080
0F00
0000
0000
0000
1FC0
2020
4020
0010
0010
0010
0010
0010
1FF0
6010
8010
8010
8010
8010
8030
4050
3F9E
ENDCHAR
STARTCHAR 04D2
ENCODING 1234
SWIDTH 600 0
DWIDTH 20 0
BBX 18 29 1 0
BITMAP
061800
061800
000000
000000
000000
000000
00C000
00C000
012000
012000
012000
021000
021000
041000
040800
040800
080800
080400
080400
100400
100200
1FFE00
200100
200100
400100
400080
400080
800080
800040
ENDCHAR
STARTCHAR 04D3
ENCODING 1235
SWIDTH 510 0
DWIDTH 17 0
BBX 15 23 2 0
BITMAP
1040
1040
0000
0000
0000
0000
1FC0
2020
4020
0010
0010
0010
0010
0010
1FF0
6010
8010
8010
8010
8010
8030
4050
3F9E
ENDCHAR
STARTCHAR 04D4
ENCODING 1236
SWIDTH 840 0
DWIDTH 28 0
BBX 26 23 0 0
BITMAP
000FFFC0
000C0000
00140000
00140000
00240000
00440000
00440000
00840000
00840000
01040000
01040000
0203FFC0
02040000
04040000
04040000
0BFC0000
10040000
10040000
20040000
20040000
40040000
40040000
8003FFC0
ENDCHAR
STARTCHAR 04D5
ENCODING 1237
SWIDTH 840 0
DWIDTH 28 0
BBX 25 17 2 0
BITMAP
1F81F800
60460400
40280200
00280100
00100100
00100100
00100080
00100080
3FFFFF00
40100000
80100000
80100000
80100000
80280100
80280100
40440200
3F83FC00
ENDCHAR
STARTCHAR 04D6
ENCODING 1238
SWIDTH 540 0
DWIDTH 18 0
BBX 12 30 4 0
BITMAP
2040
2040
1080
0F00
0000
0000
0000
FFF0
8000
8000
8000
8000
8000
8000
8000
8000
8000
8000
FFF0
8000
8000
8000
8000
8000
8000
8000
8000
8000
8000
FFF0
ENDCHAR
STARTCHAR 04D7
ENCODING 1239
SWIDTH 510 0
DWIDTH 17 0
BBX 14 24 2 0
BITMAP
1020
1020
0840
0780
0000
0000
0000
0FC0
3020
4010
4008
8008
8008
8004
8004
FFF8
8000
8000
8000
8000
4008
4008
2010
1FE0
ENDCHAR
STARTCHAR 04D8
ENCODING 1240
SWIDTH 660 0
DWIDTH 22 0
BBX 18 24 2 0
BITMAP
00E000
071C00
180200
200100
200080
400080
400040
000040
000040
000040
000040
000040
FFFFC0
800040
800040
800040
800040
400040
400080
400080
200080
100100
080200
07F800
ENDCHAR
STARTCHAR 04D9
ENCODING 1241
SWIDTH 510 0
DWIDTH 17 0
BBX 14 17 2 0
BITMAP
1FC0
2020
4010
8008
0008
0008
0004
0004
0004
FFFC
8004
8004
8008
4008
4010
2010
1FE0
ENDCHAR
STARTCHAR 04DC
ENCODING 1244
SWIDTH 900 0
DWIDTH 30 0
BBX 28 29 1 0
BITMAP
0030C000
0030C000
00000000
00000000
00000000
00000000
700400E0
10040080
08040100
08040100
04040200
04040200
02040400
02040400
01040800
01040800
00841000
00FFF000
00841000
01040800
01040800
02040400
04040200
04040200
08040100
08040100
10040080
10040080
E0040070
ENDCHAR
STARTCHAR 04DD
ENCODING 1245
SWIDTH 720 0
DWIDTH 24 0
BBX 22 23 1 0
BITMAP
008200
008200
000000
000000
000000
000000
60101C
101010
101020
081020
081040
041080
041080
021100
03FF00
021080
041080
041040
081040
081020
101020
101010
E0100C
ENDCHAR
STARTCHAR 04DE
ENCODING 1246
SWIDTH 570 0
DWIDTH 19 0
BBX 15 29 2 0
BITMAP
0820
0820
0000
0000
0000
0380
1C70
2008
4004
0004
0004
0004
0004
0004
0004
0008
0030
0FE0
0018
0004
0002
0002
0002
0002
0002
0002
8004
6008
1FF0
ENDCHAR
STARTCHAR 04DF
ENCODING 1247
SWIDTH 480 0
DWIDTH 16 0
BBX 12 23 2 0
BITMAP
30C0
0000
0000
0000
0000
0000
1F80
6060
8020
0020
0020
0020
0020
0040
1F80
0060
0020
0010
0010
0010
8020
4020
3FC0
ENDCHAR
STARTCHAR 04E2
ENCODING 1250
SWIDTH 690 0
DWIDTH 23 0
BBX 15 29 4 0
BITMAP
1FF0
0000
0000
0000
0000
0000
8002
8006
8006
800A
8012
8012
8022
8022
8042
8082
8082
8102
8202
8202
8402
8802
8802
9002
A002
A002
C002
8002
8002
ENDCHAR
STARTCHAR 04E3
ENCODING 1251
SWIDTH 570 0
DWIDTH 19 0
BBX 13 23 3 0
BITMAP
3FE0
0000
0000
0000
0000
0000
8008
8018
8028
8028
8048
8088
8108
8108
8208
8408
8408
8808
9008
9008
A008
C008
8008
ENDCHAR
STARTCHAR 04E4
ENCODING 1252
SWIDTH 690 0
DWIDTH 23 0
BBX 15 29 4 0
BITMAP
0820
0820
0000
0000
0000
0000
8002
8006
8006
800A
8012
8012
8022
8022
8042
8082
8082
8102
8202
8202
8402
8802
8802
9002
A002
A002
C002
8002
8002
ENDCHAR
STARTCHAR 04E5
ENCODING 1253
SWIDTH 570 0
DWIDTH 19 0
BBX 13 23 3 0
BITMAP
1040
1040
0000
0000
0000
0000
8008
8018
8028
8028
8048
8088
8108
8108
8208
8408
8408
8808
9008
9008
A008
C008
8008
ENDCHAR
STARTCHAR 04E6
ENCODING 1254
SWIDTH 660 0
DWIDTH 22 0
BBX 18 29 2 0
BITMAP
020800
020800
000000
000000
000000
01E000
061C00
180200
200100
200080
400080
400040
400040
800040
800040
800040
800040
800040
800040
800040
800040
800040
400040
400080
400080
200080
100100
080200
07F800
ENDCHAR
STARTCHAR 04E7
ENCODING 1255
SWIDTH 540 0
DWIDTH 18 0
BBX 14 23 2 0
BITMAP
1860
0020
0000
0000
0000
0000
0FC0
3030
4008
4008
8008
8004
8004
8004
8004
8004
8004
8004
8004
4008
4008
2010
1FE0
ENDCHAR
STARTCHAR 04E8
ENCODING 1256
SWIDTH 660 0
DWIDTH 22 0
BBX 18 24 2 0
BITMAP
01E000
061C00
180200
200100
200080
400080
400040
400040
800040
800040
800040
800040
FFFFC0
800040
800040
800040
800040
400040
400080
400080
200080
100100
080200
07F800
ENDCHAR
STARTCHAR 04E9
ENCODING 1257
SWIDTH 540 0
DWIDTH 18 0
BBX 14 17 2 0
BITMAP
0FC0
3030
4008
4008
8008
8004
8004
8004
FFFC
8004
8004
8004
8004
4008
4008
2010
1FE0
ENDCHAR
STARTCHAR 04EE
ENCODING 1262
SWIDTH 570 0
DWIDTH 19 0
BBX 17 29 1 0
BITMAP
07F800
000000
000000
000000
000000
000000
800080
400100
400100
200100
200200
100200
100400
080400
080400
040800
040800
021000
021000
011000
012000
00A000
00C000
004000
004000
008000
008000
010000
0F0000
ENDCHAR
STARTCHAR 04EF
ENCODING 1263
SWIDTH 450 0
DWIDTH 15 0
BBX 13 30 1 -7
BITMAP
3FE0
0000
0000
0000
0000
0000
8008
8008
8010
4010
4010
2020
2020
2020
1040
1040
1080
0880
0880
0500
0500
0500
0200
0200
0400
0400
0400
0800
0800
7000
ENDCHAR
STARTCHAR 04F0
ENCODING 1264
SWIDTH 570 0
DWIDTH 19 0
BBX 17 29 1 0
BITMAP
061800
061800
000000
000000
000000
000000
800080
400100
400100
200100
200200
100200
100400
080400
080400
040800
040800
021000
021000
011000
012000
00A000
00C000
004000
004000
008000
008000
010000
0F0000
ENDCHAR
STARTCHAR 04F1
ENCODING 1265
SWIDTH 450 0
DWIDTH 15 0
BBX 13 30 1 -7
BITMAP
1040
1040
0000
0000
0000
0000
8008
8008
8010
4010
4010
2020
2020
2020
1040
1040
1080
0880
0880
0500
0500
0500
0200
0200
0400
0400
0400
0800
0800
7000
ENDCHAR
STARTCHAR 04F2
ENCODING 1266
SWIDTH 570 0
DWIDTH 19 0
BBX 17 31 1 0
BITMAP
004200
008200
008400
010800
021000
000000
000000
000000
800080
400100
400100
200100
200200
100200
100400
080400
080400
040800
040800
021000
021000
011000
012000
00A000
00C000
004000
004000
008000
008000
010000
0F0000
ENDCHAR
STARTCHAR 04F3
ENCODING 1267
SWIDTH 450 0
DWIDTH 15 0
BBX 13 32 1 -7
BITMAP
0108
0210
0410
0820
0840
0000
0000
0000
8008
8008
8010
4010
4010
2020
2020
2020
1040
1040
1080
0880
0880
0500
0500
0500
0200
0200
0400
0400
0400
0800
0800
7000
ENDCHAR
STARTCHAR 04F4
ENCODING 1268
SWIDTH 600 0
DWIDTH 20 0
BBX 15 29 2 0
BITMAP
0820
0820
0000
0000
0000
0000
8002
8002
8002
8002
8002
8002
8002
8002
8002
4002
4002
2002
1806
03FA
0002
0002
0002
0002
0002
0002
0002
0002
0002
ENDCHAR
STARTCHAR 04F5
ENCODING 1269
SWIDTH 510 0
DWIDTH 17 0
BBX 12 23 2 0
BITMAP
30C0
0080
0000
0000
0000
0000
8010
8010
8010
8010
8010
8010
8010
8010
4030
20D0
1F10
0010
0010
0010
0010
0010
0010
ENDCHAR
STARTCHAR 04F8
ENCODING 1272
SWIDTH 810 0
DWIDTH 27 0
BBX 20 29 4 0
BITMAP
020800
020800
000000
000000
000000
000000
800010
800010
800010
800010
800010
800010
800010
800010
800010
800010
FFE010
801810
800810
800410
800410
800410
800410
800410
800410
800810
800810
801010
FFE010
ENDCHAR
STARTCHAR 04F9
ENCODING 1273
SWIDTH 660 0
DWIDTH 22 0
BBX 16 23 3 0
BITMAP
0C10
0010
0000
0000
0000
0000
8001
8001
8001
8001
8001
8001
8001
FF01
80C1
8021
8021
8021
8021
8021
8021
8041
FF81
ENDCHAR
STARTCHAR 0E3F
ENCODING 3647
SWIDTH 600 0
DWIDTH 20 0
BBX 14 28 4 -3
BITMAP
0400
0400
0400
FF00
8460
8410
8408
8408
8408
8408
8408
8410
8410
FFE0
8430
8408
8408
8404
8404
8404
8404
8404
8408
8408
8470
7F80
0400
0400
ENDCHAR
STARTCHAR 1E80
ENCODING 7808
SWIDTH 870 0
DWIDTH 29 0
BBX 27 31 1 0
BITMAP
00200000
00100000
00080000
00080000
00040000
00000000
00000000
00000000
80040020
800A0020
400A0040
400A0040
40120040
40110040
20110080
20110080
20208080
20208100
10208100
10408100
10404100
10404200
08404200
08804200
08802200
08802400
05002400
05001400
05001400
03001800
02000800
ENDCHAR
STARTCHAR 1E81
ENCODING 7809
SWIDTH 720 0
DWIDTH 24 0
BBX 22 25 1 0
BITMAP
008000
004000
004000
002000
001000
000000
000000
000000
801004
803004
403008
404808
404808
204810
208810
208410
208420
110420
110220
110220
090240
0A0140
0A0140
060180
040080
ENDCHAR
STARTCHAR 1E82
ENCODING 7810
SWIDTH 870 0
DWIDTH 29 0
BBX 27 31 1 0
BITMAP
00008000
00010000
00020000
00040000
00040000
00000000
00000000
00000000
80040020
800A0020
400A0040
400A0040
40120040
40110040
20110080
20110080
20208080
20208100
10208100
10408100
10404100
10404200
08404200
08804200
08802200
08802400
05002400
05001400
05001400
03001800
02000800
ENDCHAR
STARTCHAR 1E83
ENCODING 7811
SWIDTH 720 0
DWIDTH 24 0
BBX 22 25 1 0
BITMAP
000400
000800
000800
001000
002000
000000
000000
000000
801004
803004
403008
404808
404808
204810
208810
208410
208420
110420
110220
110220
090240
0A0140
0A0140
060180
040080
ENDCHAR
STARTCHAR 1E84
ENCODING 7812
SWIDTH 870 0
DWIDTH 29 0
BBX 27 29 1 0
BITMAP
00208000
00208000
00000000
00000000
00000000
00000000
80040020
800A0020
400A0040
400A0040
40120040
40110040
20110080
20110080
20208080
20208100
10208100
10408100
10404100
10404200
08404200
08804200
08802200
08802400
05002400
05001400
05001400
03001800
02000800
ENDCHAR
STARTCHAR 1E85
ENCODING 7813
SWIDTH 720 0
DWIDTH 24 0
BBX 22 23 1 0
BITMAP
018600
008000
000000
000000
000000
000000
801004
803004
403008
404808
404808
204810
208810
208410
208420
110420
110220
110220
090240
0A0140
0A0140
060180
040080
ENDCHAR
STARTCHAR 1E9E
ENCODING 7838
SWIDTH 660 0
DWIDTH 22 0
BBX 17 23 4 0
BITMAP
FFFE00
800200
800400
800800
801000
801000
802000
804000
804000
808000
807800
800600
800100
800100
800080
800080
800080
800080
800080
800100
880100
840200
83FC00
ENDCHAR
STARTCHAR 1EA0
ENCODING 7840
SWIDTH 600 0
DWIDTH 20 0
BBX 18 27 1 -4
BITMAP
00C000
00C000
012000
012000
012000
021000
021000
041000
040800
040800
080800
080400
080400
100400
100200
1FFE00
200100
200100
400100
400080
400080
800080
800040
000000
000000
000000
00C000
ENDCHAR
STARTCHAR 1EA1
ENCODING 7841
SWIDTH 510 0
DWIDTH 17 0
BBX 15 21 2 -4
BITMAP
1FC0
2020
4020
0010
0010
0010
0010
0010
1FF0
6010
8010
8010
8010
8010
8030
4050
319E
0E00
0000
0000
0400
ENDCHAR
STARTCHAR 1EA2
ENCODING 7842
SWIDTH 600 0
DWIDTH 20 0
BBX 18 31 1 0
BITMAP
03E000
001000
002000
004000
004000
000000
000000
000000
00C000
00C000
012000
012000
012000
021000
021000
041000
040800
040800
080800
080400
080400
100400
100200
1FFE00
200100
200100
400100
400080
400080
800080
800040
ENDCHAR
STARTCHAR 1EA3
ENCODING 7843
SWIDTH 510 0
DWIDTH 17 0
BBX 15 25 2 0
BITMAP
0F80
0080
0100
0100
0200
0200
0000
0000
1FC0
2020
4020
0010
0010
0010
0010
0010
1FF0
6010
8010
8010
8010
8010
8030
4050
3F9E
ENDCHAR
STARTCHAR 1EA4
ENCODING 7844
SWIDTH 600 0
DWIDTH 20 0
BBX 18 34 1 1
BITMAP
000100
000200
000400
000400
00C800
012000
021000
040800
000000
000000
000000
00C000
00C000
012000
012000
012000
021000
021000
041000
040800
040800
080800
080400
080400
100400
100200
1FFE00
200100
200100
400100
400080
400080
800080
800040
ENDCHAR
STARTCHAR 1EA5
ENCODING 7845
SWIDTH 510 0
DWIDTH 17 0
BBX 15 29 2 0
BITMAP
0004
0008
0008
0010
0220
0500
0880
1040
2020
0000
0000
0000
1FC0
2020
4020
0010
0010
0010
0010
0010
1FF0
6010
8010
8010
8010
8010
8030
4050
3F9E
ENDCHAR
STARTCHAR 1EA6
ENCODING 7846
SWIDTH 600 0
DWIDTH 20 0
BBX 18 34 1 1
BITMAP
200000
100000
100000
080000
04C000
012000
021000
040800
000000
000000
000000
00C000
00C000
012000
012000
012000
021000
021000
041000
040800
040800
080800
080400
080400
100400
100200
1FFE00
200100
200100
400100
400080
400080
800080
800040
ENDCHAR
STARTCHAR 1EA7
ENCODING 7847
SWIDTH 510 0
DWIDTH 17 0
BBX 16 28 1 1
BITMAP
8000
4000
2000
2100
1280
0440
0820
1010
0000
0000
0000
0FE0
1010
2010
0008
0008
0008
0008
0008
0FF8
3008
4008
4008
4008
4008
4018
2028
1FCF
ENDCHAR
STARTCHAR 1EA8
ENCODING 7848
SWIDTH 600 0
DWIDTH 20 0
BBX 18 34 1 0
BITMAP
001F00
000200
000400
000400
00C800
012000
021000
040800
000000
000000
000000
00C000
00C000
012000
012000
012000
021000
021000
041000
040800
040800
080800
080400
080400
100400
100200
1FFE00
200100
200100
400100
400080
400080
800080
800040
ENDCHAR
STARTCHAR 1EA9
ENCODING 7849
SWIDTH 510 0
DWIDTH 17 0
BBX 15 28 2 0
BITMAP
00F8
0010
0010
0220
0520
0880
1040
2020
0000
0000
0000
1FC0
2020
4020
0010
0010
0010
0010
0010
1FF0
6010
8010
8010
8010
8010
8030
4050
3F9E
ENDCHAR
STARTCHAR 1EAA
ENCODING 7850
SWIDTH 600 0
DWIDTH 20 0
BBX 18 34 1 0
BITMAP
078000
086800
001000
000000
00C000
012000
021000
040800
000000
000000
000000
00C000
00C000
012000
012000
012000
021000
021000
041000
040800
040800
080800
080400
080400
100400
100200
1FFE00
200100
200100
400100
400080
400080
800080
800040
ENDCHAR
STARTCHAR 1EAB
ENCODING 7851
SWIDTH 510 0
DWIDTH 17 0
BBX 15 28 2 0
BITMAP
3C00
0360
0080
0200
0500
0880
1040
2020
0000
0000
0000
1FC0
2020
4020
0010
0010
0010
0010
0010
1FF0
6010
8010
8010
8010
8010
8030
4050
3F9E
ENDCHAR
STARTCHAR 1EAC
ENCODING 7852
SWIDTH 600 0
DWIDTH 20 0
BBX 18 35 1 -4
BITMAP
00C000
012000
021000
040800
080800
000000
000000
000000
00C000
00C000
012000
012000
012000
021000
021000
041000
040800
040800
080800
080400
080400
100400
100200
1FFE00
200100
200100
400100
400080
400080
800080
800040
000000
000000
000000
00C000
ENDCHAR
STARTCHAR 1EAD
ENCODING 7853
SWIDTH 510 0
DWIDTH 17 0
BBX 15 29 2 -4
BITMAP
0200
0500
0880
1040
2020
0000
0000
0000
1FC0
2020
4020
0010
0010
0010
0010
0010
1FF0
6010
8010
8010
8010
8010
8030
4050
319E
0E00
0000
0000
0400
ENDCHAR
STARTCHAR 1EAE
ENCODING 7854
SWIDTH 600 0
DWIDTH 20 0
BBX 18 34 1 1
BITMAP
001000
002000
004000
004000
008000
040800
041000
032000
00C000
000000
000000
00C000
00C000
012000
012000
012000
021000
021000
041000
040800
040800
080800
080400
080400
100400
100200
1FFE00
200100
200100
400100
400080
400080
800080
800040
ENDCHAR
STARTCHAR 1EAF
ENCODING 7855
SWIDTH 510 0
DWIDTH 17 0
BBX 15 29 2 0
BITMAP
0040
0080
0100
0100
0200
2000
2040
1040
0D80
0200
0000
0000
1FC0
2020
4020
0010
0010
0010
0010
0010
1FF0
6010
8010
8010
8010
8010
8030
4050
3F9E
ENDCHAR
STARTCHAR 1EB0
ENCODING 7856
SWIDTH 600 0
DWIDTH 20 0
BBX 18 34 1 1
BITMAP
020000
010000
010000
008000
004000
040800
041000
032000
00C000
000000
000000
00C000
00C000
012000
012000
012000
021000
021000
041000
040800
040800
080800
080400
080400
100400
100200
1FFE00
200100
200100
400100
400080
400080
800080
800040
ENDCHAR
STARTCHAR 1EB1
ENCODING 7857
SWIDTH 510 0
DWIDTH 17 0
BBX 15 29 2 0
BITMAP
1000
1000
0800
0400
0400
2200
2040
1040
0D80
0200
0000
0000
1FC0
2020
4020
0010
0010
0010
0010
0010
1FF0
6010
8010
8010
8010
8010
8030
4050
3F9E
ENDCHAR
STARTCHAR 1EB2
ENCODING 7858
SWIDTH 600 0
DWIDTH 20 0
BBX 18 34 1 0
BITMAP
01F000
002000
002000
004000
000000
040800
041000
032000
00C000
000000
000000
00C000
00C000
012000
012000
012000
021000
021000
041000
040800
040800
080800
080400
080400
100400
100200
1FFE00
200100
200100
400100
400080
400080
800080
800040
ENDCHAR
STARTCHAR 1EB3
ENCODING 7859
SWIDTH 510 0
DWIDTH 17 0
BBX 15 28 2 0
BITMAP
0F80
0080
0100
0200
2200
2040
1040
0D80
0200
0000
0000
1FC0
2020
4020
0010
0010
0010
0010
0010
1FF0
6010
8010
8010
8010
8010
8030
4050
3F9E
ENDCHAR
STARTCHAR 1EB4
ENCODING 7860
SWIDTH 600 0
DWIDTH 20 0
BBX 18 34 1 0
BITMAP
070000
08C400
003800
000000
000000
040800
041000
032000
00C000
000000
000000
00C000
00C000
012000
012000
012000
021000
021000
041000
040800
040800
080800
080400
080400
100400
100200
1FFE00
200100
200100
400100
400080
400080
800080
800040
ENDCHAR
STARTCHAR 1EB5
ENCODING 7861
SWIDTH 510 0
DWIDTH 17 0
BBX 15 28 2 0
BITMAP
3800
4620
01C0
0000
2000
2040
1040
0D80
0200
0000
0000
1FC0
2020
4020
0010
0010
0010
0010
0010
1FF0
6010
8010
8010
8010
8010
8030
4050
3F9E
ENDCHAR
STARTCHAR 1EB6
ENCODING 7862
SWIDTH 600 0
DWIDTH 20 0
BBX 18 34 1 -4
BITMAP
040800
040800
021000
01E000
000000
000000
000000
00C000
00C000
012000
012000
012000
021000
021000
041000
040800
040800
080800
080400
080400
100400
100200
1FFE00
200100
200100
400100
400080
400080
800080
800040
000000
000000
000000
00C000
ENDCHAR
STARTCHAR 1EB7
ENCODING 7863
SWIDTH 510 0
DWIDTH 17 0
BBX 15 28 2 -4
BITMAP
2040
1040
1080
0F00
0000
0000
0000
1FC0
2020
4020
0010
0010
0010
0010
0010
1FF0
6010
8010
8010
8010
8010
8030
4050
319E
0E00
0000
0000
0400
ENDCHAR
STARTCHAR 1EB8
ENCODING 7864
SWIDTH 540 0
DWIDTH 18 0
BBX 12 27 4 -4
BITMAP
FFF0
8000
8000
8000
8000
8000
8000
8000
8000
8000
8000
FFF0
8000
8000
8000
8000
8000
8000
8000
8000
8000
8000
FFF0
0000
0000
0000
0600
ENDCHAR
STARTCHAR 1EB9
ENCODING 7865
SWIDTH 510 0
DWIDTH 17 0
BBX 14 21 2 -4
BITMAP
0FC0
3020
4010
4008
8008
8008
8004
8004
FFF8
8000
8000
8000
8000
4008
4008
2010
1860
0780
0000
0000
0300
ENDCHAR
STARTCHAR 1EBA
ENCODING 7866
SWIDTH 540 0
DWIDTH 18 0
BBX 12 31 4 0
BITMAP
1F00
0080
0100
0200
0200
0000
0000
0000
FFF0
8000
8000
8000
8000
8000
8000
8000
8000
8000
8000
FFF0
8000
8000
8000
8000
8000
8000
8000
8000
8000
8000
FFF0
ENDCHAR
STARTCHAR 1EBB
ENCODING 7867
SWIDTH 510 0
DWIDTH 17 0
BBX 14 25 2 0
BITMAP
0F80
0040
0080
0100
0100
0000
0000
0000
0FC0
3020
4010
4008
8008
8008
8004
8004
FFF8
8000
8000
8000
8000
4008
4008
2010
1FE0
ENDCHAR
STARTCHAR 1EBC
ENCODING 7868
SWIDTH 540 0
DWIDTH 18 0
BBX 12 29 4 0
BITMAP
7C20
03C0
0000
0000
0000
0000
FFF0
8000
8000
8000
8000
8000
8000
8000
8000
8000
8000
FFF0
8000
8000
8000
8000
8000
8000
8000
8000
8000
8000
FFF0
ENDCHAR
STARTCHAR 1EBD
ENCODING 7869
SWIDTH 510 0
DWIDTH 17 0
BBX 14 23 2 0
BITMAP
3E10
01E0
0000
0000
0000
0000
0FC0
3020
4010
4008
8008
8008
8004
8004
FFF8
8000
8000
8000
8000
4008
4008
2010
1FE0
ENDCHAR
STARTCHAR 1EBE
ENCODING 7870
SWIDTH 540 0
DWIDTH 18 0
BBX 13 34 4 1
BITMAP
0008
0010
0020
0020
0640
0900
1080
2040
0000
0000
0000
FFF0
8000
8000
8000
8000
8000
8000
8000
8000
8000
8000
FFF0
8000
8000
8000
8000
8000
8000
8000
8000
8000
8000
FFF0
ENDCHAR
STARTCHAR 1EBF
ENCODING 7871
SWIDTH 510 0
DWIDTH 17 0
BBX 14 28 2 1
BITMAP
0004
0008
0010
0010
0320
0480
0840
1020
0000
0000
0000
0FC0
3020
4010
4008
8008
8008
8004
8004
FFF8
8000
8000
8000
8000
4008
4008
2010
1FE0
ENDCHAR
STARTCHAR 1EC0
ENCODING 7872
SWIDTH 540 0
DWIDTH 18 0
BBX 13 34 3 1
BITMAP
8000
4000
4000
2000
1300
0480
0840
1020
0000
0000
0000
FFF8
8000
8000
8000
8000
8000
8000
8000
8000
8000
8000
7FF8
8000
8000
8000
8000
8000
8000
8000
8000
8000
8000
7FF8
ENDCHAR
STARTCHAR 1EC1
ENCODING 7873
SWIDTH 510 0
DWIDTH 17 0
BBX 14 28 2 1
BITMAP
8000
4000
4000
2000
1300
0480
0840
1020
0000
0000
0000
0FC0
3020
4010
4008
8008
8008
8004
8004
FFF8
8000
8000
8000
8000
4008
4008
2010
1FE0
ENDCHAR
STARTCHAR 1EC2
ENCODING 7874
SWIDTH 540 0
DWIDTH 18 0
BBX 13 34 4 0
BITMAP
00F8
0010
0020
0020
0640
0900
1080
2040
0000
0000
0000
FFF0
8000
8000
8000
8000
8000
8000
8000
8000
8000
8000
FFF0
8000
8000
8000
8000
8000
8000
8000
8000
8000
8000
FFF0
ENDCHAR
STARTCHAR 1EC3
ENCODING 7875
SWIDTH 510 0
DWIDTH 17 0
BBX 14 28 2 0
BITMAP
007C
0008
0010
0010
0320
0480
0840
1020
0000
0000
0000
0FC0
3020
4010
4008
8008
8008
8004
8004
FFF8
8000
8000
8000
8000
4008
4008
2010
1FE0
ENDCHAR
STARTCHAR 1EC4
ENCODING 7876
SWIDTH 540 0
DWIDTH 18 0
BBX 12 34 4 0
BITMAP
3C00
4340
0080
0000
0600
0900
1080
2040
0000
0000
0000
FFF0
8000
8000
8000
8000
8000
8000
8000
8000
8000
8000
FFF0
8000
8000
8000
8000
8000
8000
8000
8000
8000
8000
FFF0
ENDCHAR
STARTCHAR 1EC5
ENCODING 7877
SWIDTH 510 0
DWIDTH 17 0
BBX 14 28 2 0
BITMAP
1E00
21A0
0040
0000
0300
0480
0840
1020
0000
0000
0000
0FC0
3020
4010
4008
8008
8008
8004
8004
FFF8
8000
8000
8000
8000
4008
4008
2010
1FE0
ENDCHAR
STARTCHAR 1EC6
ENCODING 7878
SWIDTH 540 0
DWIDTH 18 0
BBX 12 35 4 -4
BITMAP
0600
0900
1080
2040
4040
0000
0000
0000
FFF0
8000
8000
8000
8000
8000
8000
8000
8000
8000
8000
FFF0
8000
8000
8000
8000
8000
8000
8000
8000
8000
8000
FFF0
0000
0000
0000
0600
ENDCHAR
STARTCHAR 1EC7
ENCODING 7879
SWIDTH 510 0
DWIDTH 17 0
BBX 14 29 2 -4
BITMAP
0300
0480
0840
1020
2020
0000
0000
0000
0FC0
3020
4010
4008
8008
8008
8004
8004
FFF8
8000
8000
8000
8000
4008
4008
2010
1860
0780
0000
0000
0300
ENDCHAR
STARTCHAR 1EC8
ENCODING 7880
SWIDTH 360 0
DWIDTH 12 0
BBX 8 31 2 0
BITMAP
3E
02
04
04
08
00
00
00
7F
08
08
08
08
08
08
08
08
08
08
08
08
08
08
08
08
08
08
08
08
08
FF
ENDCHAR
STARTCHAR 1EC9
ENCODING 7881
SWIDTH 210 0
DWIDTH 7 0
BBX 6 25 1 0
BITMAP
F8
04
08
10
10
00
00
00
20
20
20
20
20
20
20
20
20
20
20
20
20
20
20
20
20
ENDCHAR
STARTCHAR 1ECA
ENCODING 7882
SWIDTH 360 0
DWIDTH 12 0
BBX 8 27 2 -4
BITMAP
7F
08
08
08
08
08
08
08
08
08
08
08
08
08
08
08
08
08
08
08
08
08
FF
00
00
00
18
ENDCHAR
STARTCHAR 1ECB
ENCODING 7883
SWIDTH 210 0
DWIDTH 7 0
BBX 2 28 3 -4
BITMAP
C0
00
00
00
00
00
00
80
80
80
80
80
80
80
80
80
80
80
80
80
80
80
80
80
00
00
00
C0
ENDCHAR
STARTCHAR 1ECC
ENCODING 7884
SWIDTH 660 0
DWIDTH 22 0
BBX 18 28 2 -4
BITMAP
01E000
061C00
180200
200100
200080
400080
400040
400040
800040
800040
800040
800040
800040
800040
800040
800040
800040
400040
400080
400080
200080
100100
080200
061800
01E000
000000
000000
004000
ENDCHAR
STARTCHAR 1ECD
ENCODING 7885
SWIDTH 540 0
DWIDTH 18 0
BBX 14 21 2 -4
BITMAP
0FC0
3030
4008
4008
8008
8004
8004
8004
8004
8004
8004
8004
8004
4008
4008
2010
18E0
0700
0000
0000
0300
ENDCHAR
STARTCHAR 1ECE
ENCODING 7886
SWIDTH 660 0
DWIDTH 22 0
BBX 18 31 2 0
BITMAP
01F000
001000
002000
002000
004000
000000
000000
01E000
061C00
180200
200100
200080
400080
400040
400040
800040
800040
800040
800040
800040
800040
800040
800040
800040
400040
400080
400080
200080
100100
080200
07F800
ENDCHAR
STARTCHAR 1ECF
ENCODING 7887
SWIDTH 540 0
DWIDTH 18 0
BBX 14 25 2 0
BITMAP
0780
0040
0080
0100
0100
0000
0000
0000
0FC0
3030
4008
4008
8008
8004
8004
8004
8004
8004
8004
8004
8004
4008
4008
2010
1FE0
ENDCHAR
STARTCHAR 1ED0
ENCODING 7888
SWIDTH 660 0
DWIDTH 22 0
BBX 18 35 2 0
BITMAP
000080
000100
000100
000200
004400
00A000
011000
020800
040400
000000
000000
01E000
061C00
180200
200100
200080
400080
400040
400040
800040
800040
800040
800040
800040
800040
800040
800040
800040
400040
400080
400080
200080
100100
080200
07F800
ENDCHAR
STARTCHAR 1ED1
ENCODING 7889
SWIDTH 540 0
DWIDTH 18 0
BBX 14 28 2 1
BITMAP
0004
0008
0008
0010
0320
0480
0840
1020
0000
0000
0000
0FC0
3030
4008
4008
8008
8004
8004
8004
8004
8004
8004
8004
8004
4008
4008
2010
1FE0
ENDCHAR
STARTCHAR 1ED2
ENCODING 7890
SWIDTH 660 0
DWIDTH 22 0
BBX 18 34 2 1
BITMAP
200000
100000
080000
084000
04A000
011000
020800
040400
000000
000000
01E000
061C00
180200
200100
200080
400080
400040
400040
800040
800040
800040
800040
800040
800040
800040
800040
800040
400040
400080
400080
200080
100100
080200
07F800
ENDCHAR
STARTCHAR 1ED3
ENCODING 7891
SWIDTH 540 0
DWIDTH 18 0
BBX 14 28 2 1
BITMAP
8000
4000
4000
2000
1300
0480
0840
1020
0000
0000
0000
0FC0
3030
4008
4008
8008
8004
8004
8004
8004
8004
8004
8004
8004
4008
4008
2010
1FE0
ENDCHAR
STARTCHAR 1ED4
ENCODING 7892
SWIDTH 660 0
DWIDTH 22 0
BBX 18 34 2 0
BITMAP
001F00
000200
000200
004400
00A400
011000
020800
040400
000000
000000
01E000
061C00
180200
200100
200080
400080
400040
400040
800040
800040
800040
800040
800040
800040
800040
800040
800040
400040
400080
400080
200080
100100
080200
07F800
ENDCHAR
STARTCHAR 1ED5
ENCODING 7893
SWIDTH 540 0
DWIDTH 18 0
BBX 14 28 2 0
BITMAP
007C
0008
0010
0010
0320
0480
0840
1020
0000
0000
0000
0FC0
3030
4008
4008
8008
8004
8004
8004
8004
8004
8004
8004
8004
4008
4008
2010
1FE0
ENDCHAR
STARTCHAR 1ED6
ENCODING 7894
SWIDTH 660 0
DWIDTH 22 0
BBX 18 34 2 0
BITMAP
078000
006C00
001000
004000
00A000
011000
020800
040400
000000
000000
01E000
061C00
180200
200100
200080
400080
400040
400040
800040
800040
800040
800040
800040
800040
800040
800040
800040
400040
400080
400080
200080
100100
080200
07F800
ENDCHAR
STARTCHAR 1ED7
ENCODING 7895
SWIDTH 540 0
DWIDTH 18 0
BBX 14 28 2 0
BITMAP
1E00
01A0
0040
0000
0300
0480
0840
1020
0000
0000
0000
0FC0
3030
4008
4008
8008
8004
8004
8004
8004
8004
8004
8004
8004
4008
4008
2010
1FE0
ENDCHAR
STARTCHAR 1ED8
ENCODING 7896
SWIDTH 660 0
DWIDTH 22 0
BBX 18 35 2 -4
BITMAP
004000
00A000
011000
020800
040400
000000
000000
01E000
061C00
180200
200100
200080
400080
400040
400040
800040
800040
800040
800040
800040
800040
800040
800040
800040
400040
400080
400080
200080
100100
080200
061800
01E000
000000
000000
004000
ENDCHAR
STARTCHAR 1ED9
ENCODING 7897
SWIDTH 540 0
DWIDTH 18 0
BBX 14 29 2 -4
BITMAP
0300
0480
0840
1020
2010
0000
0000
0000
0FC0
3030
4008
4008
8008
8004
8004
8004
8004
8004
8004
8004
8004
4008
4008
2010
18E0
0700
0000
0000
0300
ENDCHAR
STARTCHAR 1EDA
ENCODING 7898
SWIDTH 660 0
DWIDTH 22 0
BBX 18 31 2 0
BITMAP
001000
001000
002000
004000
008040
000040
000040
01E040
061F80
180200
200100
200080
400080
400040
400040
800040
800040
800040
800040
800040
800040
800040
800040
800040
400040
400080
400080
200080
100100
080200
07F800
ENDCHAR
STARTCHAR 1EDB
ENCODING 7899
SWIDTH 540 0
DWIDTH 18 0
BBX 14 25 2 0
BITMAP
0040
0080
0080
0100
0200
0004
0004
0004
0FF8
3010
4008
4008
8008
8004
8004
8004
8004
8004
8004
8004
8004
4008
4008
2010
1FE0
ENDCHAR
STARTCHAR 1EDC
ENCODING 7900
SWIDTH 660 0
DWIDTH 22 0
BBX 18 31 2 0
BITMAP
020000
010000
008000
008000
004040
000040
000040
01E040
061F80
180200
200100
200080
400080
400040
400040
800040
800040
800040
800040
800040
800040
800040
800040
800040
400040
400080
400080
200080
100100
080200
07F800
ENDCHAR
STARTCHAR 1EDD
ENCODING 7901
SWIDTH 540 0
DWIDTH 18 0
BBX 14 25 2 0
BITMAP
0800
0C00
0400
0200
0100
0004
0004
0004
0FF8
3010
4008
4008
8008
8004
8004
8004
8004
8004
8004
8004
8004
4008
4008
2010
1FE0
ENDCHAR
STARTCHAR 1EDE
ENCODING 7902
SWIDTH 660 0
DWIDTH 22 0
BBX 18 31 2 0
BITMAP
01F000
001000
002000
002000
004040
000040
000040
01E040
061F80
180200
200100
200080
400080
400040
400040
800040
800040
800040
800040
800040
800040
800040
800040
800040
400040
400080
400080
200080
100100
080200
07F800
ENDCHAR
STARTCHAR 1EDF
ENCODING 7903
SWIDTH 540 0
DWIDTH 18 0
BBX 14 25 2 0
BITMAP
0780
0040
0080
0100
0100
0004
0004
0004
0FF8
3010
4008
4008
8008
8004
8004
8004
8004
8004
8004
8004
8004
4008
4008
2010
1FE0
ENDCHAR
STARTCHAR 1EE0
ENCODING 7904
SWIDTH 660 0
DWIDTH 22 0
BBX 18 29 2 0
BITMAP
07C000
003C00
000040
000040
000040
01E040
061F80
180200
200100
200080
400080
400040
400040
800040
800040
800040
800040
800040
800040
800040
800040
800040
400040
400080
400080
200080
100100
080200
07F800
ENDCHAR
STARTCHAR 1EE1
ENCODING 7905
SWIDTH 540 0
DWIDTH 18 0
BBX 14 23 2 0
BITMAP
3E10
01E0
0000
0004
0004
0004
0FF8
3010
4008
4008
8008
8004
8004
8004
8004
8004
8004
8004
8004
4008
4008
2010
1FE0
ENDCHAR
STARTCHAR 1EE2
ENCODING 7906
SWIDTH 660 0
DWIDTH 22 0
BBX 18 31 2 -4
BITMAP
000040
000040
000040
01E040
061F80
180200
200100
200080
400080
400040
400040
800040
800040
800040
800040
800040
800040
800040
800040
800040
400040
400080
400080
200080
100100
080200
061800
01E000
000000
000000
004000
ENDCHAR
STARTCHAR 1EE3
ENCODING 7907
SWIDTH 540 0
DWIDTH 18 0
BBX 14 24 2 -4
BITMAP
0004
0004
0004
0FF8
3010
4008
4008
8008
8004
8004
8004
8004
8004
8004
8004
8004
4008
4008
2010
18E0
0700
0000
0000
0300
ENDCHAR
STARTCHAR 1EE4
ENCODING 7908
SWIDTH 630 0
DWIDTH 21 0
BBX 15 27 3 -4
BITMAP
8002
8002
8002
8002
8002
8002
8002
8002
8002
8002
8002
8002
8002
8002
8002
8002
8002
8002
8002
4002
4004
200C
1C70
0380
0000
0000
0180
ENDCHAR
STARTCHAR 1EE5
ENCODING 7909
SWIDTH 540 0
DWIDTH 18 0
BBX 12 21 3 -4
BITMAP
8010
8010
8010
8010
8010
8010
8010
8010
8010
8010
8010
8010
8010
8010
4010
4030
30D0
0F00
0000
0000
0600
ENDCHAR
STARTCHAR 1EE6
ENCODING 7910
SWIDTH 630 0
DWIDTH 21 0
BBX 15 31 3 0
BITMAP
07C0
0020
0040
0080
0080
0000
0000
0000
8002
8002
8002
8002
8002
8002
8002
8002
8002
8002
8002
8002
8002
8002
8002
8002
8002
8002
8002
4002
4004
200C
1FF0
ENDCHAR
STARTCHAR 1EE7
ENCODING 7911
SWIDTH 540 0
DWIDTH 18 0
BBX 12 25 3 0
BITMAP
0F00
0080
0100
0100
0200
0000
0000
0000
8010
8010
8010
8010
8010
8010
8010
8010
8010
8010
8010
8010
8010
8010
4010
4030
3FD0
ENDCHAR
STARTCHAR 1EE8
ENCODING 7912
SWIDTH 630 0
DWIDTH 21 0
BBX 18 31 3 0
BITMAP
002000
004000
008000
008000
010040
000040
000040
000040
800380
800200
800200
800200
800200
800200
800200
800200
800200
800200
800200
800200
800200
800200
800200
800200
800200
800200
800200
400200
400400
200C00
1FF000
ENDCHAR
STARTCHAR 1EE9
ENCODING 7913
SWIDTH 540 0
DWIDTH 18 0
BBX 15 25 3 0
BITMAP
0080
0080
0100
0200
0402
0002
0002
0002
801C
8010
8010
8010
8010
8010
8010
8010
8010
8010
8010
8010
8010
8010
4010
4030
3FD0
ENDCHAR
STARTCHAR 1EEA
ENCODING 7914
SWIDTH 630 0
DWIDTH 21 0
BBX 18 31 3 0
BITMAP
040000
040000
020000
010000
010040
000040
000040
000040
800380
800200
800200
800200
800200
800200
800200
800200
800200
800200
800200
800200
800200
800200
800200
800200
800200
800200
800200
400200
400400
200C00
1FF000
ENDCHAR
STARTCHAR 1EEB
ENCODING 7915
SWIDTH 540 0
DWIDTH 18 0
BBX 15 25 3 0
BITMAP
1000
0800
0800
0400
0202
0002
0002
0002
801C
8010
8010
8010
8010
8010
8010
8010
8010
8010
8010
8010
8010
8010
4010
4030
3FD0
ENDCHAR
STARTCHAR 1EEC
ENCODING 7916
SWIDTH 630 0
DWIDTH 21 0
BBX 18 31 3 0
BITMAP
07C000
002000
004000
008000
008040
000040
000040
000040
800380
800200
800200
800200
800200
800200
800200
800200
800200
800200
800200
800200
800200
800200
800200
800200
800200
800200
800200
400200
400400
200C00
1FF000
ENDCHAR
STARTCHAR 1EED
ENCODING 7917
SWIDTH 540 0
DWIDTH 18 0
BBX 15 25 3 0
BITMAP
0F00
0080
0100
0100
0202
0002
0002
0002
801C
8010
8010
8010
8010
8010
8010
8010
8010
8010
8010
8010
8010
8010
4010
4030
3FD0
ENDCHAR
STARTCHAR 1EEE
ENCODING 7918
SWIDTH 630 0
DWIDTH 21 0
BBX 18 29 3 0
BITMAP
1F0800
00F000
000040
000040
000040
000040
800380
800200
800200
800200
800200
800200
800200
800200
800200
800200
800200
800200
800200
800200
800200
800200
800200
800200
800200
400200
400400
200C00
1FF000
ENDCHAR
STARTCHAR 1EEF
ENCODING 7919
SWIDTH 540 0
DWIDTH 18 0
BBX 15 23 3 0
BITMAP
3C00
03E0
0002
0002
0002
0002
801C
8010
8010
8010
8010
8010
8010
8010
8010
8010
8010
8010
8010
8010
4010
4030
3FD0
ENDCHAR
STARTCHAR 1EF0
ENCODING 7920
SWIDTH 630 0
DWIDTH 21 0
BBX 18 31 3 -4
BITMAP
000040
000040
000040
000040
800380
800200
800200
800200
800200
800200
800200
800200
800200
800200
800200
800200
800200
800200
800200
800200
800200
800200
800200
400200
400400
200C00
1C7000
038000
000000
000000
018000
ENDCHAR
STARTCHAR 1EF1
ENCODING 7921
SWIDTH 540 0
DWIDTH 18 0
BBX 15 25 3 -4
BITMAP
0002
0002
0002
0002
801C
8010
8010
8010
8010
8010
8010
8010
8010
8010
8010
8010
8010
8010
4010
4030
30D0
0F00
0000
0000
0600
ENDCHAR
STARTCHAR 1EF2
ENCODING 7922
SWIDTH 540 0
DWIDTH 18 0
BBX 16 31 1 0
BITMAP
0400
0200
0200
0100
0080
0000
0000
0000
8001
4002
4002
2004
2004
1008
0810
0810
0420
0420
0240
0140
0180
0100
0100
0100
0100
0100
0100
0100
0100
0100
0100
ENDCHAR
STARTCHAR 1EF3
ENCODING 7923
SWIDTH 450 0
DWIDTH 15 0
BBX 13 32 1 -7
BITMAP
1000
0800
0400
0200
0200
0000
0000
0000
8008
8008
8010
4010
4010
2020
2020
2020
1040
1040
1080
0880
0880
0500
0500
0500
0200
0200
0400
0400
0400
0800
0800
7000
ENDCHAR
STARTCHAR 1EF4
ENCODING 7924
SWIDTH 540 0
DWIDTH 18 0
BBX 16 27 1 -4
BITMAP
8001
4002
4002
2004
2004
1008
0810
0810
0420
0420
0240
0140
0180
0100
0100
0100
0100
0100
0100
0100
0100
0100
0100
0000
0000
0000
0180
ENDCHAR
STARTCHAR 1EF5
ENCODING 7925
SWIDTH 450 0
DWIDTH 15 0
BBX 13 24 1 -7
BITMAP
8008
8008
8010
4010
4010
2020
2020
2020
1040
1040
1080
0880
0880
0500
0500
0500
0200
0200
0400
0400
0430
0800
0800
7000
ENDCHAR
STARTCHAR 1EF6
ENCODING 7926
SWIDTH 540 0
DWIDTH 18 0
BBX 16 31 1 0
BITMAP
03C0
0020
0040
0040
0080
0000
0000
0000
8001
4002
4002
2004
2004
1008
0810
0810
0420
0420
0240
0140
0180
0100
0100
0100
0100
0100
0100
0100
0100
0100
0100
ENDCHAR
STARTCHAR 1EF7
ENCODING 7927
SWIDTH 450 0
DWIDTH 15 0
BBX 13 32 1 -7
BITMAP
0F80
0080
0080
0100
0200
0000
0000
0000
8008
8008
8010
4010
4010
2020
2020
2020
1040
1040
1080
0880
0880
0500
0500
0500
0200
0200
0400
0400
0400
0800
0800
7000
ENDCHAR
STARTCHAR 1EF8
ENCODING 7928
SWIDTH 540 0
DWIDTH 18 0
BBX 16 29 1 0
BITMAP
0F00
00F8
0000
0000
0000
0000
8001
4002
4002
2004
2004
1008
0810
0810
0420
0420
0240
0140
0180
0100
0100
0100
0100
0100
0100
0100
0100
0100
0100
ENDCHAR
STARTCHAR 1EF9
ENCODING 7929
SWIDTH 450 0
DWIDTH 15 0
BBX 13 30 1 -7
BITMAP
3E00
01E0
0000
0000
0000
0000
8008
8008
8010
4010
4010
2020
2020
2020
1040
1040
1080
0880
0880
0500
0500
0500
0200
0200
0400
0400
0400
0800
0800
7000
ENDCHAR
STARTCHAR 2013
ENCODING 8211
SWIDTH 570 0
DWIDTH 19 0
BBX 16 1 2 10
BITMAP
FFFF
ENDCHAR
STARTCHAR 2014
ENCODING 8212
SWIDTH 780 0
DWIDTH 26 0
BBX 22 1 2 10
BITMAP
FFFFFC
ENDCHAR
STARTCHAR 2018
ENCODING 8216
SWIDTH 240 0
DWIDTH 8 0
BBX 3 7 3 18
BITMAP
20
40
40
80
80
C0
C0
ENDCHAR
STARTCHAR 2019
ENCODING 8217
SWIDTH 240 0
DWIDTH 8 0
BBX 3 7 2 18
BITMAP
60
60
20
20
40
40
80
ENDCHAR
STARTCHAR 201A
ENCODING 8218
SWIDTH 240 0
DWIDTH 8 0
BBX 3 6 2 -4
BITMAP
60
60
20
40
40
80
ENDCHAR
STARTCHAR 201C
ENCODING 8220
SWIDTH 390 0
DWIDTH 13 0
BBX 8 7 3 18
BITMAP
20
43
42
84
84
C6
C6
ENDCHAR
STARTCHAR 201D
ENCODING 8221
SWIDTH 390 0
DWIDTH 13 0
BBX 9 7 2 18
BITMAP
6100
6180
2100
2100
4100
4200
8400
ENDCHAR
STARTCHAR 201E
ENCODING 8222
SWIDTH 390 0
DWIDTH 13 0
BBX 8 6 2 -4
BITMAP
63
61
21
41
42
82
ENDCHAR
STARTCHAR 2020
ENCODING 8224
SWIDTH 540 0
DWIDTH 18 0
BBX 15 32 2 -7
BITMAP
0100
0100
0100
0100
0100
0100
0100
0100
FFFE
0100
0100
0100
0100
0100
0100
0100
0100
0100
0100
0100
0100
0100
0100
0100
0100
0100
0100
0100
0100
0100
0100
0100
ENDCHAR
STARTCHAR 2021
ENCODING 8225
SWIDTH 540 0
DWIDTH 18 0
BBX 15 32 2 -7
BITMAP
0100
0100
0100
0100
0100
0100
0100
0100
FFFE
0100
0100
0100
0100
0100
0100
0100
0100
0100
0100
0100
0100
0100
0100
FFFE
0100
0100
0100
0100
0100
0100
0100
0100
ENDCHAR
STARTCHAR 2022
ENCODING 8226
SWIDTH 330 0
DWIDTH 11 0
BBX 5 6 3 7
BITMAP
78
F8
F8
F8
F8
70
ENDCHAR
STARTCHAR 2026
ENCODING 8230
SWIDTH 720 0
DWIDTH 24 0
BBX 18 2 3 0
BITMAP
C0C0C0
C0C0C0
ENDCHAR
STARTCHAR 2030
ENCODING 8240
SWIDTH 1230 0
DWIDTH 41 0
BBX 37 24 2 0
BITMAP
0C00000000
3300080000
4080100000
4080200000
8040200000
8040400000
8040800000
8041000000
8041000000
8042000000
4084000000
2084000000
1B087E07E0
0410810810
0010810810
0021009008
0041009008
0041009008
0081009008
0101009008
0201009008
0200810810
0400810810
08007E07E0
ENDCHAR
STARTCHAR 2032
ENCODING 8242
SWIDTH 210 0
DWIDTH 7 0
BBX 3 10 2 13
BITMAP
20
20
40
40
40
40
40
40
80
80
ENDCHAR
STARTCHAR 2033
ENCODING 8243
SWIDTH 360 0
DWIDTH 12 0
BBX 8 10 2 13
BITMAP
21
21
41
42
42
42
42
42
84
84
ENDCHAR
STARTCHAR 2039
ENCODING 8249
SWIDTH 270 0
DWIDTH 9 0
BBX 7 12 1 4
BITMAP
02
04
08
10
20
40
80
40
20
10
08
06
ENDCHAR
STARTCHAR 203A
ENCODING 8250
SWIDTH 270 0
DWIDTH 9 0
BBX 7 12 2 4
BITMAP
80
40
20
10
08
04
06
0C
10
20
40
80
ENDCHAR
STARTCHAR 2044
ENCODING 8260
SWIDTH 120 0
DWIDTH 4 0
BBX 15 23 -5 0
BITMAP
0002
0004
0004
0008
0010
0010
0020
0040
0040
0080
0100
0100
0200
0200
0400
0800
0800
1000
2000
2000
4000
8000
8000
ENDCHAR
STARTCHAR 2070
ENCODING 8304
SWIDTH 360 0
DWIDTH 12 0
BBX 9 12 2 11
BITMAP
3E00
4100
8100
8080
8080
8080
8080
8080
8080
8100
4100
3E00
ENDCHAR
STARTCHAR 2074
ENCODING 8308
SWIDTH 330 0
DWIDTH 11 0
BBX 10 12 1 11
BITMAP
0200
0600
0A00
1200
2200
2200
4200
8200
FFC0
0200
0200
0200
ENDCHAR
STARTCHAR 2075
ENCODING 8309
SWIDTH 330 0
DWIDTH 11 0
BBX 9 12 1 11
BITMAP
7F00
4000
4000
4000
4000
7F00
0100
0080
0080
0080
8100
7E00
ENDCHAR
STARTCHAR 2076
ENCODING 8310
SWIDTH 360 0
DWIDTH 12 0
BBX 8 12 2 11
BITMAP
08
10
20
40
80
FE
81
81
81
81
81
7E
ENDCHAR
STARTCHAR 2077
ENCODING 8311
SWIDTH 330 0
DWIDTH 11 0
BBX 8 12 2 11
BITMAP
FF
82
82
02
04
04
08
08
10
10
20
20
ENDCHAR
STARTCHAR 2078
ENCODING 8312
SWIDTH 390 0
DWIDTH 13 0
BBX 9 12 2 11
BITMAP
7F00
8100
8080
8080
4100
1E00
6100
8080
8080
8080
8080
7F00
ENDCHAR
STARTCHAR 2079
ENCODING 8313
SWIDTH 360 0
DWIDTH 12 0
BBX 8 12 2 11
BITMAP
7E
81
81
81
81
81
6F
12
02
04
08
10
ENDCHAR
STARTCHAR 2080
ENCODING 8320
SWIDTH 360 0
DWIDTH 12 0
BBX 9 13 2 0
BITMAP
0800
3600
4100
8100
8080
8080
8080
8080
8080
8080
8100
4100
3E00
ENDCHAR
STARTCHAR 2081
ENCODING 8321
SWIDTH 360 0
DWIDTH 12 0
BBX 9 12 2 0
BITMAP
1800
2800
C800
0800
0800
0800
0800
0800
0800
0800
0800
FF80
ENDCHAR
STARTCHAR 2082
ENCODING 8322
SWIDTH 330 0
DWIDTH 11 0
BBX 9 12 1 1
BITMAP
3F00
4100
8080
0080
0100
0100
0200
0400
0800
1000
6000
FF80
ENDCHAR
STARTCHAR 2083
ENCODING 8323
SWIDTH 330 0
DWIDTH 11 0
BBX 9 12 1 1
BITMAP
7E00
0100
0100
0100
0100
1E00
0300
0100
0080
0100
8100
7E00
ENDCHAR
STARTCHAR 2084
ENCODING 8324
SWIDTH 330 0
DWIDTH 11 0
BBX 10 12 1 0
BITMAP
0200
0600
0A00
1200
2200
2200
4200
8200
FFC0
0200
0200
0200
ENDCHAR
STARTCHAR 2085
ENCODING 8325
SWIDTH 330 0
DWIDTH 11 0
BBX 9 12 1 0
BITMAP
7F00
4000
4000
4000
4000
7F00
0100
0080
0080
0080
8100
7E00
ENDCHAR
STARTCHAR 2086
ENCODING 8326
SWIDTH 360 0
DWIDTH 12 0
BBX 8 12 2 0
BITMAP
08
10
20
40
80
FE
81
81
81
81
81
7E
ENDCHAR
STARTCHAR 2087
ENCODING 8327
SWIDTH 330 0
DWIDTH 11 0
BBX 8 12 2 0
BITMAP
FF
82
82
02
04
04
08
08
10
10
20
20
ENDCHAR
STARTCHAR 2088
ENCODING 8328
SWIDTH 390 0
DWIDTH 13 0
BBX 9 12 2 1
BITMAP
7F00
8100
8080
8080
4100
3E00
6100
8080
8080
8080
8080
3F00
ENDCHAR
STARTCHAR 2089
ENCODING 8329
SWIDTH 360 0
DWIDTH 12 0
BBX 8 12 2 1
BITMAP
7E
81
81
81
81
81
7F
02
02
04
08
10
ENDCHAR
STARTCHAR 20A1
ENCODING 8353
SWIDTH 600 0
DWIDTH 20 0
BBX 16 29 2 -3
BITMAP
0108
0110
0110
07F8
1914
3212
2211
4211
4210
4220
8220
8220
8220
8420
8420
8420
8420
8440
8440
4440
4440
4441
2841
1842
0844
0FF8
0880
0880
0880
ENDCHAR
STARTCHAR 20A4
ENCODING 8356
SWIDTH 570 0
DWIDTH 19 0
BBX 15 24 2 0
BITMAP
00C0
0E38
1004
2002
2000
2000
4000
4000
2000
2000
7FE0
2000
1000
1000
1000
FFF0
0800
0800
0800
1000
1000
2000
4000
7FFE
ENDCHAR
STARTCHAR 20A6
ENCODING 8358
SWIDTH 660 0
DWIDTH 22 0
BBX 21 23 1 0
BITMAP
100080
280080
280080
240080
240080
220080
210080
210080
FFFFF8
208080
204080
202080
202080
201080
FFFFF0
200880
200880
200480
200280
200280
200180
200180
200080
ENDCHAR
STARTCHAR 20A8
ENCODING 8360
SWIDTH 690 0
DWIDTH 23 0
BBX 19 23 4 0
BITMAP
FE0000
810000
808000
808000
808000
808000
808000
808780
808840
811000
811000
FE1000
840800
840400
820200
820100
810080
810040
808020
808020
804020
802040
801F80
ENDCHAR
STARTCHAR 20A9
ENCODING 8361
SWIDTH 900 0
DWIDTH 30 0
BBX 27 23 1 0
BITMAP
80060020
40060020
400A0020
40090020
20090040
20090040
20110040
20108080
10108080
7FEFFFE0
10204080
10204100
08204100
08404100
7FFFBFE0
08402200
04402200
04802200
04801200
04801400
03001400
03000C00
01000800
ENDCHAR
STARTCHAR 20AA
ENCODING 8362
SWIDTH 750 0
DWIDTH 25 0
BBX 18 23 4 0
BITMAP
FFC040
802040
801040
801040
841040
841040
841040
841040
841040
841040
841040
841040
841040
841040
841040
841040
841040
841040
841040
840040
840040
840080
87FF00
ENDCHAR
STARTCHAR 20AB
ENCODING 8363
SWIDTH 540 0
DWIDTH 18 0
BBX 15 25 2 0
BITMAP
0008
0008
0008
01FE
0008
0008
0008
0FC8
3028
4018
4008
8008
8008
8008
8008
8008
8008
8008
4008
2018
1028
0BC0
0000
0000
FFFC
ENDCHAR
STARTCHAR 20AC
ENCODING 8364
SWIDTH 600 0
DWIDTH 20 0
BBX 16 24 2 0
BITMAP
01E0
0618
1804
2002
2001
4000
4000
4000
8000
FFC0
8000
8000
8000
8000
8000
FFC0
8000
4000
4000
4001
2001
1002
0804
07F8
ENDCHAR
STARTCHAR 20AD
ENCODING 8365
SWIDTH 540 0
DWIDTH 18 0
BBX 16 23 1 0
BITMAP
2001
2002
2004
2008
2010
2010
2020
2040
2080
2100
FFFF
2100
2080
2080
2040
2020
2010
2008
2008
2004
2002
2001
2001
ENDCHAR
STARTCHAR 20AE
ENCODING 8366
SWIDTH 570 0
DWIDTH 19 0
BBX 17 23 1 0
BITMAP
FFFF80
008000
008000
008000
008000
008000
008000
008C00
00B000
00C000
038000
0C8000
008C00
00B000
00C000
038000
1C8000
008000
008000
008000
008000
008000
008000
ENDCHAR
STARTCHAR 20B1
ENCODING 8369
SWIDTH 600 0
DWIDTH 20 0
BBX 19 23 1 0
BITMAP
3FF800
200600
200200
200100
FFFFE0
200100
200100
200100
200100
FFFFE0
200100
200200
200200
200C00
3FF000
200000
200000
200000
200000
200000
200000
200000
200000
ENDCHAR
STARTCHAR 20B2
ENCODING 8370
SWIDTH 630 0
DWIDTH 21 0
BBX 17 29 2 -3
BITMAP
002000
002000
002000
07F800
082400
102200
202100
404000
404000
404000
804000
804000
804000
804000
808000
807F80
808080
808080
808080
408080
410080
410100
210100
110200
090400
07F800
020000
020000
020000
ENDCHAR
STARTCHAR 20B4
ENCODING 8372
SWIDTH 600 0
DWIDTH 20 0
BBX 18 24 1 0
BITMAP
00C000
071800
080400
100200
000200
000200
000200
000200
000400
FFFFC0
001000
006000
008000
030000
FFFFC0
080000
100000
100000
100000
100000
100000
100100
080600
07F800
ENDCHAR
STARTCHAR 20B5
ENCODING 8373
SWIDTH 600 0
DWIDTH 20 0
BBX 16 29 2 -3
BITMAP
0020
0020
0020
07F8
0824
2042
2041
4041
4040
4040
8040
8080
8080
8080
8080
8080
8080
8080
8100
4100
4100
4101
2101
1102
0A04
07F8
0200
0200
0200
ENDCHAR
STARTCHAR 20B8
ENCODING 8376
SWIDTH 600 0
DWIDTH 20 0
BBX 16 23 2 0
BITMAP
FFFF
0000
0000
0000
0000
FFFF
0100
0100
0100
0100
0100
0100
0100
0100
0100
0100
0100
0100
0100
0100
0100
0100
0100
ENDCHAR
STARTCHAR 20B9
ENCODING 8377
SWIDTH 600 0
DWIDTH 20 0
BBX 17 23 2 0
BITMAP
7FFF80
001000
000800
000800
000800
FFFF80
000400
000800
000800
000800
001000
00E000
7F0000
010000
008000
008000
004000
002000
001000
001000
000800
000400
000200
ENDCHAR
STARTCHAR 20BA
ENCODING 8378
SWIDTH 600 0
DWIDTH 20 0
BBX 18 23 1 0
BITMAP
080000
080000
080000
080000
082000
08C000
0B0000
1C0000
680000
882000
08C000
0B0000
1C0000
680040
880080
080080
080080
080080
080100
080100
080200
080400
0FF800
ENDCHAR
STARTCHAR 20BD
ENCODING 8381
SWIDTH 570 0
DWIDTH 19 0
BBX 17 23 1 0
BITMAP
3FFE00
200100
200080
200080
200080
200080
200080
200080
200080
200080
200100
200E00
FFF000
200000
200000
200000
200000
FFE000
200000
200000
200000
200000
200000
ENDCHAR
STARTCHAR 20BF
ENCODING 8383
SWIDTH 600 0
DWIDTH 20 0
BBX 14 29 4 -3
BITMAP
1100
1100
1100
FF00
80E0
8010
8008
8008
8008
8008
8008
8010
8010
FFE0
8030
8008
8008
8004
8004
8004
8004
8004
8008
8008
8070
7F80
1100
1100
1000
ENDCHAR
STARTCHAR 2113
ENCODING 8467
SWIDTH 450 0
DWIDTH 15 0
BBX 13 25 1 0
BITMAP
0780
0840
1040
1040
1040
1040
1040
1040
1040
1040
1080
1080
1100
1100
1200
1400
1800
1000
3000
D000
1000
1008
1010
0810
07E0
ENDCHAR
STARTCHAR 2116
ENCODING 8470
SWIDTH 990 0
DWIDTH 33 0
BBX 29 24 4 0
BITMAP
00000380
80020460
C0021810
C0021010
A0021008
90021008
90021008
88021008
84021010
84021010
82020820
82020780
81020000
80820000
80821FF0
80420000
80220000
80220000
80120000
80120000
800A0000
80060000
80060000
80020000
ENDCHAR
STARTCHAR 2122
ENCODING 8482
SWIDTH 630 0
DWIDTH 21 0
BBX 17 9 1 14
BITMAP
FE2080
105180
105180
104A80
104A80
104480
104080
104080
100000
ENDCHAR
STARTCHAR 2126
ENCODING 8486
SWIDTH 690 0
DWIDTH 23 0
BBX 19 24 2 0
BITMAP
00F000
070C00
180300
100080
200080
400040
400040
400040
800020
800020
800020
800020
800020
800020
800020
400040
400040
400040
200080
100080
080100
040600
020800
7E0FE0
ENDCHAR
STARTCHAR 212E
ENCODING 8494
SWIDTH 690 0
DWIDTH 23 0
BBX 21 24 1 0
BITMAP
007000
038E00
0C0180
100040
200040
200020
400010
400010
400010
400010
C00018
C00018
FFFFE0
C00000
400000
400000
400000
400000
200000
200020
100020
080040
040080
03FF00
ENDCHAR
STARTCHAR 2150
ENCODING 8528
SWIDTH 870 0
DWIDTH 29 0
BBX 26 23 2 0
BITMAP
18000800
28001000
C8002000
08002000
08004000
08004000
08008000
08010000
08010000
08020000
08040000
FF847FC0
00084080
00104080
00100100
00200100
00200100
00400200
00800200
00800400
01000400
02000800
02000800
ENDCHAR
STARTCHAR 2151
ENCODING 8529
SWIDTH 870 0
DWIDTH 29 0
BBX 26 23 2 0
BITMAP
18000800
28001000
C8002000
08002000
08004000
08004000
08008000
08010000
08010000
08020000
08040000
FF841F80
00082080
00104040
00104040
00206040
00202040
00401F80
00800080
00800100
01000100
02000200
02000400
ENDCHAR
STARTCHAR 2153
ENCODING 8531
SWIDTH 870 0
DWIDTH 29 0
BBX 25 23 2 0
BITMAP
18000800
28001000
C8002000
08002000
08004000
08004000
08008000
08010000
08010000
08020000
08040400
FF843B00
00080080
00100080
00100080
00200080
00200F00
00400180
00800080
00800080
01000080
02004080
02003F00
ENDCHAR
STARTCHAR 2154
ENCODING 8532
SWIDTH 840 0
DWIDTH 28 0
BBX 25 23 1 0
BITMAP
3F000800
41001000
80801000
00802000
01004000
01004000
02008000
04010000
08010000
10020000
60040400
FF843B00
00080080
00080080
00100080
00200080
00200F00
00400180
00800080
00800080
01000080
02004080
02003F00
ENDCHAR
STARTCHAR 2155
ENCODING 8533
SWIDTH 870 0
DWIDTH 29 0
BBX 25 23 2 0
BITMAP
18000800
28001000
C8002000
08002000
08004000
08004000
08008000
08010000
08010000
08020000
08040000
FF843F00
00082000
00104000
00104000
00204000
00205F00
00402080
00800080
00800080
01000080
02004080
02003F00
ENDCHAR
STARTCHAR 2156
ENCODING 8534
SWIDTH 840 0
DWIDTH 28 0
BBX 25 23 1 0
BITMAP
3F000800
41001000
80801000
00802000
01004000
01004000
02008000
04010000
08010000
10020000
60040000
FF843F00
00082000
00082000
00104000
00204000
00205F00
00402080
00800080
00800080
01000080
02004080
02003F00
ENDCHAR
STARTCHAR 2157
ENCODING 8535
SWIDTH 810 0
DWIDTH 27 0
BBX 25 23 1 0
BITMAP
3E000800
41001000
01002000
01002000
01004000
1E008000
03008000
01010000
00820000
01020000
81040000
72047F00
0C084000
00104000
00104000
00204000
00407F00
00400080
00800080
01000080
01000080
02004080
04003F00
ENDCHAR
STARTCHAR 2158
ENCODING 8536
SWIDTH 840 0
DWIDTH 28 0
BBX 26 23 1 0
BITMAP
02000800
06001000
0A001000
12002000
22004000
22004000
42008000
82010000
FFC10000
02020000
02040000
02043F80
00082000
00082000
00102000
00204000
00205F00
00402080
00800080
00800040
01000080
02004080
02003F00
ENDCHAR
STARTCHAR 2159
ENCODING 8537
SWIDTH 870 0
DWIDTH 29 0
BBX 25 23 2 0
BITMAP
18000800
28001000
C8002000
08002000
08004000
08004000
08008000
08010000
08010000
08020000
08040000
FF840400
00080800
00101000
00102000
00202000
00205F00
00406080
00804080
00804080
01004080
02004080
02003F00
ENDCHAR
STARTCHAR 215A
ENCODING 8538
SWIDTH 810 0
DWIDTH 27 0
BBX 25 23 1 0
BITMAP
7F001000
40001000
40002000
40004000
40004000
7F008000
01010000
00810000
00820000
00820000
81040000
72080C00
0C081000
00102000
00202000
00204000
00407F00
00804080
00808080
01008080
01004080
02004100
04003E00
ENDCHAR
STARTCHAR 215B
ENCODING 8539
SWIDTH 900 0
DWIDTH 30 0
BBX 27 23 2 0
BITMAP
18000800
28001000
C8002000
08002000
08004000
08004000
08008000
08010000
08010000
08020000
08040200
FF841D80
00082040
00102040
00102040
00202040
00201F80
004010C0
00802020
00804020
01004020
02002040
02001F80
ENDCHAR
STARTCHAR 215C
ENCODING 8540
SWIDTH 870 0
DWIDTH 29 0
BBX 27 23 1 0
BITMAP
3E000800
41001000
01002000
01002000
01004000
1E008000
03008000
01010000
00820000
01020000
81040200
72041D80
0C082040
00102040
00102040
00202040
00401F80
004030C0
00804040
01004020
01004020
02002040
04001F80
ENDCHAR
STARTCHAR 215D
ENCODING 8541
SWIDTH 870 0
DWIDTH 29 0
BBX 26 23 1 0
BITMAP
7F001000
40001000
40002000
40004000
40004000
7F008000
01010000
00810000
00820000
00820000
81040000
72081F80
0C082040
00104040
00204040
00202080
00401F00
00803080
00804040
01004040
01004040
02004040
04003F80
ENDCHAR
STARTCHAR 215E
ENCODING 8542
SWIDTH 840 0
DWIDTH 28 0
BBX 25 23 2 0
BITMAP
FF002000
82004000
82008000
02008000
04010000
04020000
08020000
08040000
10040000
10080000
20100800
20107600
00208100
00408100
00408100
00808100
01007E00
01004300
02018100
04010080
04010080
08008100
08007E00
ENDCHAR
STARTCHAR 2190
ENCODING 8592
SWIDTH 720 0
DWIDTH 24 0
BBX 23 12 1 5
BITMAP
040000
080000
100000
200000
400000
800000
FFFFFE
400000
200000
100000
080000
040000
ENDCHAR
STARTCHAR 2191
ENCODING 8593
SWIDTH 720 0
DWIDTH 24 0
BBX 13 24 6 0
BITMAP
0200
0700
0A80
1240
2220
4210
8208
0200
0200
0200
0200
0200
0200
0200
0200
0200
0200
0200
0200
0200
0200
0200
0200
0200
ENDCHAR
STARTCHAR 2192
ENCODING 8594
SWIDTH 720 0
DWIDTH 24 0
BBX 23 11 1 6
BITMAP
000040
000020
000010
000008
000004
FFFFFE
000004
000008
000010
000020
000040
ENDCHAR
STARTCHAR 2193
ENCODING 8595
SWIDTH 720 0
DWIDTH 24 0
BBX 11 23 7 0
BITMAP
0400
0400
0400
0400
0400
0400
0400
0400
0400
0400
0400
0400
0400
0400
0400
0400
0400
8420
4440
2480
1500
1600
0C00
ENDCHAR
STARTCHAR 2194
ENCODING 8596
SWIDTH 720 0
DWIDTH 24 0
BBX 23 12 1 5
BITMAP
040000
080040
100020
200010
400008
800004
FFFFFE
400004
200008
100010
080020
040040
ENDCHAR
STARTCHAR 2195
ENCODING 8597
SWIDTH 720 0
DWIDTH 24 0
BBX 13 24 6 0
BITMAP
0200
0700
0A80
1240
2220
4210
8208
0200
0200
0200
0200
0200
0200
0200
0200
0200
0200
0200
4210
2220
1240
0A80
0B00
0600
ENDCHAR
STARTCHAR 2196
ENCODING 8598
SWIDTH 720 0
DWIDTH 24 0
BBX 17 16 4 3
BITMAP
FF8000
A00000
900000
880000
840000
820000
810000
808000
004000
002000
001000
000800
000400
000200
000100
000080
ENDCHAR
STARTCHAR 2197
ENCODING 8599
SWIDTH 720 0
DWIDTH 24 0
BBX 16 16 4 3
BITMAP
00FF
0003
0005
0009
0011
0021
0041
0081
0100
0200
0400
0800
1000
2000
4000
8000
ENDCHAR
STARTCHAR 2198
ENCODING 8600
SWIDTH 720 0
DWIDTH 24 0
BBX 16 17 4 3
BITMAP
8000
4000
2000
1000
0800
0400
0200
0100
0081
0041
0021
0011
0009
0005
0003
0001
00FF
ENDCHAR
STARTCHAR 2199
ENCODING 8601
SWIDTH 720 0
DWIDTH 24 0
BBX 17 17 4 3
BITMAP
000080
000100
000200
000400
000800
001000
002000
004000
808000
810000
820000
840000
880000
900000
A00000
C00000
FF8000
ENDCHAR
STARTCHAR 21A9
ENCODING 8617
SWIDTH 720 0
DWIDTH 24 0
BBX 23 17 1 3
BITMAP
000030
00000C
000004
000002
000002
040002
080002
100002
200004
400004
800078
FFFF80
400000
200000
100000
080000
040000
ENDCHAR
STARTCHAR 21AA
ENCODING 8618
SWIDTH 720 0
DWIDTH 24 0
BBX 23 17 1 3
BITMAP
380000
400000
800000
800000
800000
800040
800020
800010
800008
400004
380002
07FFFE
000004
000008
000010
000020
000040
ENDCHAR
STARTCHAR 21B0
ENCODING 8624
SWIDTH 720 0
DWIDTH 24 0
BBX 16 23 3 1
BITMAP
0400
0800
1000
2000
4000
FFFF
4001
2001
1001
0801
0401
0201
0001
0001
0001
0001
0001
0001
0001
0001
0001
0001
0001
ENDCHAR
STARTCHAR 21B1
ENCODING 8625
SWIDTH 720 0
DWIDTH 24 0
BBX 16 24 6 0
BITMAP
0040
0020
0010
0008
0004
0002
FFFF
8002
8004
8008
8010
8020
8040
8000
8000
8000
8000
8000
8000
8000
8000
8000
8000
8000
ENDCHAR
STARTCHAR 21B2
ENCODING 8626
SWIDTH 720 0
DWIDTH 24 0
BBX 16 23 3 0
BITMAP
0001
0001
0001
0001
0001
0001
0001
0001
0001
0001
0001
0201
0401
0801
1001
2001
4001
BFFF
4000
2000
1000
0800
0400
ENDCHAR
STARTCHAR 21B3
ENCODING 8627
SWIDTH 720 0
DWIDTH 24 0
BBX 15 23 6 0
BITMAP
8000
8000
8000
8000
8000
8000
8000
8000
8000
8000
8000
8040
8020
8010
8008
8004
8002
FFFE
0004
0008
0010
0020
0040
ENDCHAR
STARTCHAR 21B6
ENCODING 8630
SWIDTH 780 0
DWIDTH 26 0
BBX 25 20 1 2
BITMAP
000FE000
00301800
00400400
00800200
01000100
02000100
02000100
02000080
02000080
04000080
04000000
04000000
04000000
04000000
84100000
44200000
24400000
14800000
0D000000
06000000
ENDCHAR
STARTCHAR 21B7
ENCODING 8631
SWIDTH 780 0
DWIDTH 26 0
BBX 25 20 1 2
BITMAP
03F80000
0C060000
10010000
20008000
40004000
40004000
80002000
80002000
80002000
80002000
00002000
00002000
00002000
00002000
00042080
00022100
00012200
0000A400
00006800
00003000
ENDCHAR
STARTCHAR 21BA
ENCODING 8634
SWIDTH 750 0
DWIDTH 25 0
BBX 22 23 2 0
BITMAP
000FF0
001400
001200
001100
0C1080
101040
201020
401010
400008
400008
800008
800008
800004
800004
800008
800008
400008
400008
200010
200020
100040
0C0080
03FF00
ENDCHAR
STARTCHAR 21BB
ENCODING 8635
SWIDTH 750 0
DWIDTH 25 0
BBX 22 23 2 0
BITMAP
3FC000
00C000
014000
024000
0C40C0
104020
204020
204010
400008
400008
800008
800008
800004
800004
800008
800008
400008
400008
200010
200020
100060
0C0080
03FF00
ENDCHAR
STARTCHAR 21C4
ENCODING 8644
SWIDTH 720 0
DWIDTH 24 0
BBX 23 23 1 1
BITMAP
000040
000020
000010
000008
000004
FFFFFE
000004
000008
000010
000020
000040
040000
080000
100000
200000
400000
800000
FFFFFE
400000
200000
100000
080000
040000
ENDCHAR
STARTCHAR 21C6
ENCODING 8646
SWIDTH 720 0
DWIDTH 24 0
BBX 23 23 1 1
BITMAP
040000
080000
100000
200000
400000
FFFFFE
800000
600000
100000
080000
040000
000040
000020
000010
000008
000004
000002
FFFFFE
000004
000008
000010
000020
000040
ENDCHAR
STARTCHAR 2202
ENCODING 8706
SWIDTH 570 0
DWIDTH 19 0
BBX 14 23 3 0
BITMAP
1800
0400
0300
0080
0040
0020
07A0
3850
4030
8008
8008
8008
8008
8008
8004
8004
8008
8008
8008
8008
4010
2020
1FC0
ENDCHAR
STARTCHAR 2206
ENCODING 8710
SWIDTH 600 0
DWIDTH 20 0
BBX 18 23 1 0
BITMAP
00C000
00C000
012000
012000
012000
021000
021000
041000
040800
040800
080800
080400
080400
100400
100200
100200
200100
200100
400100
400080
400080
800080
FFFFC0
ENDCHAR
STARTCHAR 220F
ENCODING 8719
SWIDTH 690 0
DWIDTH 23 0
BBX 18 30 3 -7
BITMAP
FFFFC0
400100
400100
400100
400100
400100
400100
400100
400100
400100
400100
400100
400100
400100
400100
400100
400100
400100
400100
400100
400100
400100
400100
400100
400100
400100
400100
400100
400100
000100
ENDCHAR
STARTCHAR 2211
ENCODING 8721
SWIDTH 480 0
DWIDTH 16 0
BBX 14 30 1 -7
BITMAP
FFF8
8000
4000
2000
2000
1000
0800
0800
0400
0200
0100
0100
0080
0040
0040
0040
0080
0080
0100
0200
0400
0400
0800
1000
1000
2000
4000
8000
8000
FFFC
ENDCHAR
STARTCHAR 2212
ENCODING 8722
SWIDTH 600 0
DWIDTH 20 0
BBX 16 1 2 10
BITMAP
FFFF
ENDCHAR
STARTCHAR 221A
ENCODING 8730
SWIDTH 600 0
DWIDTH 20 0
BBX 17 23 1 0
BITMAP
000080
000100
000100
000100
000200
000200
F80200
080400
080400
080400
040800
040800
040800
020800
021000
021000
021000
012000
012000
012000
00C000
00C000
00C000
ENDCHAR
STARTCHAR 221E
ENCODING 8734
SWIDTH 720 0
DWIDTH 24 0
BBX 22 12 1 4
BITMAP
3F01F0
408608
804804
802804
803004
801004
801004
803004
804804
404804
208608
0F01F0
ENDCHAR
STARTCHAR 222B
ENCODING 8747
SWIDTH 330 0
DWIDTH 11 0
BBX 8 32 2 -7
BITMAP
0F
10
10
10
10
10
10
10
10
10
10
10
10
10
10
10
10
10
10
10
10
10
10
10
10
10
10
10
10
10
10
F0
ENDCHAR
STARTCHAR 2248
ENCODING 8776
SWIDTH 600 0
DWIDTH 20 0
BBX 16 8 2 7
BITMAP
7F00
00C2
0038
0000
0000
3C00
C381
007E
ENDCHAR
STARTCHAR 2260
ENCODING 8800
SWIDTH 600 0
DWIDTH 20 0
BBX 16 13 2 3
BITMAP
0010
0010
0020
0040
7FFE
0080
0080
0100
0200
FFFF
0400
0400
0800
ENDCHAR
STARTCHAR 2264
ENCODING 8804
SWIDTH 600 0
DWIDTH 20 0
BBX 14 19 3 1
BITMAP
000C
0030
00C0
0300
0400
1800
6000
8000
4000
3000
0C00
0300
00C0
0020
0018
0004
0000
0000
FFFC
ENDCHAR
STARTCHAR 2265
ENCODING 8805
SWIDTH 600 0
DWIDTH 20 0
BBX 14 19 3 1
BITMAP
C000
3000
0C00
0200
0180
0060
0018
0004
0008
0030
00C0
0300
0C00
1000
6000
8000
0000
0000
FFFC
ENDCHAR
STARTCHAR 25CA
ENCODING 9674
SWIDTH 600 0
DWIDTH 20 0
BBX 16 23 2 0
BITMAP
0180
0240
0240
0420
0810
0810
1008
2004
2004
4002
8001
8001
8002
4002
2004
2008
1008
0810
0820
0420
0240
0280
0180
ENDCHAR
STARTCHAR 2713
ENCODING 10003
SWIDTH 900 0
DWIDTH 30 0
BBX 22 23 4 0
BITMAP
000004
000008
000008
000010
000010
000020
000040
800040
400080
400080
200100
100100
100200
080200
080400
040400
040800
020800
021000
011000
012000
00A000
004000
ENDCHAR
STARTCHAR 274C
ENCODING 10060
SWIDTH 900 0
DWIDTH 30 0
BBX 21 21 5 1
BITMAP
800008
400010
200020
100040
080080
040100
020200
010400
008800
005000
002000
005000
008800
010400
020200
040100
080080
100040
200020
400010
800008
ENDCHAR
STARTCHAR 2B0E
ENCODING 11022
SWIDTH 720 0
DWIDTH 24 0
BBX 23 15 1 3
BITMAP
FFFF80
000080
000080
000080
000080
000080
000080
000080
000080
001082
000884
000488
000290
0001A0
0000C0
ENDCHAR
STARTCHAR 2B0F
ENCODING 11023
SWIDTH 720 0
DWIDTH 24 0
BBX 23 15 1 6
BITMAP
0000C0
0001A0
000290
000488
000884
001082
000080
000080
000080
000080
000080
000080
000080
000080
FFFF80
ENDCHAR
STARTCHAR 2B10
ENCODING 11024
SWIDTH 720 0
DWIDTH 24 0
BBX 23 15 1 3
BITMAP
07FFFE
040000
040000
040000
040000
040000
040000
040000
040000
841000
442000
244000
148000
0D0000
060000
ENDCHAR
STARTCHAR 2B11
ENCODING 11025
SWIDTH 720 0
DWIDTH 24 0
BBX 23 16 1 5
BITMAP
040000
0A0000
150000
248000
444000
842000
041000
040000
040000
040000
040000
040000
040000
040000
040000
07FFFE
ENDCHAR
STARTCHAR ECE0
ENCODING 60640
SWIDTH 1170 0
DWIDTH 39 0
BBX 34 24 2 0
BITMAP
00180001C0
01F8000FC0
07F8003FC0
0FF8007FC0
1F8000FC00
3E0001F000
3C0003E000
780003C000
7800078000
F000078000
F000078000
F00007FF00
F00007FF00
F00007FF00
F000078000
7000078000
7800038000
780003C000
3C0003E000
3F0001F000
1FC000FE00
0FF8007FC0
03F8003FC0
00F8000FC0
ENDCHAR
STARTCHAR EFCC
ENCODING 61388
SWIDTH 1020 0
DWIDTH 34 0
BBX 29 24 4 0
BITMAP
00003000
FFC3FF00
FF8FFFC0
E01F03E0
E03C00F0
E0780078
E071FE20
E0E3FF00
E0E78780
E1C70200
E1CE0000
FFCE0000
FFCE0000
FFCE0000
E1C60000
E0C70300
E0E3CF80
E0E3FF00
E070FC30
E0780078
E03C00F0
E01F87E0
C007FF80
8001FE00
ENDCHAR
STARTCHAR F6D7
ENCODING 63191
SWIDTH 0 0
DWIDTH 0 0
BBX 8 8 -4 21
BITMAP
01
01
02
04
08
08
C3
C3
ENDCHAR
STARTCHAR F6D8
ENCODING 63192
SWIDTH 0 0
DWIDTH 0 0
BBX 8 8 -4 21
BITMAP
80
80
40
20
10
00
C3
C3
ENDCHAR
STARTCHAR FB01
ENCODING 64257
SWIDTH 510 0
DWIDTH 17 0
BBX 13 25 1 0
BITMAP
1F00
1018
1000
1000
1000
1000
1000
1000
FFF8
1008
1008
1008
1008
1008
1008
1008
1008
1008
1008
1008
1008
1008
1008
1008
1008
ENDCHAR
STARTCHAR FB02
ENCODING 64258
SWIDTH 510 0
DWIDTH 17 0
BBX 16 25 1 0
BITMAP
1F08
1008
1008
1008
1008
1008
1008
1008
FF08
1008
1008
1008
1008
1008
1008
1008
1008
1008
1008
1008
1008
1008
1008
1008
100F
ENDCHAR
ENDFONT
